<svg width="204" height="204" viewBox="0 0 204 204" fill="none" xmlns="http://www.w3.org/2000/svg">
<path fill-rule="evenodd" clip-rule="evenodd" d="M142.396 52.234C142.336 52.6163 142.303 50.6608 142.303 53.3901C142.303 56.1194 146.24 61.9894 151.526 63.0177H181.696L170.913 53.3901C170.913 52.9986 170.885 52.6128 170.831 52.234H170.913V27.9921C170.913 20.37 165.551 13 158.935 13C152.319 13 142.303 17.428 142.303 22.8901V47.0612H142.345V52.234H142.396Z" fill="#B1D2FC"/>
<path fill-rule="evenodd" clip-rule="evenodd" d="M89.3628 164.837C88.7086 179.028 86.9785 182.617 74.9854 190.704H128.147C116.155 182.617 114.424 179.028 113.77 164.837L101.565 163.683L89.3604 164.837H89.3628Z" fill="url(#paint0_linear_4310_60248)"/>
<path fill-rule="evenodd" clip-rule="evenodd" d="M22.4669 51.637H181.584C187.288 51.637 191.954 56.3032 191.954 62.007V154.751V156.071C191.954 161.775 187.288 166.441 181.584 166.441H22.4669C16.7631 166.441 12.0969 161.775 12.0969 156.071V62.007C12.0969 56.3032 16.7631 51.637 22.4669 51.637Z" fill="url(#paint1_linear_4310_60248)"/>
<path d="M22.6856 61.9106H180.936C181.001 61.9106 181.054 61.965 181.054 62.0315V148.979H22.5673V62.0315C22.5673 61.965 22.6204 61.9106 22.6856 61.9106Z" fill="url(#paint2_linear_4310_60248)"/>
<path fill-rule="evenodd" clip-rule="evenodd" d="M102.026 155.169C103.684 155.169 105.027 156.512 105.027 158.17C105.027 159.828 103.683 161.171 102.026 161.171C100.369 161.171 99.025 159.827 99.025 158.17C99.025 156.513 100.368 155.169 102.026 155.169Z" fill="#C3DCFA"/>
<path d="M114.175 166.441H88.9399V170.939H114.175V166.441Z" fill="#3F62BA"/>
<path fill-rule="evenodd" clip-rule="evenodd" d="M160.114 70.9875C161.034 70.9875 161.779 71.7335 161.779 72.6526C161.779 73.5716 161.033 74.3176 160.114 74.3176C159.195 74.3176 158.449 73.5716 158.449 72.6526C158.449 71.7335 159.195 70.9875 160.114 70.9875Z" fill="#7BA9E3"/>
<path fill-rule="evenodd" clip-rule="evenodd" d="M165.648 70.9875C166.568 70.9875 167.313 71.7335 167.313 72.6526C167.313 73.5716 166.567 74.3176 165.648 74.3176C164.729 74.3176 163.983 73.5716 163.983 72.6526C163.983 71.7335 164.729 70.9875 165.648 70.9875Z" fill="#7BA9E3"/>
<path fill-rule="evenodd" clip-rule="evenodd" d="M171.184 70.9875C172.104 70.9875 172.849 71.7335 172.849 72.6526C172.849 73.5716 172.103 74.3176 171.184 74.3176C170.265 74.3176 169.519 73.5716 169.519 72.6526C169.519 71.7335 170.265 70.9875 171.184 70.9875Z" fill="#7BA9E3"/>
<mask id="mask0_4310_60248" style="mask-type:luminance" maskUnits="userSpaceOnUse" x="58" y="13" width="102" height="113">
<path d="M159.056 13.0036V13.0015H158.934L159.056 13.0036ZM146.955 49.1177H146.997V125.669H58.405V27.4689C58.405 19.4785 63.7684 13.0015 70.3831 13.0015H158.933C152.317 13.0015 146.954 19.4785 146.954 27.4689V49.1177H146.955Z" fill="white"/>
</mask>
<g mask="url(#mask0_4310_60248)">
<path d="M159.055 13.0015H58.405V125.669H159.055V13.0015Z" fill="url(#paint3_linear_4310_60248)"/>
</g>
<path d="M83.5844 61.5673C81.9972 59.9802 79.8047 58.9983 77.3833 58.9983C74.9619 58.9983 72.7694 59.9802 71.1822 61.5673C69.5951 63.1545 68.6133 65.347 68.6133 67.7684C68.6133 70.1898 69.5951 72.3823 71.1822 73.9695C72.7694 75.5566 74.9619 76.5385 77.3833 76.5385C79.8047 76.5385 81.9972 75.5566 83.5844 73.9695C85.1716 72.3823 86.1534 70.1898 86.1534 67.7684C86.1534 65.347 85.1716 63.1545 83.5844 61.5673ZM77.3833 56.8767C80.3915 56.8767 83.1138 58.0955 85.0856 60.0673C87.0573 62.039 88.2762 64.7614 88.2762 67.7696C88.2762 70.7777 87.0573 73.5001 85.0856 75.4718C83.1138 77.4436 80.3915 78.6624 77.3833 78.6624C74.3752 78.6624 71.6528 77.4436 69.6811 75.4718C67.7093 73.5001 66.4905 70.7777 66.4905 67.7696C66.4905 64.7614 67.7093 62.039 69.6811 60.0673C71.6528 58.0955 74.3752 56.8767 77.3833 56.8767Z" fill="#7BA9E3"/>
<path d="M83.5844 87.1044C81.9972 85.5173 79.8047 84.5355 77.3833 84.5355C74.9619 84.5355 72.7694 85.5173 71.1822 87.1044C69.5951 88.6916 68.6133 90.8841 68.6133 93.3055C68.6133 95.7269 69.5951 97.9194 71.1822 99.5066C72.7694 101.094 74.9619 102.076 77.3833 102.076C79.8047 102.076 81.9972 101.094 83.5844 99.5066C85.1716 97.9194 86.1534 95.7269 86.1534 93.3055C86.1534 90.8841 85.1716 88.6916 83.5844 87.1044ZM77.3833 82.4138C80.3915 82.4138 83.1138 83.6327 85.0856 85.6044C87.0573 87.5762 88.2762 90.2985 88.2762 93.3067C88.2762 96.3148 87.0573 99.0372 85.0856 101.009C83.1138 102.981 80.3915 104.2 77.3833 104.2C74.3752 104.2 71.6528 102.981 69.6811 101.009C67.7093 99.0372 66.4905 96.3148 66.4905 93.3067C66.4905 90.2985 67.7093 87.5762 69.6811 85.6044C71.6528 83.6327 74.3752 82.4138 77.3833 82.4138Z" fill="#7BA9E3"/>
<path d="M83.5844 36.0324C81.9972 34.4452 79.8047 33.4634 77.3833 33.4634C74.9619 33.4634 72.7694 34.4452 71.1822 36.0324C69.5951 37.6196 68.6133 39.8121 68.6133 42.2335C68.6133 44.6549 69.5951 46.8474 71.1822 48.4346C72.7694 50.0217 74.9619 51.0035 77.3833 51.0035C79.8047 51.0035 81.9972 50.0217 83.5844 48.4346C85.1716 46.8474 86.1534 44.6549 86.1534 42.2335C86.1534 39.8121 85.1716 37.6196 83.5844 36.0324ZM77.3833 31.3418C80.3915 31.3418 83.1138 32.5606 85.0856 34.5324C87.0573 36.5041 88.2762 39.2265 88.2762 42.2347C88.2762 45.2428 87.0573 47.9652 85.0856 49.9369C83.1138 51.9087 80.3915 53.1275 77.3833 53.1275C74.3752 53.1275 71.6528 51.9087 69.6811 49.9369C67.7093 47.9652 66.4905 45.2428 66.4905 42.2347C66.4905 39.2265 67.7093 36.5041 69.6811 34.5324C71.6528 32.5606 74.3752 31.3418 77.3833 31.3418Z" fill="#7BA9E3"/>
<path fill-rule="evenodd" clip-rule="evenodd" d="M76.8936 69.3233L85.2106 61.5687C85.8601 60.9657 86.8791 61.0029 87.4821 61.6512C88.0863 62.3007 88.0491 63.3209 87.3996 63.9239L77.858 72.8148L77.8348 72.8346C77.1702 73.4155 76.15 73.3481 75.5679 72.6835L70.9714 67.4224C70.3893 66.7578 70.4579 65.7365 71.1225 65.1555C71.7871 64.5746 72.8072 64.642 73.3882 65.3054L76.8936 69.3221V69.3233Z" fill="#1865CD"/>
<path fill-rule="evenodd" clip-rule="evenodd" d="M95.6299 34.4788H109.286C110.068 34.4788 110.708 35.119 110.708 35.9009C110.708 36.6829 110.068 37.3231 109.286 37.3231H95.6299C94.8468 37.3231 94.2078 36.6829 94.2078 35.9009C94.2078 35.119 94.848 34.4788 95.6299 34.4788Z" fill="#7BA9E3"/>
<path fill-rule="evenodd" clip-rule="evenodd" d="M95.6311 40.5037H137.513C138.296 40.5037 138.935 41.1439 138.935 41.927C138.935 42.7101 138.295 43.3492 137.513 43.3492H95.6311C94.848 43.3492 94.2078 42.709 94.2078 41.927C94.2078 41.145 94.848 40.5037 95.6311 40.5037Z" fill="#7BA9E3"/>
<path fill-rule="evenodd" clip-rule="evenodd" d="M95.6311 47.1838H124.478C125.261 47.1838 125.901 47.824 125.901 48.6072C125.901 49.3903 125.261 50.0293 124.478 50.0293H95.6311C94.848 50.0293 94.2078 49.3891 94.2078 48.6072C94.2078 47.8252 94.848 47.1838 95.6311 47.1838Z" fill="#7BA9E3"/>
<path fill-rule="evenodd" clip-rule="evenodd" d="M95.6299 59.3418H109.286C110.068 59.3418 110.708 59.982 110.708 60.7651C110.708 61.5483 110.068 62.1873 109.286 62.1873H95.6299C94.8468 62.1873 94.2078 61.5471 94.2078 60.7651C94.2078 59.9832 94.848 59.3418 95.6299 59.3418Z" fill="#7BA9E3"/>
<path fill-rule="evenodd" clip-rule="evenodd" d="M95.6299 85.95H109.286C110.068 85.95 110.708 86.5902 110.708 87.3721C110.708 88.1541 110.068 88.7943 109.286 88.7943H95.6299C94.8468 88.7943 94.2078 88.1541 94.2078 87.3721C94.2078 86.5902 94.848 85.95 95.6299 85.95Z" fill="#7BA9E3"/>
<path fill-rule="evenodd" clip-rule="evenodd" d="M95.6311 65.3684H137.513C138.296 65.3684 138.935 66.0086 138.935 66.7906C138.935 67.5725 138.295 68.2139 137.513 68.2139H95.6311C94.848 68.2139 94.2078 67.5737 94.2078 66.7906C94.2078 66.0075 94.848 65.3684 95.6311 65.3684Z" fill="#7BA9E3"/>
<path fill-rule="evenodd" clip-rule="evenodd" d="M95.6311 92.1628H137.513C138.296 92.1628 138.935 92.8031 138.935 93.585C138.935 94.367 138.295 95.0072 137.513 95.0072H95.6311C94.848 95.0072 94.2078 94.367 94.2078 93.585C94.2078 92.8031 94.848 92.1628 95.6311 92.1628Z" fill="#7BA9E3"/>
<path fill-rule="evenodd" clip-rule="evenodd" d="M95.6311 72.0486H124.478C125.261 72.0486 125.901 72.6888 125.901 73.4708C125.901 74.2527 125.261 74.8941 124.478 74.8941H95.6311C94.848 74.8941 94.2078 74.2539 94.2078 73.4708C94.2078 72.6876 94.848 72.0486 95.6311 72.0486Z" fill="#7BA9E3"/>
<path fill-rule="evenodd" clip-rule="evenodd" d="M95.6311 98.8433H124.478C125.261 98.8433 125.901 99.4835 125.901 100.265C125.901 101.047 125.261 101.689 124.478 101.689H95.6311C94.848 101.689 94.2078 101.049 94.2078 100.265C94.2078 99.4823 94.848 98.8433 95.6311 98.8433Z" fill="#7BA9E3"/>
<path fill-rule="evenodd" clip-rule="evenodd" d="M131.294 130.175L132.344 129.48C132.782 129.19 132.98 128.641 132.815 128.142C132.499 127.175 132.31 126.187 132.244 125.193C132.207 124.668 131.821 124.232 131.305 124.128L130.072 123.874C129.432 123.744 129.018 123.121 129.147 122.481L129.629 120.119C129.76 119.479 130.386 119.066 131.024 119.196L132.258 119.447C132.775 119.552 133.3 119.303 133.538 118.834C133.988 117.946 134.55 117.109 135.218 116.343C135.565 115.947 135.597 115.367 135.305 114.928L134.612 113.877C134.25 113.332 134.401 112.6 134.945 112.239L136.956 110.91C137.499 110.549 138.233 110.699 138.593 111.243L139.288 112.292C139.579 112.73 140.126 112.928 140.626 112.766C141.592 112.45 142.582 112.261 143.574 112.194C144.101 112.158 144.535 111.771 144.64 111.254L144.892 110.02C145.023 109.381 145.646 108.968 146.286 109.099L148.649 109.58C149.289 109.71 149.701 110.335 149.572 110.975L149.321 112.209C149.216 112.725 149.465 113.252 149.936 113.489C150.823 113.94 151.659 114.502 152.426 115.169C152.821 115.517 153.402 115.548 153.841 115.258L154.891 114.564C155.435 114.203 156.168 114.353 156.529 114.897L157.858 116.908C158.219 117.452 158.069 118.185 157.524 118.546L156.475 119.24C156.036 119.531 155.839 120.078 156.002 120.579C156.319 121.544 156.507 122.534 156.574 123.525C156.609 124.052 156.997 124.486 157.513 124.592L158.746 124.843C159.386 124.974 159.799 125.598 159.669 126.238L159.189 128.599C159.059 129.24 158.433 129.652 157.793 129.523L156.561 129.27C156.042 129.166 155.517 129.414 155.279 129.885C154.828 130.771 154.268 131.61 153.599 132.373C153.252 132.769 153.219 133.352 153.51 133.791L154.204 134.841C154.566 135.384 154.416 136.119 153.871 136.478L151.861 137.809C151.317 138.168 150.582 138.019 150.222 137.475L149.528 136.425C149.238 135.986 148.69 135.789 148.188 135.952C147.223 136.268 146.233 136.456 145.242 136.524C144.717 136.56 144.281 136.947 144.176 137.463L143.925 138.696C143.795 139.337 143.17 139.75 142.53 139.62L140.168 139.138C139.528 139.009 139.114 138.384 139.246 137.743L139.497 136.509C139.603 135.993 139.354 135.468 138.884 135.229C137.996 134.78 137.158 134.219 136.394 133.55C135.997 133.204 135.418 133.17 134.978 133.462L133.926 134.156C133.383 134.517 132.648 134.368 132.289 133.823L130.959 131.813C130.598 131.269 130.748 130.535 131.293 130.176M139.638 128.845C141.506 130.862 144.536 131.48 147.044 130.353C151.183 128.496 152.259 123.208 149.177 119.877C147.309 117.862 144.28 117.244 141.772 118.369C137.632 120.228 136.554 125.515 139.637 128.844L139.638 128.845Z" fill="url(#paint4_linear_4310_60248)"/>
<defs>
<linearGradient id="paint0_linear_4310_60248" x1="101.566" y1="163.683" x2="101.566" y2="190.704" gradientUnits="userSpaceOnUse">
<stop stop-color="#65A4FA"/>
<stop offset="1" stop-color="#4180D6"/>
</linearGradient>
<linearGradient id="paint1_linear_4310_60248" x1="102.025" y1="51.637" x2="102.025" y2="166.441" gradientUnits="userSpaceOnUse">
<stop stop-color="#A1C8FE"/>
<stop offset="1" stop-color="#5D9AEC"/>
</linearGradient>
<linearGradient id="paint2_linear_4310_60248" x1="101.811" y1="61.9106" x2="101.811" y2="148.979" gradientUnits="userSpaceOnUse">
<stop stop-color="#EAF3FF"/>
<stop offset="1" stop-color="white"/>
</linearGradient>
<linearGradient id="paint3_linear_4310_60248" x1="108.731" y1="85.8721" x2="108.731" y2="-35.8048" gradientUnits="userSpaceOnUse">
<stop stop-color="#FDFDFD"/>
<stop offset="0.588542" stop-color="#D5E9FF"/>
</linearGradient>
<linearGradient id="paint4_linear_4310_60248" x1="144.408" y1="109.075" x2="144.408" y2="139.644" gradientUnits="userSpaceOnUse">
<stop stop-color="#5493E9"/>
<stop offset="0.635417" stop-color="#5493E9" stop-opacity="0.510417"/>
<stop offset="1" stop-color="#5493E9" stop-opacity="0"/>
</linearGradient>
</defs>
</svg>
