<svg width="204" height="204" viewBox="0 0 204 204" fill="none" xmlns="http://www.w3.org/2000/svg">
<g clip-path="url(#clip0_4310_61014)">
<path d="M162.326 26.7057V179.782C162.326 181.266 161.122 182.47 159.637 182.47H41.6704C40.1853 182.47 38.9808 181.266 38.9808 179.782V26.7057C38.9808 25.2206 40.1853 24.0176 41.6704 24.0176H159.637C161.122 24.0176 162.326 25.2206 162.326 26.7057Z" fill="url(#paint0_linear_4310_61014)"/>
<path d="M51.7022 24.0176V182.47H41.6704C40.1853 182.47 38.9808 181.266 38.9808 179.782V26.7057C38.9808 25.2206 40.1853 24.0176 41.6704 24.0176H51.7022Z" fill="url(#paint1_linear_4310_61014)"/>
<g opacity="0.7">
<path d="M87.2593 66.1041L84.6806 68.583C84.4639 68.7874 84.1504 68.8523 83.8714 68.7531C83.5144 68.624 83.1488 68.5099 82.7764 68.4103C82.0815 68.2232 81.3905 68.0902 80.703 68.0178C80.3799 67.9835 80.1128 67.7624 80.0256 67.4527L78.9906 63.8594C78.8833 63.4745 78.4951 63.2371 78.0984 63.3158L74.7437 63.975C74.3633 64.0515 74.1038 64.3968 74.1346 64.7809L74.4284 68.2123C74.4648 68.5461 74.2693 68.8615 73.9505 68.9936C72.6078 69.5549 71.3561 70.3293 70.2452 71.2887C69.9762 71.5198 69.576 71.538 69.2858 71.3336L67.572 70.13C67.2442 69.904 66.7953 69.9543 66.5275 70.253L64.2965 72.8105C64.2512 72.8629 64.2104 72.9163 64.1826 72.9789C64.0383 73.2636 64.087 73.6196 64.3181 73.8567L66.1688 75.785L66.621 76.2535C66.3704 76.8381 66.1571 77.451 65.9883 78.0795C65.7596 78.9276 65.6154 79.7828 65.552 80.6227C65.5256 80.9437 65.3106 81.2176 65.0004 81.3028L62.1053 82.1337C61.7102 82.2502 61.4659 82.6444 61.5482 83.0465L62.051 85.6117L62.1971 86.3468C62.2749 86.748 62.6448 87.0285 63.0507 86.9918L65.9184 86.7473C66.2513 86.7154 66.565 86.8965 66.6948 87.1989C67.096 88.0946 67.5919 88.9479 68.1716 89.7343C68.2166 89.8071 68.2648 89.8684 68.3166 89.9351C68.3349 89.9557 68.3497 89.9793 68.3625 90.0034C68.5295 90.2704 68.5143 90.6096 68.3314 90.8686L66.382 93.654C66.3581 93.6837 66.3404 93.7203 66.3235 93.7523C66.1658 94.0661 66.239 94.4579 66.5064 94.696L69.0524 96.9237C69.3601 97.1933 69.8196 97.1826 70.1189 96.8987L72.8086 94.3116C73.0335 94.0902 73.3729 94.0353 73.6598 94.1641C74.2966 94.4431 74.9646 94.6799 75.662 94.8684C76.0324 94.9685 76.4005 95.0523 76.7704 95.1186C77.07 95.1762 77.3152 95.3947 77.3976 95.6865L78.393 99.1399C78.5012 99.5203 78.8854 99.7588 79.2782 99.6811L82.5957 99.0255C82.9969 98.9477 83.2765 98.5822 83.2422 98.1693L83.0092 95.4554C82.9772 95.0907 83.1977 94.7581 83.5397 94.641C84.8938 94.1933 86.1672 93.5318 87.3169 92.6935C87.5848 92.4903 87.959 92.4854 88.2386 92.682L90.7499 94.4397C91.0868 94.676 91.5465 94.6186 91.8201 94.3099L94.042 91.7739C94.3102 91.4687 94.2955 91.0103 94.0174 90.7242L93.9106 90.6107L91.7599 88.3704C91.5303 88.1308 91.4747 87.7809 91.6162 87.4778L91.6152 87.4739C91.9563 86.7525 92.2377 85.99 92.4524 85.1923C92.5675 84.7669 92.6572 84.342 92.731 83.9129C92.7782 83.6139 92.9938 83.3738 93.2831 83.2899L96.2217 82.4473C96.6238 82.3332 96.8714 81.9276 96.7901 81.5209L96.1382 78.2173C96.1192 78.1227 96.0815 78.0373 96.0374 77.9601C95.8862 77.7121 95.5993 77.5599 95.2981 77.5834L93.0081 77.7834C92.7277 77.8055 92.4551 77.6749 92.2973 77.45C92.2561 77.3911 92.2211 77.3241 92.1956 77.2525C91.6104 75.5195 90.6865 73.924 89.4742 72.5499C89.2661 72.3194 89.2257 71.9866 89.3527 71.7087C89.372 71.6696 89.3937 71.6319 89.4194 71.5932L90.9995 69.3374C91.228 69.011 91.1763 68.5646 90.8756 68.2974L90.8171 68.2452L88.338 66.0695C88.0234 65.7975 87.5585 65.8118 87.2596 66.0976L87.2593 66.1041ZM75.3399 87.9514C74.87 87.6701 74.4052 87.3365 73.9578 86.941C73.1062 86.1851 72.2132 84.6492 71.9916 83.5293C71.9682 83.4104 71.9469 83.291 71.9255 83.1716C70.761 75.9289 78.7811 71.4045 84.4045 76.2753C85.1378 76.9145 85.885 78.0886 86.262 79.1393C86.3466 79.3838 86.4147 79.6222 86.4537 79.8387C86.6482 80.8577 86.663 81.823 86.5271 82.7247C85.7413 87.858 80.0583 90.7275 75.3373 87.95L75.3399 87.9514Z" fill="url(#paint2_radial_4310_61014)"/>
</g>
<path d="M114.042 57.78L112.081 58.4458C111.917 58.4991 111.737 58.4581 111.614 58.3352C111.458 58.1795 111.295 58.03 111.124 57.8866C110.807 57.6182 110.477 57.3785 110.133 57.1716C109.973 57.0753 109.887 56.893 109.918 56.7086L110.258 54.5718C110.297 54.3444 110.151 54.1232 109.924 54.0679L108.004 53.5905C107.787 53.5373 107.566 53.654 107.488 53.863L106.8 55.7334C106.736 55.9157 106.558 56.0346 106.357 56.0264C105.515 55.9916 104.669 56.0899 103.852 56.3193C103.655 56.3746 103.44 56.2845 103.338 56.1083L102.735 55.0553C102.618 54.8566 102.371 54.7726 102.158 54.8648L100.361 55.6576C100.324 55.674 100.289 55.6924 100.26 55.717C100.115 55.8297 100.054 56.0305 100.117 56.2108L100.613 57.6756L100.734 58.032C100.459 58.2758 100.197 58.5462 99.9532 58.8351C99.6254 59.2243 99.3406 59.6361 99.0989 60.0602C99.0067 60.222 98.8264 60.3122 98.6441 60.2814L96.9232 60.0069C96.6876 59.97 96.4623 60.1175 96.4069 60.349L96.0402 61.8179L95.9357 62.2379C95.8784 62.4673 96.0033 62.705 96.2246 62.7849L97.7877 63.3606C97.9701 63.4261 98.0909 63.5982 98.0848 63.7867C98.0745 64.3542 98.1257 64.9237 98.2364 65.4789C98.2425 65.5281 98.2528 65.5731 98.263 65.6202C98.2671 65.6366 98.2692 65.651 98.2712 65.6673C98.2937 65.8476 98.2016 66.0218 98.0418 66.114L96.3352 67.0953C96.3147 67.1055 96.2963 67.1199 96.2799 67.1321C96.1201 67.2571 96.0628 67.4804 96.1447 67.6709L96.9314 69.4635C97.0256 69.6807 97.2694 69.7872 97.4968 69.7114L99.5414 69.0149C99.7135 68.9534 99.904 69.0087 100.025 69.148C100.289 69.4512 100.582 69.738 100.902 70.0085C101.072 70.1519 101.244 70.285 101.422 70.412C101.565 70.5145 101.639 70.6907 101.611 70.8648L101.285 72.9196C101.248 73.145 101.391 73.3642 101.617 73.4215L103.516 73.8927C103.745 73.9501 103.981 73.8272 104.065 73.6018L104.61 72.1227C104.683 71.924 104.88 71.8031 105.087 71.8256C105.907 71.9219 106.736 71.8891 107.545 71.7314C107.736 71.6904 107.933 71.7806 108.031 71.9506L108.916 73.4891C109.035 73.6961 109.291 73.778 109.508 73.6837L111.295 72.9012C111.51 72.8069 111.616 72.5632 111.538 72.3439L111.51 72.2579L110.932 70.5555C110.87 70.3731 110.928 70.1765 111.075 70.0535C111.43 69.7565 111.766 69.4267 112.073 69.062C112.237 68.8674 112.389 68.6666 112.534 68.4597C112.632 68.3142 112.804 68.2405 112.976 68.2692L114.724 68.5498C114.964 68.5888 115.193 68.4371 115.248 68.2036L115.718 66.3127C115.73 66.2594 115.732 66.2041 115.728 66.1529C115.709 65.9869 115.597 65.8353 115.433 65.7739L114.183 65.317C114.032 65.2597 113.919 65.1245 113.892 64.9688C113.886 64.9278 113.884 64.8848 113.888 64.8418C114.007 63.7888 113.913 62.7255 113.616 61.7094C113.562 61.5373 113.624 61.3529 113.759 61.2382C113.777 61.2218 113.8 61.2074 113.823 61.1951L115.205 60.4003C115.406 60.2855 115.488 60.0377 115.396 59.8246L115.378 59.7836L114.611 58.0341C114.513 57.8149 114.265 57.7083 114.038 57.7841L114.042 57.78ZM102.432 66.3045C102.254 66.0423 102.094 65.7534 101.957 65.4359C101.695 64.8315 101.604 63.8051 101.764 63.1659C101.781 63.0963 101.799 63.0307 101.817 62.9631C102.985 58.8822 108.299 58.4786 110.051 62.4121C110.278 62.9263 110.383 63.7252 110.321 64.3685C110.305 64.5181 110.285 64.6594 110.25 64.7823C110.102 65.3642 109.873 65.8743 109.58 66.3127C107.908 68.81 104.225 68.9186 102.432 66.3045Z" fill="url(#paint3_radial_4310_61014)"/>
<path d="M103.359 121.981L108.442 119.513C108.868 119.312 109.368 119.365 109.741 119.652C110.216 120.019 110.708 120.369 111.22 120.701C112.171 121.319 113.146 121.856 114.143 122.299C114.611 122.508 114.906 122.971 114.885 123.479L114.69 129.381C114.664 130.01 115.131 130.557 115.766 130.633L121.125 131.278C121.734 131.35 122.291 130.954 122.432 130.362L123.662 125.066C123.77 124.548 124.215 124.169 124.758 124.124C127.048 123.936 129.306 123.382 131.44 122.483C131.957 122.266 132.567 122.436 132.901 122.881L134.888 125.525C135.269 126.023 135.97 126.169 136.517 125.849L141.116 123.096C141.21 123.04 141.296 122.977 141.368 122.899C141.725 122.542 141.825 121.981 141.591 121.514L139.752 117.716L139.301 116.792C139.961 116.036 140.579 115.219 141.141 114.356C141.897 113.192 142.53 111.98 143.036 110.75C143.23 110.281 143.687 109.976 144.195 109.997L148.95 110.158C149.6 110.177 150.159 109.702 150.231 109.058L150.724 104.961L150.862 103.787C150.939 103.146 150.521 102.544 149.895 102.402L145.469 101.372C144.955 101.259 144.57 100.831 144.523 100.317C144.357 98.774 144.029 97.2539 143.54 95.7891C143.507 95.658 143.464 95.5412 143.421 95.4183C143.402 95.3773 143.394 95.3343 143.386 95.2912C143.265 94.8098 143.454 94.3059 143.853 94.0067L148.139 90.7699C148.19 90.7371 148.233 90.692 148.274 90.651C148.663 90.2557 148.745 89.6328 148.458 89.1453L145.719 84.5563C145.388 84.0032 144.693 83.7942 144.107 84.0748L138.807 86.6521C138.361 86.8754 137.826 86.7934 137.455 86.4574C136.636 85.7261 135.747 85.0459 134.792 84.4252C134.286 84.0953 133.77 83.7901 133.247 83.5094C132.823 83.2779 132.563 82.8293 132.581 82.3499L132.768 76.6771C132.79 76.0523 132.327 75.5094 131.7 75.4336L126.396 74.8026C125.755 74.7248 125.157 75.1366 125.007 75.7757L124.034 79.9673C123.903 80.5307 123.414 80.924 122.84 80.9343C120.589 80.9486 118.353 81.3215 116.217 82.0201C115.715 82.1942 115.151 82.0201 114.828 81.5878L111.912 77.724C111.521 77.2057 110.802 77.0684 110.243 77.3962L105.67 80.123C105.119 80.4487 104.916 81.1473 105.197 81.7128L105.301 81.936L107.442 86.3489C107.672 86.8221 107.584 87.3752 107.225 87.7583L107.221 87.7624C106.361 88.6802 105.566 89.6861 104.855 90.7822C104.476 91.366 104.134 91.9601 103.812 92.5686C103.595 92.9927 103.154 93.2508 102.679 93.2365L97.8525 93.0705C97.1928 93.0459 96.6233 93.5356 96.5475 94.185L95.9165 99.4664C95.9001 99.618 95.9124 99.7655 95.9411 99.9028C96.0497 100.347 96.4041 100.718 96.8692 100.829L100.407 101.642C100.839 101.747 101.186 102.074 101.313 102.488C101.345 102.597 101.364 102.714 101.368 102.832C101.403 105.721 102.015 108.569 103.167 111.222C103.37 111.668 103.265 112.191 102.939 112.545C102.892 112.594 102.839 112.641 102.782 112.684L99.3091 115.303C98.8051 115.682 98.6679 116.378 98.9895 116.925L99.053 117.032L101.718 121.506C102.06 122.067 102.763 122.274 103.353 121.987L103.359 121.981ZM131.903 94.9676C132.473 95.617 133.007 96.3463 133.487 97.1576C134.399 98.7064 134.991 101.452 134.778 103.238C134.755 103.431 134.728 103.619 134.702 103.808C132.926 115.255 118.673 118.146 112.599 108.089C111.808 106.774 111.257 104.643 111.204 102.882C111.197 102.474 111.208 102.083 111.255 101.738C111.458 100.114 111.906 98.6551 112.552 97.3686C116.233 90.0405 126.167 88.4979 131.903 94.9676Z" fill="url(#paint4_radial_4310_61014)"/>
<path d="M56.3594 20.9999C56.3594 20.9999 53.2017 20.9322 53.0945 24.018H59.7316C59.7316 24.018 60.4269 21.7163 62.462 22.5089V20.9999H56.3594Z" fill="#AAC4FF"/>
<path d="M56.3598 20.9998C56.3598 20.9998 61.98 21.5357 62.1944 26.3534C62.4088 31.1712 62.1944 40.8067 62.1944 40.8067L66.4762 39.2003L69.902 40.8067V26.1391C69.902 26.1391 69.5804 21.7501 64.977 20.9998H56.3584H56.3598Z" fill="url(#paint5_linear_4310_61014)"/>
<path d="M22.9544 182.472H111.191C117.328 182.472 122.303 177.497 122.303 171.36V170.896C122.303 164.759 117.328 159.784 111.191 159.784H22.9544C16.8173 159.784 11.8423 164.759 11.8423 170.896V171.36C11.8423 177.497 16.8173 182.472 22.9544 182.472Z" fill="url(#paint6_linear_4310_61014)"/>
<path d="M72.9628 168.109L72.8839 173.068C72.8133 177.454 76.3138 181.067 80.7 181.138L139.344 182.074L139.359 181.086C136.069 179.375 133.847 175.91 133.911 171.951L133.939 170.206C134.003 166.246 136.334 162.856 139.676 161.249V161.229L81.0328 160.293C76.6467 160.223 73.0334 163.723 72.9628 168.109Z" fill="white"/>
<path d="M140.877 182.471H79.0958C75.1115 182.471 71.989 177.484 71.989 171.119C71.989 164.754 75.1101 159.767 79.0958 159.767H140.877C141.391 159.767 141.807 160.183 141.807 160.697C141.807 161.21 141.391 161.626 140.877 161.626H79.0958C76.2511 161.626 73.8478 165.974 73.8478 171.12C73.8478 176.267 76.2511 180.615 79.0958 180.615H140.877C141.391 180.615 141.807 181.031 141.807 181.544C141.807 182.058 141.391 182.474 140.877 182.474V182.471Z" fill="#1869D6"/>
<path d="M134.984 165.819H90.3733V165.953H134.984V165.819Z" fill="#E8C2A3"/>
<path d="M134.227 167.884H114.058V168.018H134.227V167.884Z" fill="#E8C2A3"/>
<path d="M134.228 174.93H99.0428V175.064H134.228V174.93Z" fill="#E8C2A3"/>
<path d="M101.915 165.884C101.915 165.884 103.786 166.667 104.009 169.311C104.232 171.955 104.009 173.364 104.009 173.364L101.75 172.29L99.4676 173.364V169.231C99.4676 169.231 99.3844 165.884 96.2704 165.884H101.915Z" fill="#5493E9"/>
<path d="M172.339 131.678L201.571 159.201C202.144 159.741 202.867 159.912 203.176 159.583L204.163 158.535C204.473 158.205 204.258 157.495 203.685 156.956L174.453 129.433C173.88 128.893 173.157 128.722 172.848 129.051L171.861 130.099C171.55 130.427 171.766 131.139 172.339 131.678Z" fill="#1865CD"/>
<path d="M188.745 147.124L201.572 159.2C202.144 159.741 202.868 159.911 203.177 159.583L204.164 158.535C204.474 158.205 204.259 157.494 203.686 156.955L190.859 144.878L188.745 147.124Z" fill="#5493E9"/>
<path d="M173.826 98.9008C165.157 89.6842 150.657 89.2442 141.442 97.915C141.319 98.0292 141.199 98.1449 141.082 98.2619C132.214 106.968 131.897 121.205 140.453 130.301C149.124 139.516 163.624 139.959 172.841 131.288C175.857 128.449 177.936 124.985 179.059 121.287C181.369 113.69 179.66 105.099 173.826 98.9008ZM171.601 129.972C166.237 135.02 158.93 136.714 152.261 135.135C148.378 134.216 144.711 132.186 141.771 129.062C133.785 120.574 134.191 107.219 142.68 99.2336C145.806 96.2931 149.588 94.4921 153.523 93.8109C160.274 92.6417 167.464 94.7798 172.509 100.143C180.497 108.634 180.088 121.988 171.599 129.974L171.601 129.972Z" fill="#1865CD"/>
<g opacity="0.5">
<path d="M141.771 129.062C144.712 132.187 148.379 134.215 152.261 135.136C158.93 136.715 166.237 135.019 171.602 129.973C180.09 121.988 180.497 108.632 172.51 100.143C167.464 94.7793 160.274 92.6426 153.524 93.8118C149.589 94.4916 145.805 96.294 142.681 99.2332C134.192 107.219 133.786 120.575 141.771 129.062Z" fill="url(#paint7_linear_4310_61014)"/>
</g>
<path d="M6.19719 159.781H76.2406C79.6636 159.781 82.4377 157.007 82.4377 153.584C82.4377 150.161 79.6636 147.387 76.2406 147.387H6.19719C2.77427 147.387 0.00012207 150.161 0.00012207 153.584C0.00012207 157.007 2.77427 159.781 6.19719 159.781Z" fill="url(#paint8_linear_4310_61014)"/>
<path d="M45.6148 151.93L45.5556 154.635C45.5034 157.027 48.1154 158.999 51.3888 159.037L95.1546 159.548L95.1659 159.009C92.7105 158.075 91.0534 156.185 91.0999 154.026L91.1211 153.074C91.169 150.913 92.908 149.064 95.4029 148.189V148.177L51.637 147.667C48.3636 147.629 45.667 149.537 45.6148 151.93Z" fill="white"/>
<path d="M96.2997 159.764H50.1927C47.2183 159.764 44.8898 157.044 44.8898 153.571C44.8898 150.099 47.2197 147.378 50.1927 147.378H96.2997C96.6819 147.378 96.9936 147.605 96.9936 147.885C96.9936 148.164 96.6833 148.391 96.2997 148.391H50.1927C48.0701 148.391 46.2761 150.763 46.2761 153.57C46.2761 156.376 48.0701 158.749 50.1927 158.749H96.2997C96.6819 158.749 96.9936 158.976 96.9936 159.255C96.9936 159.534 96.6833 159.761 96.2997 159.761V159.764Z" fill="#3277D5"/>
<path d="M91.9017 150.672H58.609V150.758H91.9017V150.672Z" fill="#E8C2A3"/>
<path d="M91.3372 151.801H76.2845V151.887H91.3372V151.801Z" fill="#E8C2A3"/>
<path d="M91.3385 155.644H65.0792V155.73H91.3385V155.644Z" fill="#E8C2A3"/>
</g>
<defs>
<linearGradient id="paint0_linear_4310_61014" x1="100.653" y1="24.0176" x2="100.653" y2="182.47" gradientUnits="userSpaceOnUse">
<stop stop-color="#A2C9FE"/>
<stop offset="1" stop-color="#5493E9"/>
</linearGradient>
<linearGradient id="paint1_linear_4310_61014" x1="38.5806" y1="54.0073" x2="53.1552" y2="54.0073" gradientUnits="userSpaceOnUse">
<stop stop-color="#3C81DF"/>
<stop offset="1" stop-color="#407AC9"/>
</linearGradient>
<radialGradient id="paint2_radial_4310_61014" cx="0" cy="0" r="1" gradientUnits="userSpaceOnUse" gradientTransform="translate(85.9812 107.712) rotate(-105) scale(45.1564 43.8984)">
<stop stop-color="#1865CD"/>
<stop offset="1" stop-color="#1865CD" stop-opacity="0.56"/>
</radialGradient>
<radialGradient id="paint3_radial_4310_61014" cx="0" cy="0" r="1" gradientUnits="userSpaceOnUse" gradientTransform="translate(105.471 84.2461) rotate(-89.3381) scale(30.6705 29.8842)">
<stop stop-color="#EDF5FF"/>
<stop offset="1" stop-color="#EDF5FF" stop-opacity="0.61"/>
</radialGradient>
<radialGradient id="paint4_radial_4310_61014" cx="0" cy="0" r="1" gradientUnits="userSpaceOnUse" gradientTransform="translate(121.823 65.2347) rotate(88.4413) scale(71.8812 69.9326)">
<stop stop-color="#5090E7"/>
<stop offset="1" stop-color="#0F57B8"/>
</radialGradient>
<linearGradient id="paint5_linear_4310_61014" x1="63.1302" y1="20.9998" x2="63.1302" y2="40.8067" gradientUnits="userSpaceOnUse">
<stop stop-color="#EDF5FF"/>
<stop offset="1" stop-color="#DCECFF"/>
</linearGradient>
<linearGradient id="paint6_linear_4310_61014" x1="67.0729" y1="182.472" x2="67.0729" y2="159.784" gradientUnits="userSpaceOnUse">
<stop stop-color="#1E4E8E"/>
<stop offset="1" stop-color="#1865CD"/>
</linearGradient>
<linearGradient id="paint7_linear_4310_61014" x1="157.141" y1="93.5012" x2="157.141" y2="135.706" gradientUnits="userSpaceOnUse">
<stop stop-color="#63A0FB"/>
<stop offset="1" stop-color="#B3CFF9" stop-opacity="0"/>
</linearGradient>
<linearGradient id="paint8_linear_4310_61014" x1="41.2189" y1="147.387" x2="41.2189" y2="159.781" gradientUnits="userSpaceOnUse">
<stop stop-color="#5493E9"/>
<stop offset="1" stop-color="#3379D9"/>
</linearGradient>
<clipPath id="clip0_4310_61014">
<rect width="204" height="204" fill="white"/>
</clipPath>
</defs>
</svg>
