<svg width="438" height="158" viewBox="0 0 438 158" fill="none" xmlns="http://www.w3.org/2000/svg">
<rect width="438" height="158" rx="16" fill="#F4F9FF"/>
<path d="M398.022 131.653C398.022 129.802 374.583 128.305 345.674 128.305C316.765 128.305 293.326 129.802 293.326 131.653C293.326 133.503 316.765 135 345.674 135C374.583 135 398.022 133.503 398.022 131.653Z" fill="#D2E3FA"/>
<path d="M361.025 128.56H330.916L334.833 117.562H357.104L361.025 128.56Z" fill="#E2E1E1"/>
<path d="M357.097 117.562H334.827L333.302 121.836H358.618L357.097 117.562Z" fill="#AEAEAE"/>
<path d="M329.671 127.285H362.269C363.271 127.285 364.086 128.1 364.086 129.102V130.063H327.858V129.102C327.858 128.1 328.673 127.285 329.675 127.285H329.671Z" fill="#AEAEAE"/>
<path d="M396.397 48.8699C396.397 47.2438 395.079 45.9219 393.449 45.9219H298.075C296.449 45.9219 295.127 47.2398 295.127 48.8699V110.097H396.397V48.8699Z" fill="#003243"/>
<path d="M295.127 110.098V116.087C295.127 117.713 296.445 119.035 298.075 119.035H393.449C395.075 119.035 396.397 117.717 396.397 116.087V110.098H295.127Z" fill="#E2E1E1"/>
<path d="M391.575 50.1562H299.737V105.264H391.575V50.1562Z" fill="#96D6F7"/>
<path d="M390.352 50.8867H300.958V104.527H390.352V50.8867Z" fill="#D6EEFD"/>
<path opacity="0.37" d="M396.397 48.8699C396.397 47.2438 395.079 45.9219 393.449 45.9219H311.424L396.397 106.168V48.8699Z" fill="white"/>
<path d="M379.918 33.8789H310.564V105.26H379.918V33.8789Z" fill="white"/>
<path d="M313.63 23H376.852C378.543 23 379.918 24.3747 379.918 26.0656V36.6128H310.564V26.0656C310.564 24.3747 311.939 23 313.63 23Z" fill="#497D8A"/>
<path d="M320.244 29.8234C320.244 30.9263 319.347 31.8225 318.244 31.8225C317.142 31.8225 316.245 30.9263 316.245 29.8234C316.245 28.7204 317.142 27.8242 318.244 27.8242C319.347 27.8242 320.244 28.7204 320.244 29.8234Z" fill="#E4003E"/>
<path d="M326.027 29.8234C326.027 30.9263 325.13 31.8225 324.027 31.8225C322.924 31.8225 322.028 30.9263 322.028 29.8234C322.028 28.7204 322.924 27.8242 324.027 27.8242C325.13 27.8242 326.027 28.7204 326.027 29.8234Z" fill="#C7D534"/>
<path d="M331.804 29.8234C331.804 30.9263 330.908 31.8225 329.805 31.8225C328.702 31.8225 327.806 30.9263 327.806 29.8234C327.806 28.7204 328.702 27.8242 329.805 27.8242C330.908 27.8242 331.804 28.7204 331.804 29.8234Z" fill="#FECB23"/>
<path d="M373.453 27.0156H338.458V32.717H373.453V27.0156Z" fill="white"/>
<path d="M374.533 41.375H315.751V74.8615H374.533V41.375Z" fill="#DDF1FD"/>
<path d="M343.198 78.1289H326.625V80.1118H343.198V78.1289Z" fill="#E2E1E1"/>
<path d="M354.075 82.9766H315.751V84.9595H354.075V82.9766Z" fill="#E2E1E1"/>
<path d="M354.075 87.8242H315.751V89.8071H354.075V87.8242Z" fill="#E2E1E1"/>
<path d="M354.075 92.6758H315.751V94.6587H354.075V92.6758Z" fill="#E2E1E1"/>
<path d="M354.075 97.5234H315.751V99.5063H354.075V97.5234Z" fill="#E2E1E1"/>
<path d="M373.001 78.1289H361.27V80.1118H373.001V78.1289Z" fill="#E2E1E1"/>
<path d="M373.001 82.9766H361.27V84.9595H373.001V82.9766Z" fill="#E2E1E1"/>
<path d="M373.001 87.8242H361.27V89.8071H373.001V87.8242Z" fill="#E2E1E1"/>
<path d="M373.001 92.6758H361.27V94.6587H373.001V92.6758Z" fill="#E2E1E1"/>
<path d="M373.001 97.5234H361.27V99.5063H373.001V97.5234Z" fill="#E2E1E1"/>
<path d="M374.533 41.375H315.751V74.8615H374.533V41.375Z" stroke="#C9E8FB" stroke-width="2" stroke-miterlimit="10"/>
<path d="M374.533 41.375L315.751 74.8615" stroke="#C9E8FB" stroke-width="2" stroke-miterlimit="10"/>
<path d="M315.751 41.375L374.533 74.8615" stroke="#C9E8FB" stroke-width="2" stroke-miterlimit="10"/>
<path d="M346.254 116.092C347.033 116.092 347.665 115.46 347.665 114.681C347.665 113.901 347.033 113.27 346.254 113.27C345.474 113.27 344.843 113.901 344.843 114.681C344.843 115.46 345.474 116.092 346.254 116.092Z" fill="#C0C0C0"/>
<path d="M75.0531 47.3008V49.2539H60.4633V47.3008H66.5375V45.5039H69.018V47.3008H75.0531ZM75.9516 56.8906V58.9023H72.182V63.3164H69.6625V58.9023H65.9516V63.3164H63.4711V58.9023H59.682V56.8906H75.9516ZM67.7875 49.9766C71.5961 49.9766 73.9008 51.0312 73.9203 53.0039C73.9008 54.957 71.5961 56.0508 67.7875 56.0508C63.9398 56.0508 61.6352 54.957 61.6547 53.0039C61.6352 51.0312 63.9398 49.9766 67.7875 49.9766ZM67.7875 51.832C65.4047 51.832 64.2328 52.1836 64.2328 53.0039C64.2328 53.7852 65.4047 54.1758 67.7875 54.1758C70.1312 54.1758 71.3227 53.7852 71.3227 53.0039C71.3227 52.1836 70.1312 51.832 67.7875 51.832ZM92.8367 59.1172V61.1484H76.5672V59.1172H92.8367ZM80.7859 46.6562V49.6055H88.5398V46.6562H91.0203V56.1484H78.2859V46.6562H80.7859ZM80.7859 54.1953H88.5398V51.5391H80.7859V54.1953ZM107.554 45.5234V48.9609H109.956V51.0117H107.554V54.4102H105.054V45.5234H107.554ZM107.554 55.1133V59.957H98.2375V61.1484H108.062V63.1016H95.7961V58.1602H105.073V57.0273H95.757V55.1133H107.554ZM98.3547 46.0508C101.089 46.0703 103.12 47.7109 103.12 50.0742C103.12 52.418 101.089 54.0977 98.3547 54.0977C95.6203 54.0977 93.5695 52.418 93.5695 50.0742C93.5695 47.7109 95.6203 46.0703 98.3547 46.0508ZM98.3547 48.082C96.9875 48.082 95.9914 48.8242 96.0109 50.0742C95.9914 51.3438 96.9875 52.125 98.3547 52.125C99.7219 52.125 100.698 51.3438 100.698 50.0742C100.698 48.8242 99.7219 48.082 98.3547 48.082ZM114.498 46.832C116.568 46.832 118.16 48.209 118.541 50.3477H119.712V45.7969H122.017V58.2188H119.712V52.3789H118.521C118.091 54.4199 116.519 55.7773 114.498 55.7773C112.134 55.7773 110.416 53.9219 110.416 51.3047C110.416 48.6289 112.134 46.832 114.498 46.832ZM114.498 48.9414C113.404 48.9414 112.642 49.8398 112.642 51.3047C112.642 52.7891 113.404 53.6289 114.498 53.6289C115.572 53.6289 116.373 52.7891 116.392 51.3047C116.373 49.8398 115.572 48.9414 114.498 48.9414ZM125.611 45.5234V58.7656H123.248V45.5234H125.611ZM126.06 60.9922V62.9844H113.56V57.0469H116.06V60.9922H126.06ZM142.477 45.5234V63.2969H139.957V45.5234H142.477ZM131.793 50.0156C131.793 52.0273 131.998 54.3809 133.121 56.207C134.205 54.4004 134.391 52.0664 134.41 50.0156V46.9297H136.793V50.0156C136.773 52.8281 137.145 55.9141 139.41 57.6523L137.887 59.4297C136.705 58.5312 135.982 57.1641 135.562 55.582C135.113 57.2129 134.361 58.6484 133.121 59.5664C131.881 58.6582 131.119 57.2422 130.68 55.6211C130.25 57.1348 129.566 58.4434 128.453 59.332L126.832 57.6523C129.117 55.875 129.469 52.8086 129.488 50.0156V46.9297H131.793V50.0156ZM154.821 55.6016V59.2148H158.044V55.6016H160.524V59.2148H164.587V61.2266H148.317V59.2148H152.36V55.6016H154.821ZM157.673 47.7891C157.673 50.2109 159.958 52.7891 164.001 53.375L163.005 55.4453C159.85 54.8984 157.507 53.2969 156.345 51.1289C155.163 53.2871 152.829 54.918 149.704 55.4453L148.708 53.375C152.712 52.75 154.997 50.1719 155.016 47.7891V46.5H157.673V47.7891ZM175.632 46.8711V48.8633H174.167V53.1602C174.9 53.1113 175.622 53.0332 176.316 52.9453L176.491 54.7812C172.878 55.4062 168.718 55.4844 165.769 55.4844L165.495 53.4727C166.091 53.4727 166.736 53.4727 167.409 53.4531V48.8633H165.964V46.8711H175.632ZM180.085 45.543V56.2656H177.585V45.543H180.085ZM174.05 56.5977C177.859 56.5977 180.183 57.7891 180.202 59.918C180.183 62.0664 177.859 63.2969 174.05 63.2969C170.261 63.2969 167.937 62.0664 167.937 59.918C167.937 57.7891 170.261 56.5977 174.05 56.5977ZM174.05 58.4922C171.667 58.4922 170.417 58.9609 170.417 59.918C170.417 60.8945 171.667 61.4023 174.05 61.4023C176.433 61.4023 177.683 60.8945 177.702 59.918C177.683 58.9609 176.433 58.4922 174.05 58.4922ZM169.792 53.4141C170.437 53.3848 171.101 53.3652 171.765 53.3164V48.8633H169.792V53.4141ZM198.298 52.7891V54.8008H182.087V52.7891H188.923V51.6367H184.099V46.0312H196.248V51.6367H191.384V52.7891H198.298ZM186.541 47.9648V49.7227H193.767V47.9648H186.541ZM196.326 55.6797V60.2305H186.423V61.3047H196.795V63.1797H183.982V58.4727H193.865V57.5547H183.962V55.6797H196.326ZM156.081 69.5234V74.6211H158.483V76.6914H156.081V82.4727H153.581V69.5234H156.081ZM156.725 84.9922V86.9844H144.557V81.1055H147.038V84.9922H156.725ZM146.979 70.6758C149.694 70.6758 151.823 72.5508 151.823 75.1875C151.823 77.7852 149.694 79.6992 146.979 79.6992C144.245 79.6992 142.096 77.7852 142.096 75.1875C142.096 72.5508 144.245 70.6758 146.979 70.6758ZM146.979 72.8438C145.632 72.8242 144.538 73.7031 144.557 75.1875C144.538 76.6328 145.632 77.5312 146.979 77.5312C148.346 77.5312 149.382 76.6328 149.401 75.1875C149.382 73.7031 148.346 72.8242 146.979 72.8438ZM174.196 69.5234V87.2969H171.794V78.4102H170.134V86.4375H167.79V69.8164H170.134V76.3984H171.794V69.5234H174.196ZM162.087 71.4961V80.7734C163.513 80.7441 165.075 80.6172 166.794 80.2852L167.048 82.4336C164.665 82.8438 162.634 82.9609 160.798 82.9609H159.587V71.4961H162.087Z" fill="#3D3D3D"/>
<path d="M102.017 69.5234V87.3359H99.5363V69.5234H102.017ZM96.509 71.0078V77.8633H90.6496V81.125C93.3547 81.1152 95.6594 80.959 98.2668 80.5391L98.4816 82.5508C95.5519 83.0586 92.9152 83.1758 89.673 83.1758H88.0715V75.8906H93.9699V73.0195H88.0519V71.0078H96.509ZM118.414 75.1289V77.1211H105.972V70.3242H108.453V75.1289H118.414ZM120.211 79.1328V81.125H116.5V87.2969H113.98V81.125H110.25V87.2969H107.75V81.125H104V79.1328H120.211ZM135.865 69.5234V78.4102H133.385V75.0898H130.416C129.928 76.9551 128.131 78.1953 125.846 78.1953C123.131 78.1953 121.1 76.4961 121.119 74.0742C121.1 71.7109 123.131 70.0312 125.846 70.0312C128.131 70.0312 129.928 71.252 130.416 73.0781H133.385V69.5234H135.865ZM125.846 72.043C124.459 72.043 123.463 72.8242 123.482 74.0742C123.463 75.4023 124.459 76.1836 125.846 76.1836C127.193 76.1836 128.17 75.4023 128.17 74.0742C128.17 72.8242 127.193 72.043 125.846 72.043ZM135.865 79.1914V83.9961H126.549V85.1484H136.393V87.1016H124.049V82.1602H133.385V81.1055H124.029V79.1914H135.865Z" fill="#1865CD"/>
<path d="M98.4875 104.141C98.4719 106.375 100.081 108.828 102.097 109.781L101.394 110.75C99.8313 109.992 98.5109 108.336 97.8938 106.453C97.2531 108.5 95.8547 110.297 94.3 111.094L93.55 110.125C95.55 109.156 97.2688 106.516 97.2844 104.141V102.328H94.05V101.312H101.613V102.328H98.4875V104.141ZM104.534 99.875V105.5H106.863V106.547H104.534V113.766H103.316V99.875H104.534ZM111.418 103.828C111.418 106.031 112.496 108.422 114.339 109.516L113.636 110.469C112.3 109.656 111.339 108.172 110.855 106.484C110.339 108.328 109.308 109.914 107.918 110.766L107.136 109.844C109.058 108.719 110.23 106.25 110.23 103.875V101.188H111.418V103.828ZM119.199 99.875V113.766H118.011V99.875H119.199ZM116.324 100.172V113.062H115.168V105.906H112.808V104.859H115.168V100.172H116.324ZM132.254 99.875V113.766H131.019V99.875H132.254ZM129.519 102.141V103.141H121.113V102.141H124.691V100.016H125.926V102.141H129.519ZM125.348 104.281C127.348 104.281 128.785 105.594 128.785 107.469C128.785 109.344 127.348 110.656 125.348 110.656C123.332 110.656 121.879 109.344 121.894 107.469C121.879 105.594 123.332 104.281 125.348 104.281ZM125.348 105.312C124.019 105.312 123.051 106.219 123.051 107.469C123.051 108.734 124.019 109.625 125.348 109.609C126.66 109.625 127.613 108.734 127.613 107.469C127.613 106.219 126.66 105.312 125.348 105.312ZM150.723 110.969V111.984H138.004V110.969H143.723V107.969H139.504V100.859H140.739V103.375H147.958V100.859H149.161V107.969H144.926V110.969H150.723ZM140.739 106.969H147.958V104.375H140.739V106.969ZM162.997 99.875V113.766H161.763V99.875H162.997ZM158.888 101.391C158.872 105.391 157.013 108.922 152.356 111.156L151.684 110.156C155.442 108.375 157.356 105.711 157.638 102.391H152.325V101.391H158.888Z" fill="#6D6D6D"/>
</svg>
