<svg width="77" height="44" viewBox="0 0 77 44" fill="none" xmlns="http://www.w3.org/2000/svg">
<path d="M17.2893 16.2225C17.1557 16.2225 15.9908 16.4451 15.9908 17.3938V18.5298C15.9908 18.9522 15.6949 19.8905 14.9018 20.1027C14.8032 20.1277 14.7251 20.1027 14.7251 19.9695V16.8466C14.7251 16.4118 15.0005 16.2974 15.0888 16.2974H15.321C15.3867 16.2974 15.4422 16.2641 15.4422 16.2079C15.4422 16.1518 15.4422 16.0977 15.3436 16.0977H13.1411C13.0424 16.0977 13.0424 16.1518 13.0424 16.2079C13.0424 16.2641 13.0979 16.2974 13.1637 16.2974H13.3958C13.4842 16.2974 13.7595 16.4118 13.7595 16.8466V19.9695C13.7595 20.1027 13.6814 20.1277 13.5828 20.1027C12.7918 19.8905 12.4446 18.9522 12.4446 18.5298V17.3938C12.4446 16.4451 11.2776 16.2225 11.1461 16.2225C11.0146 16.2225 10.9468 16.2787 10.9468 16.3681C10.9468 16.4576 10.9468 16.4618 11.0454 16.468C11.2221 16.4805 11.3536 16.6802 11.3536 16.959V18.2177C11.3536 19.9238 13.3712 20.3836 13.5129 20.4397C13.6588 20.4959 13.6794 20.5292 13.6794 20.652V22.9489C13.6794 23.3837 13.7163 23.4191 13.6301 23.4191C13.5438 23.4191 13.5253 23.4295 13.4595 23.4295C13.3938 23.4295 13.3383 23.4628 13.3383 23.5189C13.3383 23.5751 13.3383 23.6313 13.4369 23.6313H15.4196C15.5182 23.6313 15.5182 23.5751 15.5182 23.5189C15.5182 23.4628 15.4627 23.4295 15.397 23.4295H15.1648C15.0765 23.4295 14.8012 23.3858 14.8012 22.9489V20.652C14.8012 20.5292 14.8217 20.4938 14.9655 20.4397C15.1094 20.3856 17.0797 19.9238 17.0797 18.2177V16.959C17.0797 16.6802 17.2132 16.4805 17.3879 16.468C17.4865 16.4618 17.4865 16.4576 17.4865 16.3681C17.4865 16.2787 17.4208 16.2225 17.2872 16.2225" fill="#003478"/>
<path d="M17.2893 16.2225C17.1557 16.2225 15.9908 16.4451 15.9908 17.3938V18.5298C15.9908 18.9522 15.6949 19.8905 14.9018 20.1027C14.8032 20.1277 14.7251 20.1027 14.7251 19.9695V16.8466C14.7251 16.4118 15.0005 16.2974 15.0888 16.2974H15.321C15.3867 16.2974 15.4422 16.2641 15.4422 16.2079C15.4422 16.1518 15.4422 16.0977 15.3436 16.0977H13.1411C13.0424 16.0977 13.0424 16.1518 13.0424 16.2079C13.0424 16.2641 13.0979 16.2974 13.1637 16.2974H13.3958C13.4842 16.2974 13.7595 16.4118 13.7595 16.8466V19.9695C13.7595 20.1027 13.6814 20.1277 13.5828 20.1027C12.7918 19.8905 12.4446 18.9522 12.4446 18.5298V17.3938C12.4446 16.4451 11.2776 16.2225 11.1461 16.2225C11.0146 16.2225 10.9468 16.2787 10.9468 16.3681C10.9468 16.4576 10.9468 16.4618 11.0454 16.468C11.2221 16.4805 11.3536 16.6802 11.3536 16.959V18.2177C11.3536 19.9238 13.3712 20.3836 13.5129 20.4397C13.6588 20.4959 13.6794 20.5292 13.6794 20.652V22.9489C13.6794 23.3837 13.7163 23.4191 13.6301 23.4191C13.5438 23.4191 13.5253 23.4295 13.4595 23.4295C13.3938 23.4295 13.3383 23.4628 13.3383 23.5189C13.3383 23.5751 13.3383 23.6313 13.4369 23.6313H15.4196C15.5182 23.6313 15.5182 23.5751 15.5182 23.5189C15.5182 23.4628 15.4627 23.4295 15.397 23.4295H15.1648C15.0765 23.4295 14.8012 23.3858 14.8012 22.9489V20.652C14.8012 20.5292 14.8217 20.4938 14.9655 20.4397C15.1094 20.3856 17.0797 19.9238 17.0797 18.2177V16.959C17.0797 16.6802 17.2132 16.4805 17.3879 16.468C17.4865 16.4618 17.4865 16.4576 17.4865 16.3681C17.4865 16.2787 17.4208 16.2225 17.2872 16.2225H17.2893Z" stroke="white" stroke-width="2.266"/>
<path d="M12.2824 14.4767C11.0846 14.6536 8.24517 16.0309 8.24517 17.687C8.24517 19.3431 10.2771 20.0588 10.2771 20.0588C7.98835 19.9901 6.97339 18.4901 6.97339 17.531C6.97339 14.6889 11.6599 14.4684 11.8571 14.4455C11.8571 14.4455 12.1448 14.4247 12.2824 14.4767Z" fill="#003478"/>
<path d="M12.2824 14.4767C11.0846 14.6536 8.24517 16.0309 8.24517 17.687C8.24517 19.3431 10.2771 20.0588 10.2771 20.0588C7.98835 19.9901 6.97339 18.4901 6.97339 17.531C6.97339 14.6889 11.6599 14.4684 11.8571 14.4455C11.8571 14.4455 12.1448 14.4247 12.2824 14.4767Z" stroke="white" stroke-width="2.266"/>
<path d="M12.4077 14.4672C12.4077 14.4672 22.2943 14.2654 18.7975 22.0133C18.7975 22.0133 22.1074 19.9453 20.1884 16.7017C19.2864 15.1746 16.0895 13.4956 12.4077 14.4672Z" fill="#003478"/>
<path d="M12.4077 14.4672C12.4077 14.4672 22.2943 14.2654 18.7975 22.0133C18.7975 22.0133 22.1074 19.9453 20.1884 16.7017C19.2864 15.1746 16.0895 13.4956 12.4077 14.4672Z" stroke="white" stroke-width="2.266"/>
<path d="M10.3284 20.0703C10.3284 20.0703 12.046 20.5155 13.3753 22.3027C13.8479 22.9394 16.2209 23.8465 18.7069 22.0593C18.7069 22.0593 17.6838 24.2023 15.1772 24.2023C14.4149 24.2023 12.8719 23.8902 11.9515 21.9074C11.5714 21.0856 10.8728 20.2908 10.3284 20.0703Z" fill="#003478"/>
<path d="M10.3284 20.0703C10.3284 20.0703 12.046 20.5155 13.3753 22.3027C13.8479 22.9394 16.2209 23.8465 18.7069 22.0593C18.7069 22.0593 17.6838 24.2023 15.1772 24.2023C14.4149 24.2023 12.8719 23.8902 11.9515 21.9074C11.5714 21.0856 10.8728 20.2908 10.3284 20.0703Z" stroke="white" stroke-width="2.266"/>
<path d="M12.2824 14.4767C11.0846 14.6536 8.24517 16.0309 8.24517 17.687C8.24517 19.3431 10.2771 20.0588 10.2771 20.0588C7.98835 19.9901 6.97339 18.4901 6.97339 17.531C6.97339 14.6889 11.6599 14.4684 11.8571 14.4455C11.8571 14.4455 12.1448 14.4247 12.2824 14.4767Z" fill="#2D4F8D"/>
<path d="M12.4077 14.4672C12.4077 14.4672 22.2943 14.2654 18.7975 22.0133C18.7975 22.0133 22.1074 19.9453 20.1884 16.7017C19.2864 15.1746 16.0895 13.4956 12.4077 14.4672Z" fill="#6172A6"/>
<path d="M17.2893 16.2225C17.1557 16.2225 15.9908 16.4451 15.9908 17.3938V18.5298C15.9908 18.9522 15.6949 19.8905 14.9018 20.1027C14.8032 20.1277 14.7251 20.1027 14.7251 19.9695V16.8466C14.7251 16.4118 15.0005 16.2974 15.0888 16.2974H15.321C15.3867 16.2974 15.4422 16.2641 15.4422 16.2079C15.4422 16.1518 15.4422 16.0977 15.3436 16.0977H13.1411C13.0424 16.0977 13.0424 16.1518 13.0424 16.2079C13.0424 16.2641 13.0979 16.2974 13.1637 16.2974H13.3958C13.4842 16.2974 13.7595 16.4118 13.7595 16.8466V19.9695C13.7595 20.1027 13.6814 20.1277 13.5828 20.1027C12.7918 19.8905 12.4446 18.9522 12.4446 18.5298V17.3938C12.4446 16.4451 11.2776 16.2225 11.1461 16.2225C11.0146 16.2225 10.9468 16.2787 10.9468 16.3681C10.9468 16.4576 10.9468 16.4618 11.0454 16.468C11.2221 16.4805 11.3536 16.6802 11.3536 16.959V18.2177C11.3536 19.9238 13.3712 20.3836 13.5129 20.4397C13.6588 20.4959 13.6794 20.5292 13.6794 20.652V22.9489C13.6794 23.3837 13.7163 23.4191 13.6301 23.4191C13.5438 23.4191 13.5253 23.4295 13.4595 23.4295C13.3938 23.4295 13.3383 23.4628 13.3383 23.5189C13.3383 23.5751 13.3383 23.6313 13.4369 23.6313H15.4196C15.5182 23.6313 15.5182 23.5751 15.5182 23.5189C15.5182 23.4628 15.4627 23.4295 15.397 23.4295H15.1648C15.0765 23.4295 14.8012 23.3858 14.8012 22.9489V20.652C14.8012 20.5292 14.8217 20.4938 14.9655 20.4397C15.1094 20.3856 17.0797 19.9238 17.0797 18.2177V16.959C17.0797 16.6802 17.2132 16.4805 17.3879 16.468C17.4865 16.4618 17.4865 16.4576 17.4865 16.3681C17.4865 16.2787 17.4208 16.2225 17.2872 16.2225" fill="#003478"/>
<path d="M10.3284 20.0703C10.3284 20.0703 12.046 20.5155 13.3753 22.3027C13.8479 22.9394 16.2209 23.8465 18.7069 22.0593C18.7069 22.0593 17.6838 24.2023 15.1772 24.2023C14.4149 24.2023 12.8719 23.8902 11.9515 21.9074C11.5714 21.0856 10.8728 20.2908 10.3284 20.0703Z" fill="#003478"/>
<path d="M40.8698 15.0664H39.6206V16.7204H35.6491V15.0664H34.3896V20.0888C34.3896 20.2782 34.5417 20.4321 34.7287 20.4321H40.5267C40.7136 20.4321 40.8657 20.2782 40.8657 20.0888V15.0664H40.8698ZM39.6227 19.2941H35.6512V17.8398H39.6227V19.2941Z" fill="#003478"/>
<path d="M41.8333 22.332H33.428V23.5055H41.8333V22.332Z" fill="#003478"/>
<path d="M48.0669 16.8246C48.0669 15.5117 47.0191 14.5547 45.5973 14.5547C44.1755 14.5547 43.1277 15.5097 43.1277 16.8246C43.1277 18.1395 44.1858 19.1048 45.5973 19.1048C47.0088 19.1048 48.0669 18.1603 48.0669 16.8246ZM44.4077 16.8246C44.4077 16.1297 44.9008 15.7052 45.5973 15.7052C46.2938 15.7052 46.7869 16.1297 46.7869 16.8246C46.7869 17.5195 46.2938 17.9543 45.5973 17.9543C44.9008 17.9543 44.4077 17.5299 44.4077 16.8246Z" fill="#003478"/>
<path d="M50.9803 16.1959V14.2734H49.7229V19.1044H50.9803V17.3672H52.2007V16.1959H50.9803Z" fill="#003478"/>
<path d="M45.022 22.3961H50.9802V19.6602H43.9146V20.7462H49.8893V21.3433H43.9228V23.7484C43.9228 23.9377 44.0748 24.0917 44.2618 24.0917H50.9946V23.0015H45.0199V22.3961H45.022Z" fill="#003478"/>
<path d="M68.4914 16.2395C68.4914 17.8457 68.662 19.5726 69.8516 20.5608L69.0462 21.5928C68.4421 21.083 68.0682 20.3444 67.8463 19.454C67.6532 20.255 67.3306 20.9603 66.8272 21.4783C66.6957 21.6136 66.4759 21.6136 66.3444 21.4783C65.8431 20.9582 65.5267 20.2591 65.3253 19.4852C65.1034 20.332 64.75 21.0497 64.1871 21.5366L63.3303 20.5587C64.5096 19.5705 64.6802 17.8332 64.6802 16.2375V14.5564H65.9294V16.2395C65.9294 17.3901 66.0198 18.705 66.5848 19.7244C67.1395 18.7154 67.2299 17.4109 67.2299 16.2395V14.5564H68.4894V16.2395H68.4914ZM71.4233 14.2734V24.0998H70.1351V14.2734H71.4233Z" fill="#003478"/>
<path d="M9.18192 29.0728H8.83675V27.7163H7.31636V29.0728H6.97119V26.0977H7.31636V27.4022H8.83675V26.0977H9.18192V29.0728Z" fill="#003478" stroke="#003478" stroke-width="0.1375" stroke-miterlimit="10"/>
<path d="M11.6043 29.0734H11.2674V28.7364H11.2592C11.1195 28.9944 10.9037 29.1234 10.612 29.1234C10.1127 29.1234 9.86206 28.8217 9.86206 28.2183V26.9492H10.197V28.1663C10.197 28.6136 10.3654 28.8383 10.7044 28.8383C10.8688 28.8383 11.0024 28.778 11.1092 28.6553C11.214 28.5325 11.2674 28.3723 11.2674 28.1747V26.9513H11.6043V29.0755V29.0734Z" fill="#003478" stroke="#003478" stroke-width="0.1375" stroke-miterlimit="10"/>
<path d="M15.2636 29.0723H14.9266V27.8531C14.9266 27.618 14.8917 27.4474 14.8198 27.3434C14.7479 27.2373 14.6266 27.1853 14.4582 27.1853C14.3143 27.1853 14.1931 27.2519 14.0925 27.385C13.9918 27.5182 13.9425 27.6763 13.9425 27.8615V29.0744H13.6055V27.8136C13.6055 27.3954 13.4473 27.1874 13.1289 27.1874C12.9809 27.1874 12.8597 27.2498 12.7652 27.3746C12.6686 27.4995 12.6214 27.6638 12.6214 27.8636V29.0765H12.2844V26.9523H12.6214V27.2893H12.6296C12.7775 27.0313 12.9953 26.9023 13.2809 26.9023C13.4247 26.9023 13.55 26.944 13.6569 27.023C13.7637 27.1042 13.8356 27.2103 13.8767 27.3413C14.0329 27.048 14.265 26.9023 14.5732 26.9023C15.0355 26.9023 15.2656 27.1915 15.2656 27.7678V29.0765L15.2636 29.0723Z" fill="#003478" stroke="#003478" stroke-width="0.1375" stroke-miterlimit="10"/>
<path d="M17.4002 29.0726H17.0633V28.7397H17.0551C16.9092 28.9935 16.6935 29.1225 16.4099 29.1225C16.2004 29.1225 16.038 29.0664 15.9189 28.954C15.7997 28.8417 15.7422 28.6939 15.7422 28.5088C15.7422 28.1114 15.9723 27.8805 16.4346 27.816L17.0633 27.7265C17.0633 27.3645 16.9195 27.1856 16.6298 27.1856C16.3771 27.1856 16.149 27.2729 15.9456 27.4477V27.0982C16.151 26.965 16.3894 26.8984 16.6585 26.8984C17.1516 26.8984 17.3982 27.1627 17.3982 27.6911V29.0726H17.4002ZM17.0633 27.999L16.5579 28.0698C16.4017 28.0927 16.2846 28.1322 16.2045 28.1863C16.1243 28.2425 16.0853 28.3423 16.0853 28.4838C16.0853 28.5878 16.1223 28.6731 16.1942 28.7376C16.2682 28.8042 16.3647 28.8354 16.4859 28.8354C16.6524 28.8354 16.79 28.7772 16.8989 28.6586C17.0078 28.54 17.0612 28.3902 17.0612 28.2092V27.997L17.0633 27.999Z" fill="#003478" stroke="#003478" stroke-width="0.1375" stroke-miterlimit="10"/>
<path d="M19.7752 29.0726H19.4383V27.8596C19.4383 27.4082 19.276 27.1835 18.9514 27.1835C18.7829 27.1835 18.6452 27.248 18.5343 27.3749C18.4254 27.5018 18.3699 27.6641 18.3699 27.8596V29.0726H18.033V26.9484H18.3699V27.3021H18.3781C18.5363 27.0337 18.7664 26.8984 19.0664 26.8984C19.2965 26.8984 19.4712 26.9733 19.5924 27.1231C19.7136 27.2729 19.7752 27.4893 19.7752 27.7743V29.0726Z" fill="#003478" stroke="#003478" stroke-width="0.1375" stroke-miterlimit="10"/>
<path d="M21.193 29.0728V26.0977H22.0292C22.284 26.0977 22.4853 26.1601 22.6332 26.287C22.7812 26.4139 22.8572 26.5762 22.8572 26.778C22.8572 26.9465 22.812 27.0942 22.7216 27.217C22.6312 27.3418 22.5079 27.4292 22.3476 27.4833V27.4916C22.5449 27.5145 22.7051 27.5915 22.8223 27.7184C22.9394 27.8453 23.001 28.0138 23.001 28.2177C23.001 28.4715 22.9106 28.6775 22.7298 28.8356C22.549 28.9938 22.323 29.0728 22.0477 29.0728H21.1909H21.193ZM21.5361 26.4118V27.373H21.8895C22.0785 27.373 22.2264 27.3273 22.3333 27.2357C22.4422 27.1442 22.4956 27.0131 22.4956 26.8466C22.4956 26.5575 22.3086 26.4139 21.9326 26.4139H21.5361V26.4118ZM21.5361 27.6872V28.7587H22.0025C22.2038 28.7587 22.362 28.7108 22.473 28.613C22.5839 28.5152 22.6394 28.3842 22.6394 28.2136C22.6394 27.862 22.4031 27.6872 21.9306 27.6872H21.534H21.5361Z" fill="#003478" stroke="#003478" stroke-width="0.1375" stroke-miterlimit="10"/>
<path d="M24.6488 27.2909C24.5892 27.2451 24.505 27.2222 24.394 27.2222C24.2502 27.2222 24.131 27.2909 24.0345 27.4282C23.9379 27.5655 23.8907 27.7528 23.8907 27.9879V29.0718H23.5537V26.9476H23.8907V27.3845H23.8989C23.9461 27.2347 24.0201 27.1182 24.1187 27.035C24.2173 26.9518 24.3262 26.9102 24.4495 26.9102C24.5379 26.9102 24.6036 26.9206 24.6509 26.9393V27.293L24.6488 27.2909Z" fill="#003478" stroke="#003478" stroke-width="0.1375" stroke-miterlimit="10"/>
<path d="M26.5142 29.0726H26.1773V28.7397H26.1691C26.0232 28.9935 25.8075 29.1225 25.5239 29.1225C25.3144 29.1225 25.1521 29.0664 25.0329 28.954C24.9137 28.8417 24.8562 28.6939 24.8562 28.5088C24.8562 28.1114 25.0863 27.8805 25.5486 27.816L26.1773 27.7265C26.1773 27.3645 26.0335 27.1856 25.7438 27.1856C25.4911 27.1856 25.263 27.2729 25.0596 27.4477V27.0982C25.2651 26.965 25.5034 26.8984 25.7725 26.8984C26.2656 26.8984 26.5122 27.1627 26.5122 27.6911V29.0726H26.5142ZM26.1793 27.999L25.6739 28.0698C25.5178 28.0927 25.4007 28.1322 25.3205 28.1863C25.2404 28.2425 25.2014 28.3423 25.2014 28.4838C25.2014 28.5878 25.2384 28.6731 25.3103 28.7376C25.3842 28.8042 25.4808 28.8354 25.602 28.8354C25.7684 28.8354 25.9061 28.7772 26.015 28.6586C26.1239 28.54 26.1773 28.3902 26.1773 28.2092V27.997L26.1793 27.999Z" fill="#003478" stroke="#003478" stroke-width="0.1375" stroke-miterlimit="10"/>
<path d="M27.3198 26.4059C27.2603 26.4059 27.2089 26.3851 27.1657 26.3435C27.1226 26.3019 27.1021 26.2499 27.1021 26.1854C27.1021 26.1209 27.1226 26.0689 27.1657 26.0273C27.2089 25.9856 27.2582 25.9648 27.3198 25.9648C27.3815 25.9648 27.4328 25.9856 27.476 26.0273C27.5191 26.0689 27.5397 26.123 27.5397 26.1854C27.5397 26.2478 27.5191 26.2977 27.476 26.3414C27.4328 26.3851 27.3815 26.4059 27.3198 26.4059ZM27.4842 29.0711H27.1473V26.9469H27.4842V29.0711Z" fill="#003478" stroke="#003478" stroke-width="0.1375" stroke-miterlimit="10"/>
<path d="M29.9063 29.0726H29.5694V27.8596C29.5694 27.4082 29.4071 27.1835 29.0825 27.1835C28.914 27.1835 28.7763 27.248 28.6654 27.3749C28.5565 27.5018 28.501 27.6641 28.501 27.8596V29.0726H28.1641V26.9484H28.501V27.3021H28.5092C28.6674 27.0337 28.8975 26.8984 29.1975 26.8984C29.4276 26.8984 29.6023 26.9733 29.7235 27.1231C29.8447 27.2729 29.9063 27.4893 29.9063 27.7743V29.0726Z" fill="#003478" stroke="#003478" stroke-width="0.1375" stroke-miterlimit="10"/>
<path d="M33.4302 29.0707H33.0213L32.5303 28.2364C32.4851 28.1595 32.4419 28.0929 32.3988 28.0388C32.3556 27.9847 32.3125 27.9389 32.2693 27.9056C32.2241 27.8703 32.1769 27.8453 32.1255 27.8307C32.0741 27.8141 32.0166 27.8079 31.9529 27.8079H31.6694V29.0728H31.3242V26.0977H32.2015C32.3289 26.0977 32.4481 26.1143 32.557 26.1455C32.6659 26.1788 32.7604 26.2266 32.8405 26.2932C32.9206 26.3598 32.9823 26.443 33.0275 26.5408C33.0727 26.6407 33.0953 26.7551 33.0953 26.8883C33.0953 26.9923 33.0809 27.088 33.0501 27.1733C33.0192 27.2586 32.9761 27.3377 32.9186 27.4042C32.861 27.4729 32.7932 27.5291 32.7131 27.5769C32.633 27.6248 32.5426 27.6622 32.444 27.6872V27.6955C32.4933 27.7184 32.5364 27.7434 32.5713 27.7704C32.6083 27.7995 32.6412 27.8328 32.6741 27.8703C32.7069 27.9098 32.7398 27.9535 32.7706 28.0013C32.8035 28.0513 32.8384 28.1075 32.8775 28.172L33.4281 29.0666L33.4302 29.0707ZM31.6673 26.4097V27.4895H32.1337C32.22 27.4895 32.3001 27.4771 32.3721 27.45C32.446 27.423 32.5077 27.3855 32.5611 27.3377C32.6145 27.2877 32.6556 27.2295 32.6864 27.1566C32.7172 27.0859 32.7316 27.0048 32.7316 26.9174C32.7316 26.7593 32.6802 26.6344 32.5796 26.545C32.4768 26.4555 32.331 26.4118 32.1378 26.4118H31.6673V26.4097Z" fill="#003478" stroke="#003478" stroke-width="0.1375" stroke-miterlimit="10"/>
<path d="M35.4764 28.0947H33.995C34.0012 28.3319 34.0628 28.515 34.1841 28.6419C34.3032 28.7709 34.4696 28.8354 34.6792 28.8354C34.9155 28.8354 35.1333 28.7564 35.3305 28.5982V28.9186C35.1456 29.0539 34.9032 29.1225 34.5991 29.1225C34.295 29.1225 34.069 29.0268 33.9005 28.8333C33.732 28.6398 33.6458 28.3694 33.6458 28.0198C33.6458 27.689 33.7382 27.4186 33.9231 27.2105C34.108 27.0025 34.3381 26.8984 34.6135 26.8984C34.8888 26.8984 35.1004 26.9879 35.2504 27.1689C35.4004 27.3478 35.4764 27.5996 35.4764 27.9179V28.0968V28.0947ZM35.1312 27.8076C35.1312 27.6121 35.084 27.4581 34.9915 27.3499C34.899 27.2396 34.7717 27.1856 34.6073 27.1856C34.4429 27.1856 34.3135 27.2438 34.2046 27.3582C34.0937 27.4727 34.0258 27.6225 33.9991 27.8076H35.1333H35.1312Z" fill="#003478" stroke="#003478" stroke-width="0.1375" stroke-miterlimit="10"/>
<path d="M35.8564 28.9954V28.6313C36.0393 28.7686 36.2407 28.8372 36.4605 28.8372C36.7564 28.8372 36.9022 28.7374 36.9022 28.5376C36.9022 28.4815 36.8899 28.4336 36.8652 28.3941C36.8406 28.3546 36.8057 28.3192 36.7625 28.2901C36.7194 28.2589 36.668 28.2318 36.6105 28.2089C36.5529 28.184 36.4893 28.159 36.4235 28.134C36.3311 28.0966 36.2489 28.0591 36.179 28.0217C36.1092 27.9842 36.0496 27.9405 36.0023 27.8927C35.9551 27.8448 35.9201 27.7907 35.8955 27.7304C35.8708 27.6701 35.8606 27.5993 35.8606 27.5161C35.8606 27.4162 35.8832 27.3289 35.9284 27.2519C35.9736 27.1749 36.0331 27.1104 36.1092 27.0584C36.1852 27.0064 36.2694 26.9668 36.366 26.9419C36.4625 26.9148 36.5612 26.9023 36.6639 26.9023C36.8447 26.9023 37.0091 26.9336 37.1508 26.998V27.3434C36.9967 27.2415 36.818 27.1895 36.6187 27.1895C36.555 27.1895 36.4995 27.1957 36.4482 27.2103C36.3968 27.2248 36.3537 27.2456 36.3187 27.2706C36.2817 27.2976 36.255 27.3289 36.2345 27.3642C36.2139 27.4017 36.2057 27.4412 36.2057 27.4849C36.2057 27.5411 36.216 27.5868 36.2345 27.6243C36.255 27.6617 36.2838 27.695 36.3208 27.7242C36.3598 27.7533 36.405 27.7803 36.4605 27.8032C36.516 27.8261 36.5776 27.8531 36.6475 27.8802C36.7399 27.9156 36.8242 27.953 36.8981 27.9905C36.9721 28.0279 37.0337 28.0716 37.0871 28.1195C37.1385 28.1673 37.1796 28.2214 37.2063 28.2838C37.2351 28.3462 37.2474 28.4191 37.2474 28.5064C37.2474 28.6125 37.2248 28.702 37.1796 28.7811C37.1344 28.858 37.0728 28.9225 36.9967 28.9746C36.9207 29.0266 36.8324 29.064 36.7317 29.089C36.631 29.114 36.5283 29.1264 36.4173 29.1264C36.2016 29.1264 36.0146 29.0848 35.8564 28.9995V28.9954Z" fill="#003478" stroke="#003478" stroke-width="0.1375" stroke-miterlimit="10"/>
<path d="M39.452 28.0947H37.9706C37.9768 28.3319 38.0384 28.515 38.1596 28.6419C38.2788 28.7709 38.4452 28.8354 38.6548 28.8354C38.8911 28.8354 39.1089 28.7564 39.3061 28.5982V28.9186C39.1212 29.0539 38.8787 29.1225 38.5747 29.1225C38.2706 29.1225 38.0446 29.0268 37.8761 28.8333C37.7076 28.6398 37.6213 28.3694 37.6213 28.0198C37.6213 27.689 37.7138 27.4186 37.8987 27.2105C38.0836 27.0025 38.3137 26.8984 38.589 26.8984C38.8644 26.8984 39.076 26.9879 39.226 27.1689C39.3759 27.3478 39.452 27.5996 39.452 27.9179V28.0968V28.0947ZM39.1068 27.8076C39.1068 27.6121 39.0595 27.4581 38.9671 27.3499C38.8746 27.2396 38.7472 27.1856 38.5829 27.1856C38.4185 27.1856 38.2891 27.2438 38.1802 27.3582C38.0692 27.4727 38.0014 27.6225 37.9747 27.8076H39.1089H39.1068Z" fill="#003478" stroke="#003478" stroke-width="0.1375" stroke-miterlimit="10"/>
<path d="M43.1093 27.2909C43.0497 27.2451 42.9654 27.2222 42.8545 27.2222C42.7107 27.2222 42.5915 27.2909 42.4949 27.4282C42.3984 27.5655 42.3511 27.7528 42.3511 27.9879V29.0718H42.0142V26.9476H42.3511V27.3845H42.3593C42.4066 27.2347 42.4805 27.1182 42.5792 27.035C42.6778 26.9518 42.7867 26.9102 42.91 26.9102C42.9983 26.9102 43.064 26.9206 43.1113 26.9393V27.293L43.1093 27.2909Z" fill="#003478" stroke="#003478" stroke-width="0.1375" stroke-miterlimit="10"/>
<path d="M44.6995 28.9748C44.5372 29.0726 44.3462 29.1225 44.1263 29.1225C43.8263 29.1225 43.586 29.0247 43.401 28.8271C43.2182 28.6294 43.1257 28.3735 43.1257 28.0594C43.1257 27.7098 43.2244 27.429 43.4236 27.2168C43.6209 27.0045 43.8859 26.8984 44.2167 26.8984C44.4016 26.8984 44.5639 26.9338 44.7036 27.0025V27.352C44.5475 27.2417 44.3811 27.1856 44.2044 27.1856C43.9907 27.1856 43.814 27.2625 43.6764 27.4186C43.5387 27.5746 43.4709 27.7785 43.4709 28.0323C43.4709 28.2862 43.5346 28.4776 43.664 28.6211C43.7935 28.7647 43.9661 28.8375 44.1838 28.8375C44.3667 28.8375 44.5393 28.7751 44.6995 28.6523V28.9769V28.9748Z" fill="#003478" stroke="#003478" stroke-width="0.1375" stroke-miterlimit="10"/>
<path d="M46.9492 29.0716H46.6122V27.8482C46.6122 27.405 46.4499 27.1845 46.1253 27.1845C45.9609 27.1845 45.8233 27.249 45.7103 27.3759C45.5993 27.5028 45.5418 27.6672 45.5418 27.869V29.0716H45.2048V25.9258H45.5418V27.2989H45.55C45.7103 27.0305 45.9404 26.8953 46.2383 26.8953C46.7108 26.8953 46.9471 27.1845 46.9471 27.7608V29.0695L46.9492 29.0716Z" fill="#003478" stroke="#003478" stroke-width="0.1375" stroke-miterlimit="10"/>
<path d="M50.9411 29.1177C50.8631 29.1177 50.7953 29.1073 50.7357 29.0865C50.6761 29.0657 50.6206 29.0345 50.5713 28.995C50.52 28.9555 50.4727 28.9076 50.4254 28.8514C50.3782 28.7953 50.3289 28.7308 50.2775 28.6579C50.222 28.7183 50.1604 28.7745 50.0885 28.8306C50.0166 28.8868 49.9365 28.9347 49.8502 28.9784C49.7618 29.022 49.6673 29.0553 49.5625 29.0803C49.4577 29.1053 49.3468 29.1198 49.2235 29.1198C49.0756 29.1198 48.94 29.1011 48.8188 29.0637C48.6955 29.0262 48.5907 28.9721 48.5024 28.8993C48.414 28.8265 48.3462 28.737 48.299 28.6309C48.2496 28.5248 48.2271 28.402 48.2271 28.2626C48.2271 28.0504 48.2866 27.8694 48.4058 27.7196C48.525 27.5698 48.6934 27.4471 48.9092 27.3514C48.8681 27.3202 48.827 27.2848 48.7859 27.2453C48.7448 27.2037 48.7078 27.1579 48.677 27.1059C48.6441 27.0539 48.6195 26.9977 48.5989 26.9332C48.5784 26.8708 48.5702 26.8021 48.5702 26.7272C48.5702 26.619 48.5907 26.5212 48.6277 26.4359C48.6667 26.3506 48.7201 26.2799 48.7879 26.2216C48.8558 26.1634 48.9359 26.1197 49.0304 26.0906C49.1228 26.0614 49.2235 26.0469 49.3324 26.0469C49.4413 26.0469 49.5358 26.0614 49.6242 26.0906C49.7125 26.1197 49.7885 26.1634 49.8522 26.2175C49.9159 26.2737 49.9652 26.3402 50.0001 26.4172C50.0351 26.4942 50.0536 26.5816 50.0536 26.6773C50.0536 26.8437 50.0063 26.981 49.9139 27.0913C49.8193 27.2016 49.6796 27.2952 49.4927 27.3722C49.5872 27.4096 49.6714 27.4554 49.7495 27.5095C49.8255 27.5636 49.8974 27.6239 49.9611 27.6905C50.0269 27.7571 50.0864 27.8278 50.1419 27.9048C50.1974 27.9818 50.2529 28.0588 50.3083 28.142C50.4193 27.9859 50.5015 27.8133 50.559 27.626C50.6145 27.4388 50.6432 27.2411 50.6432 27.0351C50.6432 26.9831 50.6412 26.9332 50.633 26.8874C50.6268 26.8416 50.6186 26.7959 50.6083 26.7501H50.935C50.9453 26.7959 50.9514 26.8396 50.9555 26.8791C50.9555 26.9207 50.9596 26.9686 50.9617 27.0247C50.9617 27.1516 50.9494 27.2765 50.9227 27.4055C50.8959 27.5324 50.861 27.6572 50.8179 27.7758C50.7747 27.8965 50.7234 28.0088 50.6658 28.117C50.6083 28.2252 50.5467 28.323 50.483 28.4145C50.5302 28.4811 50.5754 28.5394 50.6145 28.5872C50.6535 28.6371 50.6946 28.6767 50.7336 28.71C50.7747 28.7433 50.8158 28.7682 50.859 28.7828C50.9021 28.7994 50.9514 28.8057 51.0048 28.8057C51.0459 28.8057 51.087 28.7994 51.1302 28.789C51.1733 28.7786 51.2165 28.7641 51.2617 28.7474V29.0637C51.2124 29.0824 51.161 29.0969 51.1076 29.1073C51.0541 29.1177 51.0007 29.1219 50.9494 29.1219L50.9411 29.1177ZM49.2215 28.8223C49.3262 28.8223 49.4208 28.8119 49.5091 28.789C49.5975 28.7661 49.6776 28.7349 49.7515 28.6975C49.8255 28.66 49.8913 28.6143 49.9529 28.5643C50.0125 28.5144 50.068 28.4603 50.1173 28.4062C50.033 28.2751 49.957 28.1628 49.8871 28.0692C49.8173 27.9755 49.7454 27.8944 49.6735 27.8278C49.6016 27.7592 49.5255 27.7009 49.4434 27.653C49.3612 27.6052 49.2687 27.5594 49.1619 27.5178C49.0756 27.5532 48.9975 27.5906 48.9236 27.6322C48.8516 27.6739 48.7879 27.7238 48.7366 27.782C48.6832 27.8403 48.6421 27.9069 48.6133 27.9818C48.5825 28.0588 48.5681 28.1461 48.5681 28.2502C48.5681 28.3438 48.5845 28.427 48.6195 28.4998C48.6544 28.5726 48.6996 28.6309 48.7592 28.6788C48.8188 28.7266 48.8886 28.762 48.9667 28.7869C49.0468 28.8119 49.1311 28.8223 49.2235 28.8223H49.2215ZM49.7351 26.7043C49.7351 26.6357 49.7228 26.5774 49.6981 26.5275C49.6735 26.4796 49.6406 26.4401 49.6016 26.4068C49.5625 26.3756 49.5194 26.3527 49.4721 26.3382C49.4249 26.3236 49.3776 26.3173 49.3304 26.3173C49.1968 26.3173 49.09 26.3548 49.0098 26.4276C48.9297 26.5004 48.8886 26.6003 48.8886 26.7272C48.8886 26.7834 48.8968 26.8375 48.9133 26.8874C48.9297 26.9373 48.9544 26.9831 48.9852 27.0268C49.016 27.0705 49.0509 27.1079 49.092 27.1412C49.1331 27.1745 49.1763 27.2037 49.2235 27.2265C49.3961 27.1662 49.5235 27.0955 49.6098 27.0143C49.694 26.9332 49.7372 26.8312 49.7372 26.7085L49.7351 26.7043Z" fill="#003478" stroke="#003478" stroke-width="0.1375" stroke-miterlimit="10"/>
<path d="M54.2573 28.9471C54.0395 29.0637 53.7703 29.1219 53.4457 29.1219C53.0266 29.1219 52.6937 28.9846 52.441 28.7141C52.1904 28.4416 52.063 28.0837 52.063 27.6406C52.063 27.1641 52.2048 26.7792 52.4862 26.4859C52.7698 26.1925 53.1273 26.0469 53.5628 26.0469C53.8423 26.0469 54.0724 26.0885 54.2552 26.1696V26.542C54.0457 26.4235 53.8135 26.3631 53.5587 26.3631C53.2218 26.3631 52.9485 26.4775 52.7369 26.7043C52.5273 26.9332 52.4225 27.2369 52.4225 27.6198C52.4225 28.0026 52.5212 28.271 52.7163 28.4853C52.9115 28.6996 53.1704 28.8077 53.4868 28.8077C53.7827 28.8077 54.0374 28.7412 54.2532 28.608V28.9471H54.2573Z" fill="#003478" stroke="#003478" stroke-width="0.1375" stroke-miterlimit="10"/>
<path d="M55.6892 29.1207C55.379 29.1207 55.1324 29.0208 54.9475 28.8232C54.7626 28.6255 54.6702 28.3613 54.6702 28.0326C54.6702 27.6747 54.7667 27.3959 54.9599 27.1962C55.153 26.9965 55.4119 26.8945 55.7406 26.8945C56.0693 26.8945 56.2974 26.9923 56.4741 27.1879C56.6487 27.3835 56.7371 27.6539 56.7371 27.9993C56.7371 28.3447 56.6426 28.6089 56.4535 28.8128C56.2645 29.0167 56.0097 29.1186 55.6913 29.1186L55.6892 29.1207ZM55.7139 27.1837C55.4982 27.1837 55.3276 27.2586 55.2023 27.4063C55.077 27.5541 55.0133 27.76 55.0133 28.0222C55.0133 28.2843 55.077 28.4716 55.2044 28.6172C55.3317 28.7629 55.5023 28.8357 55.7139 28.8357C55.9255 28.8357 56.0981 28.7649 56.2152 28.6214C56.3323 28.4799 56.3898 28.276 56.3898 28.0139C56.3898 27.7517 56.3323 27.5437 56.2152 27.4001C56.0981 27.2565 55.9317 27.1837 55.7139 27.1837Z" fill="#003478" stroke="#003478" stroke-width="0.1375" stroke-miterlimit="10"/>
<path d="M59.0138 29.0726H58.6768V27.8596C58.6768 27.4082 58.5145 27.1835 58.1899 27.1835C58.0214 27.1835 57.8837 27.248 57.7728 27.3749C57.6639 27.5018 57.6084 27.6641 57.6084 27.8596V29.0726H57.2715V26.9484H57.6084V27.3021H57.6167C57.7749 27.0337 58.005 26.8984 58.3049 26.8984C58.535 26.8984 58.7097 26.9733 58.8309 27.1231C58.9521 27.2729 59.0138 27.4893 59.0138 27.7743V29.0726Z" fill="#003478" stroke="#003478" stroke-width="0.1375" stroke-miterlimit="10"/>
<path d="M59.519 28.9954V28.6313C59.7019 28.7686 59.9032 28.8372 60.1231 28.8372C60.4189 28.8372 60.5648 28.7374 60.5648 28.5376C60.5648 28.4815 60.5525 28.4336 60.5278 28.3941C60.5032 28.3546 60.4683 28.3192 60.4251 28.2901C60.382 28.2589 60.3306 28.2318 60.2731 28.2089C60.2155 28.184 60.1519 28.159 60.0861 28.134C59.9937 28.0966 59.9115 28.0591 59.8416 28.0217C59.7718 27.9842 59.7122 27.9405 59.6649 27.8927C59.6177 27.8448 59.5827 27.7907 59.5581 27.7304C59.5334 27.6701 59.5231 27.5993 59.5231 27.5161C59.5231 27.4162 59.5458 27.3289 59.591 27.2519C59.6362 27.1749 59.6957 27.1104 59.7718 27.0584C59.8478 27.0064 59.932 26.9668 60.0286 26.9419C60.1251 26.9148 60.2238 26.9023 60.3265 26.9023C60.5073 26.9023 60.6717 26.9336 60.8134 26.998V27.3434C60.6593 27.2415 60.4806 27.1895 60.2813 27.1895C60.2176 27.1895 60.1621 27.1957 60.1108 27.2103C60.0594 27.2248 60.0163 27.2456 59.9813 27.2706C59.9443 27.2976 59.9176 27.3289 59.8971 27.3642C59.8765 27.4017 59.8683 27.4412 59.8683 27.4849C59.8683 27.5411 59.8786 27.5868 59.8971 27.6243C59.9176 27.6617 59.9464 27.695 59.9834 27.7242C60.0224 27.7533 60.0676 27.7803 60.1231 27.8032C60.1786 27.8261 60.2402 27.8531 60.3101 27.8802C60.4025 27.9156 60.4868 27.953 60.5607 27.9905C60.6347 28.0279 60.6963 28.0716 60.7497 28.1195C60.8011 28.1673 60.8422 28.2214 60.8689 28.2838C60.8977 28.3462 60.91 28.4191 60.91 28.5064C60.91 28.6125 60.8874 28.702 60.8422 28.7811C60.797 28.858 60.7354 28.9225 60.6593 28.9746C60.5833 29.0266 60.495 29.064 60.3943 29.089C60.2936 29.114 60.1909 29.1264 60.0799 29.1264C59.8642 29.1264 59.6772 29.0848 59.519 28.9995V28.9954Z" fill="#003478" stroke="#003478" stroke-width="0.1375" stroke-miterlimit="10"/>
<path d="M63.1229 29.0734H62.7859V28.7364H62.7777C62.638 28.9944 62.4223 29.1234 62.1305 29.1234C61.6313 29.1234 61.3806 28.8217 61.3806 28.2183V26.9492H61.7155V28.1663C61.7155 28.6136 61.884 28.8383 62.223 28.8383C62.3874 28.8383 62.5209 28.778 62.6277 28.6553C62.7325 28.5325 62.7859 28.3723 62.7859 28.1747V26.9513H63.1229V29.0755V29.0734Z" fill="#003478" stroke="#003478" stroke-width="0.1375" stroke-miterlimit="10"/>
<path d="M64.1377 29.0716H63.8008V25.9258H64.1377V29.0716Z" fill="#003478" stroke="#003478" stroke-width="0.1375" stroke-miterlimit="10"/>
<path d="M65.7918 29.0521C65.7116 29.0957 65.6089 29.1186 65.4774 29.1186C65.1096 29.1186 64.9268 28.9106 64.9268 28.4966V27.2399H64.5652V26.9486H64.9268V26.4306L65.2637 26.3203V26.9486H65.7918V27.2399H65.2637V28.4383C65.2637 28.5819 65.2884 28.6817 65.3357 28.7441C65.3829 28.8045 65.463 28.8357 65.574 28.8357C65.6582 28.8357 65.7322 28.8128 65.7938 28.7649V29.0562L65.7918 29.0521Z" fill="#003478" stroke="#003478" stroke-width="0.1375" stroke-miterlimit="10"/>
<path d="M66.4121 26.4059C66.3525 26.4059 66.3012 26.3851 66.258 26.3435C66.2149 26.3019 66.1943 26.2499 66.1943 26.1854C66.1943 26.1209 66.2149 26.0689 66.258 26.0273C66.3012 25.9856 66.3505 25.9648 66.4121 25.9648C66.4738 25.9648 66.5251 25.9856 66.5683 26.0273C66.6114 26.0689 66.632 26.123 66.632 26.1854C66.632 26.2478 66.6114 26.2977 66.5683 26.3414C66.5251 26.3851 66.4738 26.4059 66.4121 26.4059ZM66.5765 29.0711H66.2395V26.9469H66.5765V29.0711Z" fill="#003478" stroke="#003478" stroke-width="0.1375" stroke-miterlimit="10"/>
<path d="M68.9989 29.0726H68.6619V27.8596C68.6619 27.4082 68.4996 27.1835 68.175 27.1835C68.0065 27.1835 67.8689 27.248 67.7579 27.3749C67.649 27.5018 67.5935 27.6641 67.5935 27.8596V29.0726H67.2566V26.9484H67.5935V27.3021H67.6018C67.76 27.0337 67.9901 26.8984 68.29 26.8984C68.5202 26.8984 68.6948 26.9733 68.816 27.1231C68.9372 27.2729 68.9989 27.4893 68.9989 27.7743V29.0726Z" fill="#003478" stroke="#003478" stroke-width="0.1375" stroke-miterlimit="10"/>
<path d="M71.4235 28.9022C71.4235 29.6825 71.0536 30.0736 70.316 30.0736C70.0572 30.0736 69.8291 30.0237 69.636 29.9238V29.5826C69.8722 29.7157 70.0982 29.7823 70.3119 29.7823C70.8276 29.7823 71.0865 29.5035 71.0865 28.948V28.715H71.0783C70.918 28.9855 70.6776 29.1207 70.3571 29.1207C70.0962 29.1207 69.8866 29.0271 69.7264 28.8378C69.5682 28.6484 69.488 28.3946 69.488 28.0763C69.488 27.7143 69.5743 27.4271 69.7449 27.2149C69.9154 27.0027 70.1517 26.8945 70.4496 26.8945C70.7475 26.8945 70.9427 27.009 71.0783 27.2399H71.0865V26.9445H71.4235V28.9002V28.9022ZM71.0886 28.1116V27.7975C71.0886 27.629 71.0331 27.4833 70.9201 27.3647C70.8071 27.2441 70.6674 27.1837 70.4989 27.1837C70.2914 27.1837 70.1291 27.2607 70.012 27.4126C69.8948 27.5645 69.8353 27.7788 69.8353 28.0555C69.8353 28.2927 69.8907 28.482 70.0037 28.6235C70.1167 28.7649 70.2647 28.8357 70.4516 28.8357C70.6386 28.8357 70.7927 28.767 70.9119 28.6318C71.031 28.4965 71.0886 28.3218 71.0886 28.1116Z" fill="#003478" stroke="#003478" stroke-width="0.1375" stroke-miterlimit="10"/>
<path d="M41.4408 29.0023H41.1038V28.6694H41.0956C40.9497 28.9232 40.734 29.0522 40.4505 29.0522C40.2409 29.0522 40.0786 28.996 39.9594 28.8837C39.8402 28.7713 39.7827 28.6236 39.7827 28.4385C39.7827 28.0411 40.0128 27.8101 40.4751 27.7456L41.1038 27.6562C41.1038 27.2942 40.96 27.1152 40.6703 27.1152C40.4176 27.1152 40.1895 27.2026 39.9861 27.3774V27.0279C40.1916 26.8947 40.4299 26.8281 40.6991 26.8281C41.1922 26.8281 41.4387 27.0924 41.4387 27.6208V29.0023H41.4408ZM41.1038 27.9266L40.5984 27.9974C40.4422 28.0203 40.3251 28.0598 40.245 28.1139C40.1649 28.1701 40.1258 28.2699 40.1258 28.4114C40.1258 28.5154 40.1628 28.6007 40.2347 28.6652C40.3087 28.7318 40.4053 28.763 40.5265 28.763C40.6929 28.763 40.8306 28.7048 40.9394 28.5862C41.0483 28.4676 41.1018 28.3178 41.1018 28.1368V27.9246L41.1038 27.9266Z" fill="#003478" stroke="#003478" stroke-width="0.1375" stroke-miterlimit="10"/>
<path d="M30.3197 17.7579C30.3197 16.4451 29.2718 15.4922 27.8542 15.4922C26.4365 15.4922 25.3887 16.4472 25.3887 17.7579C25.3887 19.0686 26.4447 20.0361 27.8542 20.0361C29.2636 20.0361 30.3197 19.0915 30.3197 17.7579ZM26.6666 17.7579C26.6666 17.063 27.1597 16.6406 27.8542 16.6406C28.5486 16.6406 29.0417 17.063 29.0417 17.7579C29.0417 18.4528 28.5486 18.8855 27.8542 18.8855C27.1597 18.8855 26.6666 18.4632 26.6666 17.7579Z" fill="#003478"/>
<path d="M27.2871 15.3116H24.158V16.4206H31.5503V15.3116H28.4438V14.2734H27.2871V15.3116Z" fill="#003478"/>
<path d="M28.908 21.5891H26.8206V24.0857H25.633V21.5891H23.6606V20.4219H32.07V21.5891H30.0976V24.0857H28.9101V21.5891H28.908Z" fill="#003478"/>
<path d="M57.6309 16.2H58.6171V14.2734H59.856V20.669H58.6171V17.3506H57.6206L57.6309 16.2Z" fill="#003478"/>
<path d="M61.7215 22.9285V24.1019H54.9147C54.7277 24.1019 54.5757 23.9479 54.5757 23.7586V20.4339H55.7324V22.9285H61.7215ZM61.7215 20.669H60.462V14.2734H61.7215V20.669Z" fill="#003478"/>
<path d="M55.4695 19.3253C56.7659 19.3253 57.7069 18.2642 57.7069 16.8287C57.7069 15.3931 56.7639 14.332 55.4695 14.332C54.1751 14.332 53.2197 15.4014 53.2197 16.8287C53.2197 18.2559 54.1525 19.3253 55.4695 19.3253ZM55.4695 15.624C56.1557 15.624 56.5728 16.1234 56.5728 16.8266C56.5728 17.5298 56.1557 18.0291 55.4695 18.0291C54.7833 18.0291 54.3559 17.5298 54.3559 16.8266C54.3559 16.1234 54.773 15.624 55.4695 15.624Z" fill="#003478"/>
</svg>
