<svg width="684" height="332" viewBox="0 0 684 332" fill="none" xmlns="http://www.w3.org/2000/svg">
<rect width="684" height="332" rx="20" fill="#2D3C51"/>
<path d="M62.1328 78.4316V79.7676H49.3184V78.4316H54.9258V76.6738H56.5781V78.4316H62.1328ZM62.9941 86.8164V88.1699H59.3555V92.5117H57.668V88.1699H53.8711V92.5117H52.2012V88.1699H48.5801V86.8164H62.9941ZM55.752 80.5762C59.0215 80.5762 60.9902 81.5078 60.9902 83.2129C60.9902 84.9004 59.0215 85.8496 55.752 85.8496C52.4648 85.8496 50.4961 84.9004 50.5137 83.2129C50.4961 81.5078 52.4648 80.5762 55.752 80.5762ZM55.752 81.8418C53.4844 81.8594 52.2363 82.3164 52.2363 83.2129C52.2363 84.0918 53.4844 84.5664 55.752 84.5664C58.002 84.5664 59.25 84.0918 59.2676 83.2129C59.25 82.3164 58.002 81.8594 55.752 81.8418ZM78.1908 89.084V90.4551H63.7767V89.084H78.1908ZM67.099 77.834V80.6641H74.8334V77.834H76.4857V86.0957H65.4291V77.834H67.099ZM67.099 84.7773H74.8334V81.9824H67.099V84.7773ZM91.3484 76.7441V80.0312H93.6335V81.4199H91.3484V84.707H89.6784V76.7441H91.3484ZM91.3484 85.4277V89.418H82.8405V90.9648H91.8933V92.3008H81.2058V88.1699H89.696V86.7285H81.1706V85.4277H91.3484ZM83.3503 77.2891C85.7409 77.2891 87.4812 78.7305 87.4812 80.8047C87.4812 82.8789 85.7409 84.3203 83.3503 84.3203C80.9597 84.3203 79.2019 82.8789 79.2195 80.8047C79.2019 78.7305 80.9597 77.2891 83.3503 77.2891ZM83.3503 78.6602C81.8913 78.6602 80.8366 79.5215 80.8366 80.8047C80.8366 82.0879 81.8913 82.9844 83.3503 82.9844C84.7917 82.9844 85.864 82.0879 85.864 80.8047C85.864 79.5215 84.7917 78.6602 83.3503 78.6602ZM97.9141 77.957C99.8038 77.957 101.236 79.2314 101.5 81.1738H102.959V77.0254H104.524V88.0469H102.959V82.5625H101.482C101.184 84.4346 99.7686 85.6914 97.9141 85.6738C95.8048 85.6914 94.293 84.0918 94.3106 81.8242C94.293 79.5215 95.8048 77.957 97.9141 77.957ZM97.9141 79.3809C96.6837 79.3809 95.8048 80.3652 95.8048 81.8242C95.8048 83.2832 96.6837 84.25 97.9141 84.25C99.127 84.25 100.024 83.2832 100.041 81.8242C100.024 80.3652 99.127 79.3809 97.9141 79.3809ZM107.6 76.7441V88.5215H106.018V76.7441H107.6ZM108.057 90.8066V92.1602H97.1583V86.9922H98.8106V90.8066H108.057ZM122.673 76.7441V92.4941H120.986V76.7441H122.673ZM113.111 81.4023C113.111 83.0547 113.383 85.3047 114.57 86.9043C115.739 85.3398 115.994 83.1338 116.011 81.4023V78.0977H117.611V81.4023C117.611 83.6172 118.085 86.3418 120.054 87.7656L119.017 88.9609C117.866 88.1172 117.189 86.7725 116.802 85.2695C116.433 86.8076 115.756 88.2227 114.57 89.084C113.383 88.2227 112.706 86.7988 112.337 85.2695C111.951 86.7373 111.291 88.0645 110.193 88.9082L109.103 87.7656C111.072 86.3066 111.546 83.5645 111.564 81.4023V78.0977H113.111V81.4023ZM134.065 85.709V89.1719H137.51V85.709H139.162V89.1719H143.012V90.5254H128.598V89.1719H132.43V85.709H134.065ZM136.596 78.9238C136.596 81.3496 139.356 83.582 142.379 84.0566L141.711 85.4453C139.118 84.9619 136.763 83.4414 135.717 81.332C134.671 83.4326 132.316 84.9795 129.758 85.4453L129.072 84.0566C132.096 83.5645 134.838 81.332 134.838 78.9238V77.7285H136.596V78.9238ZM153.041 78.0449V79.416H151.529V83.7402C152.293 83.6963 153.041 83.6172 153.761 83.5293L153.867 84.7773C150.65 85.3047 146.906 85.3574 144.251 85.3574L144.058 83.9863C144.647 83.9863 145.297 83.9863 145.974 83.9688V79.416H144.48V78.0449H153.041ZM156.855 76.7617V86.3594H155.185V76.7617H156.855ZM151.599 86.6934C154.921 86.6934 156.96 87.7305 156.96 89.5586C156.96 91.4043 154.921 92.4766 151.599 92.459C148.259 92.4766 146.238 91.4043 146.238 89.5586C146.238 87.7305 148.259 86.6934 151.599 86.6934ZM151.599 87.9766C149.261 87.9766 147.89 88.5566 147.89 89.5586C147.89 90.5957 149.261 91.1758 151.599 91.1758C153.937 91.1758 155.291 90.5957 155.291 89.5586C155.291 88.5566 153.937 87.9766 151.599 87.9766ZM147.574 83.9336C148.338 83.9248 149.138 83.8984 149.929 83.8457V79.416H147.574V83.9336ZM173.352 83.4766V84.8301H158.991V83.4766H165.319V82.1055H160.837V77.2539H171.507V82.1055H166.954V83.4766H173.352ZM162.472 78.5723V80.7871H169.837V78.5723H162.472ZM171.542 85.9727V89.6641H162.366V91.0527H171.981V92.3359H160.731V88.4512H169.89V87.2559H160.714V85.9727H171.542ZM193.65 102.449V113.154H198.695V117.502H193.65V129.643H188.4V102.449H193.65ZM195.003 134.934V139.117H169.451V126.771H174.66V134.934H195.003ZM174.536 104.869C180.238 104.869 184.708 108.807 184.708 114.344C184.708 119.799 180.238 123.818 174.536 123.818C168.794 123.818 164.283 119.799 164.283 114.344C164.283 108.807 168.794 104.869 174.536 104.869ZM174.536 109.422C171.706 109.381 169.41 111.227 169.451 114.344C169.41 117.379 171.706 119.266 174.536 119.266C177.408 119.266 179.581 117.379 179.622 114.344C179.581 111.227 177.408 109.381 174.536 109.422ZM231.693 102.449V139.773H226.648V121.111H223.161V137.969H218.239V103.064H223.161V116.887H226.648V102.449H231.693ZM206.263 106.592V126.074C209.257 126.013 212.538 125.746 216.148 125.049L216.681 129.561C211.677 130.422 207.411 130.668 203.556 130.668H201.013V106.592H206.263Z" fill="white"/>
<path d="M80.6484 102.285V140.02H74.7832V102.285H80.6484ZM68.918 105.361V120.209H57.0645V126.443C62.6221 126.402 67.2568 126.115 72.4043 125.254L72.8965 130.012C66.9492 131.078 61.4121 131.324 54.3984 131.324H50.9531V115.574H62.8887V110.078H50.9531V105.361H68.918ZM115 113.852V118.568H88.5448V103.926H94.451V113.852H115ZM118.773 122.424V127.141H111.226V139.938H105.238V127.141H97.9784V139.938H92.0721V127.141H84.4432V122.424H118.773ZM151.771 102.285V120.988H145.906V114.262H140.123C138.974 118.117 135.18 120.66 130.443 120.66C124.66 120.66 120.312 117.051 120.353 111.883C120.312 106.879 124.66 103.27 130.443 103.27C135.201 103.27 138.995 105.812 140.123 109.586H145.906V102.285H151.771ZM130.443 108.027C127.777 108.027 125.931 109.422 125.931 111.883C125.931 114.508 127.777 115.902 130.443 115.902C132.986 115.902 134.832 114.508 134.832 111.883C134.832 109.422 132.986 108.027 130.443 108.027ZM151.771 122.506V133.047H132.494V134.934H152.756V139.527H126.547V128.74H145.906V127.018H126.547V122.506H151.771Z" fill="#7FB5FF"/>
<path d="M60.1875 160.344V171.016H58.7031V168.125H56.4531V166.938H58.7031V165.203H56.4531V163.984H58.7031V160.344H60.1875ZM56.4062 161.969V163.172H48.5312V161.969H51.8125V160.328H53.2812V161.969H56.4062ZM52.5312 163.844C54.4219 163.844 55.75 164.938 55.7656 166.531C55.75 168.141 54.4219 169.234 52.5312 169.234C50.6406 169.234 49.3125 168.141 49.3125 166.531C49.3125 164.938 50.6406 163.844 52.5312 163.844ZM52.5312 165C51.4375 165.016 50.7031 165.609 50.7031 166.531C50.7031 167.484 51.4375 168.078 52.5312 168.078C53.6094 168.078 54.3594 167.484 54.375 166.531C54.3594 165.609 53.6094 165.016 52.5312 165ZM60.5 172.828V174.031H51.0469V170.078H52.5469V172.828H60.5ZM74.1175 160.328V174.328H72.6956V167.141H71.0238V173.641H69.6175V160.594H71.0238V165.891H72.6956V160.328H74.1175ZM66.2738 164.031C66.2738 166.547 67.2269 168.828 69.2581 169.875L68.3831 171.016C67.0081 170.273 66.0863 168.969 65.5863 167.344C65.1097 169.188 64.18 170.656 62.7581 171.5L61.8363 170.375C63.8831 169.219 64.8363 166.812 64.8363 164.031V163.125H62.2113V161.922H68.7113V163.125H66.2738V164.031ZM90.3213 170.109V174.156H80.6494V170.109H90.3213ZM82.1181 171.25V173.016H88.8838V171.25H82.1181ZM91.165 161.438V162.578H79.7744V161.438H84.7588V160.141H86.2431V161.438H91.165ZM85.4931 163.078C88.4463 163.078 90.0869 163.75 90.0869 165.062C90.0869 166.258 88.7197 166.922 86.2431 167.031V167.984H91.8838V169.156H79.1181V167.984H84.7588V167.031C82.2822 166.922 80.8838 166.258 80.8994 165.062C80.8838 163.75 82.5556 163.078 85.4931 163.078ZM85.4931 164.094C83.54 164.109 82.4775 164.422 82.4775 165.062C82.4775 165.688 83.54 166.031 85.4931 166.031C87.4619 166.031 88.5088 165.688 88.5088 165.062C88.5088 164.422 87.4619 164.109 85.4931 164.094ZM104.736 160.328V174.328H103.314V160.328H104.736ZM101.97 160.641V173.609H100.564V166.906H98.8138V165.578H100.564V160.641H101.97ZM99.1888 162.047V163.266H98.1106V169.516C98.5872 169.484 99.0481 169.43 99.47 169.375L99.5794 170.453C97.3606 170.891 94.4544 170.953 92.6419 170.953L92.47 169.703C92.8763 169.703 93.345 169.703 93.845 169.688V163.266H92.7669V162.047H99.1888ZM95.1888 169.672C95.6966 169.656 96.22 169.641 96.7356 169.609V163.266H95.1888V169.672ZM117.728 160.328V174.359H116.244V160.328H117.728ZM110.244 161.375C112.322 161.375 113.853 163.281 113.853 166.281C113.853 169.297 112.322 171.203 110.244 171.203C108.134 171.203 106.619 169.297 106.619 166.281C106.619 163.281 108.134 161.375 110.244 161.375ZM110.244 162.703C108.947 162.703 108.056 164.078 108.056 166.281C108.056 168.5 108.947 169.875 110.244 169.875C111.525 169.875 112.416 168.5 112.416 166.281C112.416 164.078 111.525 162.703 110.244 162.703ZM124.799 164.453C124.799 166.797 126.33 169.219 128.486 170.141L127.674 171.297C126.025 170.57 124.713 169.031 124.064 167.156C123.416 169.156 122.096 170.859 120.471 171.656L119.611 170.484C121.721 169.5 123.283 166.859 123.299 164.453V162.969H120.096V161.734H127.986V162.969H124.799V164.453ZM131.236 160.328V174.328H129.752V160.328H131.236ZM141.878 163.891C141.862 166.453 143.409 169.016 145.581 169.984L144.69 171.156C143.081 170.391 141.807 168.82 141.159 166.906C140.503 168.953 139.213 170.648 137.534 171.469L136.628 170.219C138.831 169.234 140.378 166.562 140.378 163.891V161.5H141.878V163.891ZM148.331 160.328V174.359H146.846V160.328H148.331ZM157.354 162.312C157.354 164.594 159.792 166.75 162.479 167.234L161.792 168.469C159.558 167.984 157.495 166.516 156.589 164.547C155.667 166.5 153.612 167.969 151.37 168.469L150.714 167.234C153.37 166.734 155.792 164.594 155.792 162.312V161.25H157.354V162.312ZM163.058 171.25V172.484H150.245V171.25H163.058ZM169.706 161.219V162.438H165.8V163.953H169.159V165.109H165.8V166.781C167.644 166.766 168.87 166.695 170.3 166.438L170.441 167.609C168.831 167.906 167.503 167.969 165.284 167.969H164.378V161.219H169.706ZM175.691 160.328V168.734H174.284V160.328H175.691ZM172.941 160.562V168.625H171.534V165H169.8V163.797H171.534V160.562H172.941ZM175.691 169.359V174.156H166.331V169.359H175.691ZM167.816 170.531V172.953H174.238V170.531H167.816ZM192.832 160.328V174.328H191.41V167.062H189.676V173.656H188.285V160.703H189.676V165.859H191.41V160.328H192.832ZM186.894 162.109C186.879 165.797 185.66 169.094 181.66 171.359L180.801 170.328C183.91 168.57 185.223 166.188 185.457 163.328H181.394V162.109H186.894ZM206.027 160.328V170.719H204.543V166.859H202.356V165.609H204.543V164.141H202.356V162.922H204.543V160.328H206.027ZM202.199 161.422V162.625H200.856V167.312C201.449 167.266 202.02 167.219 202.574 167.156L202.637 168.25C199.949 168.672 196.809 168.719 194.559 168.734L194.371 167.484C194.895 167.484 195.473 167.484 196.074 167.469V162.625H194.762V161.422H202.199ZM206.387 172.828V174.031H196.902V169.875H198.402V172.828H206.387ZM197.512 167.453C198.145 167.438 198.785 167.422 199.434 167.391V162.625H197.512V167.453ZM218.841 161.219V166.969H212.184V161.219H218.841ZM213.637 162.406V165.812H217.372V162.406H213.637ZM223.044 160.328V168.328H221.575V160.328H223.044ZM223.372 169.234V170.359H219.278C219.38 171.578 221.325 172.852 223.872 173.141L223.372 174.281C221.177 174.023 219.372 173.078 218.528 171.844C217.669 173.094 215.825 174.008 213.622 174.281L213.106 173.141C215.653 172.898 217.645 171.609 217.747 170.359H213.669V169.234H217.778V167.922H219.247V169.234H223.372ZM233.591 163.891C233.591 166.453 235.029 169 237.169 169.969L236.263 171.156C234.669 170.359 233.474 168.773 232.857 166.859C232.24 168.875 231.013 170.578 229.404 171.422L228.466 170.219C230.638 169.188 232.091 166.484 232.091 163.891V161.5H233.591V163.891ZM240.216 160.328V174.359H238.747V166.188H235.622V164.984H238.747V160.328H240.216ZM253.646 160.328V174.359H252.162V160.328H253.646ZM244.318 161.5V165.094H248.084V161.5H249.553V171H242.834V161.5H244.318ZM244.318 169.781H248.084V166.266H244.318V169.781ZM262.67 162.312C262.67 164.594 265.107 166.75 267.795 167.234L267.107 168.469C264.873 167.984 262.811 166.516 261.904 164.547C260.982 166.5 258.928 167.969 256.686 168.469L256.029 167.234C258.686 166.734 261.107 164.594 261.107 162.312V161.25H262.67V162.312ZM268.373 171.25V172.484H255.561V171.25H268.373ZM283.655 160.312V164.5H285.686V165.75H283.655V170.609H282.171V160.312H283.655ZM284.249 172.828V174.031H274.78V169.531H276.264V172.828H284.249ZM276.592 161.281C278.702 161.281 280.311 162.719 280.327 164.766C280.311 166.797 278.702 168.25 276.592 168.25C274.483 168.25 272.858 166.797 272.874 164.766C272.858 162.719 274.483 161.281 276.592 161.281ZM276.592 162.578C275.311 162.578 274.311 163.469 274.327 164.766C274.311 166.062 275.311 166.953 276.592 166.953C277.889 166.953 278.874 166.062 278.874 164.766C278.874 163.469 277.889 162.578 276.592 162.578ZM297.835 160.328V168.656H296.351V165.109H293.741V163.891H296.351V160.328H297.835ZM293.148 169.047C296.085 169.047 297.882 170.016 297.882 171.688C297.882 173.359 296.085 174.312 293.148 174.328C290.21 174.312 288.398 173.359 288.413 171.688C288.398 170.016 290.21 169.047 293.148 169.047ZM293.148 170.203C291.101 170.203 289.882 170.734 289.882 171.688C289.882 172.625 291.101 173.172 293.148 173.156C295.194 173.172 296.413 172.625 296.413 171.688C296.413 170.734 295.194 170.203 293.148 170.203ZM291.179 162.797C291.179 164.578 292.444 166.297 294.554 167.016L293.788 168.188C292.218 167.641 291.062 166.523 290.46 165.141C289.843 166.711 288.616 167.969 286.944 168.578L286.163 167.391C288.335 166.641 289.663 164.75 289.663 162.812V162.5H286.632V161.297H294.179V162.5H291.179V162.797ZM310.64 160.328V166.188H312.749V167.438H310.64V174.328H309.156V160.328H310.64ZM299.499 170.516C300.601 170.516 301.882 170.516 303.218 170.469V169.047C301.64 168.828 300.609 167.875 300.624 166.516C300.609 164.938 301.968 163.891 303.968 163.891C305.952 163.891 307.327 164.938 307.343 166.516C307.327 167.875 306.281 168.836 304.702 169.062V170.406C305.945 170.359 307.195 170.258 308.359 170.094L308.452 171.188C305.421 171.734 302.14 171.75 299.734 171.75L299.499 170.516ZM308.156 161.984V163.172H299.765V161.984H303.218V160.359H304.702V161.984H308.156ZM303.968 165.047C302.796 165.047 302.015 165.625 302.015 166.516C302.015 167.406 302.796 167.953 303.968 167.953C305.14 167.953 305.921 167.406 305.921 166.516C305.921 165.625 305.14 165.047 303.968 165.047ZM321.656 162.844C321.656 164.625 322.891 166.328 325.031 167.047L324.281 168.203C322.695 167.656 321.531 166.562 320.922 165.188C320.312 166.703 319.102 167.891 317.453 168.469L316.656 167.312C318.844 166.562 320.156 164.766 320.172 162.828V162.453H317.094V161.25H324.672V162.453H321.656V162.844ZM327.766 160.328V163.922H329.797V165.172H327.766V168.766H326.281V160.328H327.766ZM327.766 169.453V174.328H326.281V170.656H318.516V169.453H327.766ZM334.149 160.969C335.992 160.953 337.414 162.023 337.727 163.594H340.461V160.328H341.946V167.844H340.461V164.812H337.742C337.438 166.422 336.008 167.5 334.149 167.5C332.008 167.5 330.477 166.156 330.477 164.219C330.477 162.312 332.008 160.953 334.149 160.969ZM334.149 162.203C332.821 162.203 331.899 163.016 331.899 164.219C331.899 165.422 332.821 166.25 334.149 166.25C335.446 166.25 336.367 165.422 336.367 164.219C336.367 163.016 335.446 162.203 334.149 162.203ZM334.289 168.516V170.141H340.461V168.516H341.946V174.156H332.821V168.516H334.289ZM334.289 172.938H340.461V171.312H334.289V172.938ZM350.157 160.562C353.313 160.562 355.157 161.406 355.157 162.969C355.157 164.531 353.313 165.391 350.157 165.391C347.001 165.391 345.157 164.531 345.157 162.969C345.157 161.406 347.001 160.562 350.157 160.562ZM350.157 161.656C347.922 161.656 346.688 162.141 346.704 162.969C346.688 163.828 347.922 164.281 350.157 164.281C352.391 164.281 353.626 163.828 353.626 162.969C353.626 162.141 352.391 161.656 350.157 161.656ZM356.547 166.25V167.438H343.782V166.25H356.547ZM354.938 168.516V171.797H346.782V173.047H355.329V174.188H345.329V170.719H353.469V169.625H345.313V168.516H354.938ZM366.064 163.25C366.064 165.062 367.408 166.766 369.564 167.453L368.798 168.609C367.189 168.078 365.97 166.977 365.345 165.578C364.712 167.102 363.47 168.305 361.798 168.891L361.033 167.719C363.204 166.984 364.548 165.172 364.564 163.25V162.641H361.423V161.438H369.142V162.641H366.064V163.25ZM372.486 160.344V170.562H371.001V160.344H372.486ZM372.908 172.828V174.031H363.329V169.594H364.829V172.828H372.908ZM386.322 160.328V169.156H384.916V165.25H383.291V168.672H381.9V160.594H383.291V164.031H384.916V160.328H386.322ZM381.384 161.922V163.094H374.306V161.922H377.134V160.438H378.603V161.922H381.384ZM377.853 163.75C379.634 163.75 380.884 164.703 380.884 166.156C380.884 167.609 379.634 168.562 377.853 168.562C376.103 168.562 374.853 167.609 374.853 166.156C374.853 164.703 376.103 163.75 377.853 163.75ZM377.853 164.844C376.869 164.844 376.181 165.359 376.181 166.156C376.181 166.953 376.869 167.484 377.853 167.484C378.869 167.484 379.541 166.953 379.541 166.156C379.541 165.359 378.869 164.844 377.853 164.844ZM381.634 169.359C384.603 169.359 386.384 170.25 386.4 171.844C386.384 173.406 384.603 174.312 381.634 174.297C378.666 174.312 376.884 173.406 376.9 171.844C376.884 170.25 378.666 169.359 381.634 169.359ZM381.634 170.5C379.556 170.5 378.353 170.969 378.369 171.844C378.353 172.688 379.556 173.172 381.634 173.156C383.728 173.172 384.9 172.688 384.916 171.844C384.9 170.969 383.728 170.5 381.634 170.5ZM404.244 166.812V168.016H398.588V169.359C401.158 169.5 402.682 170.367 402.682 171.828C402.682 173.422 400.869 174.312 397.854 174.297C394.807 174.312 392.994 173.422 392.994 171.828C392.994 170.367 394.518 169.5 397.119 169.359V168.016H391.479V166.812H404.244ZM397.854 170.484C395.713 170.484 394.494 170.969 394.494 171.828C394.494 172.672 395.713 173.172 397.854 173.156C399.963 173.172 401.198 172.672 401.198 171.828C401.198 170.969 399.963 170.484 397.854 170.484ZM403.104 160.969V162.156H398.854C399.065 163.508 401.033 164.656 403.588 164.906L403.057 166.078C400.635 165.797 398.627 164.773 397.869 163.281C397.088 164.773 395.088 165.797 392.666 166.078L392.151 164.906C394.666 164.656 396.643 163.508 396.854 162.156H392.651V160.969H403.104ZM416.596 160.328V167.844H415.112V160.328H416.596ZM408.893 168.516V170.094H415.128V168.516H416.596V174.156H407.44V168.516H408.893ZM408.893 172.938H415.128V171.266H408.893V172.938ZM409.003 160.969C411.143 160.969 412.721 162.297 412.721 164.219C412.721 166.141 411.143 167.469 409.003 167.453C406.862 167.469 405.268 166.141 405.268 164.219C405.268 162.297 406.862 160.969 409.003 160.969ZM409.003 162.219C407.674 162.203 406.721 163.031 406.721 164.219C406.721 165.422 407.674 166.234 409.003 166.234C410.315 166.234 411.268 165.422 411.268 164.219C411.268 163.031 410.315 162.203 409.003 162.219ZM430.12 160.328V174.328H428.636V160.328H430.12ZM420.823 161.688V169.484C422.862 169.469 425.011 169.305 427.261 168.844L427.464 170.094C424.979 170.594 422.729 170.766 420.526 170.766H419.354V161.688H420.823ZM442.909 160.328V165.75H445.159V166.969H442.909V174.359H441.425V160.328H442.909ZM439.144 161.672V162.875H434.081V169.641C436.433 169.633 438.198 169.531 440.191 169.172L440.378 170.422C438.191 170.812 436.331 170.891 433.722 170.875H432.597V161.672H439.144ZM447.105 173.109C446.496 173.109 445.98 172.609 445.996 172C445.98 171.391 446.496 170.891 447.105 170.891C447.699 170.891 448.214 171.391 448.214 172C448.214 172.609 447.699 173.109 447.105 173.109ZM52.4844 182.797C54.5938 182.812 56.1406 184.109 56.1562 185.938C56.1406 187.781 54.5938 189.062 52.4844 189.062C50.3594 189.062 48.7969 187.781 48.7969 185.938C48.7969 184.109 50.3594 182.812 52.4844 182.797ZM52.4844 184.047C51.1875 184.031 50.2344 184.797 50.25 185.938C50.2344 187.094 51.1875 187.859 52.4844 187.859C53.7656 187.859 54.7188 187.094 54.7188 185.938C54.7188 184.797 53.7656 184.031 52.4844 184.047ZM60.125 182.328V189.453H58.6406V182.328H60.125ZM60.125 190.094V193.625H52.4062V194.969H60.5938V196.156H50.9688V192.516H58.6562V191.281H50.9219V190.094H60.125ZM74.8206 190.562V191.734H69.1019V196.328H67.6488V191.734H62.0081V190.562H74.8206ZM65.0706 182.891V184.719H71.7269V182.891H73.2113V188.969H63.6019V182.891H65.0706ZM65.0706 187.781H71.7269V185.906H65.0706V187.781ZM84.165 185.891C84.165 188.453 85.6025 191 87.7431 191.969L86.8369 193.156C85.2431 192.359 84.0478 190.773 83.4306 188.859C82.8134 190.875 81.5869 192.578 79.9775 193.422L79.04 192.219C81.2119 191.188 82.665 188.484 82.665 185.891V183.5H84.165V185.891ZM90.79 182.328V196.359H89.3213V188.188H86.1963V186.984H89.3213V182.328H90.79ZM104.22 182.328V196.359H102.736V182.328H104.22ZM94.8919 183.5V187.094H98.6575V183.5H100.126V193H93.4075V183.5H94.8919ZM94.8919 191.781H98.6575V188.266H94.8919V191.781ZM113.244 184.312C113.244 186.594 115.681 188.75 118.369 189.234L117.681 190.469C115.447 189.984 113.384 188.516 112.478 186.547C111.556 188.5 109.502 189.969 107.259 190.469L106.603 189.234C109.259 188.734 111.681 186.594 111.681 184.312V183.25H113.244V184.312ZM118.947 193.25V194.484H106.134V193.25H118.947ZM134.823 182.328V196.359H133.338V182.328H134.823ZM127.338 183.375C129.416 183.375 130.948 185.281 130.948 188.281C130.948 191.297 129.416 193.203 127.338 193.203C125.229 193.203 123.713 191.297 123.713 188.281C123.713 185.281 125.229 183.375 127.338 183.375ZM127.338 184.703C126.041 184.703 125.151 186.078 125.151 188.281C125.151 190.5 126.041 191.875 127.338 191.875C128.619 191.875 129.51 190.5 129.51 188.281C129.51 186.078 128.619 184.703 127.338 184.703ZM149.503 189.156V190.359H136.737V189.156H139.799V187.266C138.721 186.828 138.112 186.125 138.112 185.203C138.112 183.547 140.034 182.578 143.112 182.578C146.174 182.578 148.112 183.547 148.112 185.203C148.112 186.125 147.495 186.836 146.409 187.266V189.156H149.503ZM143.112 191.312C146.128 191.312 147.94 192.203 147.94 193.797C147.94 195.422 146.128 196.297 143.112 196.297C140.065 196.297 138.253 195.422 138.253 193.797C138.253 192.203 140.065 191.312 143.112 191.312ZM143.112 192.453C140.971 192.453 139.753 192.938 139.753 193.797C139.753 194.672 140.971 195.172 143.112 195.156C145.221 195.172 146.456 194.672 146.456 193.797C146.456 192.938 145.221 192.453 143.112 192.453ZM143.112 183.719C140.94 183.719 139.628 184.266 139.643 185.203C139.628 186.141 140.94 186.672 143.112 186.672C145.284 186.672 146.581 186.141 146.581 185.203C146.581 184.266 145.284 183.719 143.112 183.719ZM141.299 189.156H144.94V187.656C144.393 187.75 143.776 187.797 143.112 187.797C142.456 187.797 141.846 187.75 141.299 187.672V189.156ZM161.839 182.328V196.359H160.354V182.328H161.839ZM154.354 183.375C156.433 183.375 157.964 185.281 157.964 188.281C157.964 191.297 156.433 193.203 154.354 193.203C152.245 193.203 150.729 191.297 150.729 188.281C150.729 185.281 152.245 183.375 154.354 183.375ZM154.354 184.703C153.058 184.703 152.167 186.078 152.167 188.281C152.167 190.5 153.058 191.875 154.354 191.875C155.636 191.875 156.526 190.5 156.526 188.281C156.526 186.078 155.636 184.703 154.354 184.703ZM178.98 182.344V192.953H177.496V191.609H174.683V190.562H177.496V182.344H178.98ZM179.324 194.828V196.031H169.214V191.922H170.683V194.828H179.324ZM167.277 188.734C169.871 188.719 173.355 188.688 176.339 188.312L176.433 189.375C175.238 189.57 173.98 189.703 172.746 189.781V192.516H171.261V189.859C169.902 189.922 168.597 189.93 167.464 189.922L167.277 188.734ZM171.855 182.875C173.902 182.875 175.324 183.859 175.324 185.344C175.324 186.828 173.902 187.781 171.855 187.781C169.777 187.781 168.371 186.828 168.371 185.344C168.371 183.859 169.777 182.875 171.855 182.875ZM171.855 183.984C170.605 183.969 169.761 184.5 169.777 185.344C169.761 186.172 170.605 186.688 171.855 186.688C173.058 186.688 173.902 186.172 173.918 185.344C173.902 184.5 173.058 183.969 171.855 183.984ZM191.863 182.328V185.812H193.863V187.078H191.863V190.578H190.379V182.328H191.863ZM191.863 191.172V194.094H184.129V195.156H192.379V196.188H182.644V193.141H190.394V192.203H182.613V191.172H191.863ZM180.754 189.25C181.84 189.25 183.098 189.25 184.41 189.203V188.422C182.801 188.273 181.801 187.633 181.816 186.578C181.801 185.438 183.113 184.766 185.144 184.766C187.16 184.766 188.473 185.438 188.473 186.578C188.473 187.625 187.48 188.266 185.894 188.422V189.156C187.144 189.094 188.41 188.992 189.582 188.828L189.707 189.797C186.691 190.297 183.379 190.312 180.91 190.312L180.754 189.25ZM189.191 183.328V184.359H181.113V183.328H184.41V182.203H185.894V183.328H189.191ZM185.144 185.734C183.941 185.734 183.223 186.047 183.223 186.578C183.223 187.141 183.941 187.484 185.144 187.484C186.332 187.484 187.051 187.141 187.051 186.578C187.051 186.047 186.332 185.734 185.144 185.734ZM205.262 182.328V188H207.512V189.234H205.262V196.328H203.793V182.328H205.262ZM202.574 184.516V185.734H194.277V184.516H197.731V182.516H199.215V184.516H202.574ZM198.481 186.766C200.481 186.766 201.949 188.109 201.965 190.016C201.949 191.938 200.481 193.266 198.481 193.281C196.465 193.266 194.996 191.938 194.996 190.016C194.996 188.109 196.465 186.766 198.481 186.766ZM198.481 187.984C197.293 187.984 196.402 188.812 196.418 190.016C196.402 191.234 197.293 192.047 198.481 192.031C199.668 192.047 200.543 191.234 200.543 190.016C200.543 188.812 199.668 187.984 198.481 187.984ZM213.02 186.453C213.02 188.797 214.551 191.219 216.708 192.141L215.895 193.297C214.247 192.57 212.934 191.031 212.286 189.156C211.637 191.156 210.317 192.859 208.692 193.656L207.833 192.484C209.942 191.5 211.504 188.859 211.52 186.453V184.969H208.317V183.734H216.208V184.969H213.02V186.453ZM219.458 182.328V196.328H217.973V182.328H219.458ZM228.849 183.078C230.974 183.078 232.521 184.438 232.521 186.328C232.521 188.234 230.974 189.578 228.849 189.578C226.739 189.578 225.161 188.234 225.177 186.328C225.161 184.438 226.739 183.078 228.849 183.078ZM228.849 184.312C227.583 184.312 226.614 185.141 226.614 186.328C226.614 187.516 227.583 188.359 228.849 188.359C230.13 188.359 231.083 187.516 231.083 186.328C231.083 185.141 230.13 184.312 228.849 184.312ZM235.958 182.328V185.391H237.989V186.625H235.958V189.297H234.474V182.328H235.958ZM227.818 190.75V194.734C228.638 194.695 229.583 194.578 230.474 194.281L230.693 195.453C229.396 195.891 228.13 195.953 227.083 195.953H226.364V190.75H227.818ZM237.271 190.797V191.938H230.208V190.797H233.036V189.656H234.489V190.797H237.271ZM233.739 192.344C235.286 192.344 236.38 193.125 236.38 194.344C236.38 195.547 235.286 196.312 233.739 196.297C232.161 196.312 231.083 195.547 231.099 194.344C231.083 193.125 232.161 192.344 233.739 192.344ZM233.739 193.406C232.958 193.406 232.411 193.766 232.411 194.344C232.411 194.906 232.958 195.266 233.739 195.266C234.505 195.266 235.052 194.906 235.052 194.344C235.052 193.766 234.505 193.406 233.739 193.406ZM244.841 182.562C247.997 182.562 249.841 183.406 249.841 184.969C249.841 186.531 247.997 187.391 244.841 187.391C241.685 187.391 239.841 186.531 239.841 184.969C239.841 183.406 241.685 182.562 244.841 182.562ZM244.841 183.656C242.607 183.656 241.372 184.141 241.388 184.969C241.372 185.828 242.607 186.281 244.841 186.281C247.076 186.281 248.31 185.828 248.31 184.969C248.31 184.141 247.076 183.656 244.841 183.656ZM251.232 188.25V189.438H238.466V188.25H251.232ZM249.622 190.516V193.797H241.466V195.047H250.013V196.188H240.013V192.719H248.154V191.625H239.997V190.516H249.622ZM262.732 183.562C262.717 185.422 264.998 187.172 267.748 187.531L267.17 188.75C264.881 188.383 262.865 187.195 261.967 185.547C261.045 187.203 259.037 188.383 256.764 188.75L256.17 187.531C258.92 187.172 261.17 185.438 261.186 183.562V182.797H262.732V183.562ZM268.326 190.125V191.344H262.639V196.328H261.186V191.344H255.561V190.125H268.326ZM277.514 191.578C277.514 192.781 278.108 194.055 279.374 194.812C280.663 193.992 281.296 192.648 281.296 191.578V190.906H282.749V191.578C282.749 193.031 283.702 194.438 285.53 195.031L284.796 196.125C283.413 195.648 282.475 194.719 281.983 193.562C281.538 194.695 280.702 195.719 279.421 196.25C278.077 195.742 277.225 194.75 276.796 193.609C276.288 194.711 275.366 195.641 274.046 196.125L273.296 195.031C275.092 194.391 276.061 192.938 276.077 191.578V190.906H277.514V191.578ZM284.264 182.344V190.312H282.78V182.344H284.264ZM276.671 183.109C278.811 183.109 280.389 184.469 280.389 186.422C280.389 188.359 278.811 189.703 276.671 189.703C274.53 189.703 272.936 188.359 272.936 186.422C272.936 184.469 274.53 183.109 276.671 183.109ZM276.671 184.375C275.342 184.359 274.389 185.188 274.389 186.422C274.389 187.641 275.342 188.469 276.671 188.469C277.983 188.469 278.936 187.641 278.936 186.422C278.936 185.188 277.983 184.359 276.671 184.375ZM292.538 183.172C295.476 183.172 297.71 184.719 297.71 187.078C297.71 189.438 295.476 191 292.538 190.984C289.601 191 287.382 189.438 287.382 187.078C287.382 184.719 289.601 183.172 292.538 183.172ZM292.538 184.375C290.398 184.359 288.788 185.453 288.804 187.078C288.788 188.719 290.398 189.766 292.538 189.766C294.679 189.766 296.273 188.719 296.273 187.078C296.273 185.453 294.679 184.359 292.538 184.375ZM298.976 193.281V194.516H286.163V193.281H298.976ZM312.484 193.297V194.516H299.671V193.297H312.484ZM310.952 183.5V190.219H301.14V183.5H310.952ZM302.577 184.703V189.047H309.499V184.703H302.577ZM325.992 193.406V194.656H313.179V193.406H318.82V190.953H314.742V186.5H322.961V184.531H314.711V183.312H324.429V187.688H316.211V189.734H324.758V190.953H320.289V193.406H325.992ZM343.258 184.312V185.531H341.274V187.312H343.258V188.547H341.274V190.594H339.789V182.328H341.274V184.312H343.258ZM334.211 183.141C336.352 183.141 337.93 184.5 337.946 186.469C337.93 188.422 336.352 189.781 334.211 189.797C332.071 189.781 330.477 188.422 330.492 186.469C330.477 184.5 332.071 183.141 334.211 183.141ZM334.211 184.391C332.899 184.391 331.93 185.234 331.946 186.469C331.93 187.719 332.899 188.531 334.211 188.547C335.524 188.531 336.492 187.719 336.492 186.469C336.492 185.234 335.524 184.391 334.211 184.391ZM336.758 190.969C339.617 190.969 341.399 191.953 341.399 193.641C341.399 195.312 339.617 196.312 336.758 196.297C333.867 196.312 332.055 195.312 332.055 193.641C332.055 191.953 333.867 190.969 336.758 190.969ZM336.758 192.172C334.727 192.172 333.524 192.703 333.539 193.641C333.524 194.594 334.727 195.109 336.758 195.109C338.774 195.109 339.946 194.594 339.946 193.641C339.946 192.703 338.774 192.172 336.758 192.172ZM350.704 184.641V185.844H343.751V184.641H346.501V182.734H347.969V184.641H350.704ZM347.235 186.688C349.016 186.688 350.266 188.016 350.282 189.906C350.266 191.812 349.016 193.156 347.235 193.156C345.485 193.156 344.188 191.812 344.204 189.906C344.188 188.016 345.485 186.688 347.235 186.688ZM347.235 187.922C346.219 187.922 345.516 188.75 345.516 189.906C345.516 191.094 346.219 191.891 347.235 191.891C348.235 191.891 348.969 191.094 348.969 189.906C348.969 188.75 348.235 187.922 347.235 187.922ZM355.766 182.328V196.328H354.36V189.375H352.751V195.672H351.344V182.641H352.751V188.156H354.36V182.328H355.766ZM373.673 190.562V191.734H367.954V196.328H366.501V191.734H360.861V190.562H373.673ZM363.923 182.891V184.719H370.579V182.891H372.064V188.969H362.454V182.891H363.923ZM363.923 187.781H370.579V185.906H363.923V187.781ZM381.494 183.266V184.469H376.478V186.078H381.228V187.234H376.478V188.922C379.048 188.914 380.58 188.844 382.369 188.531L382.525 189.719C380.603 190.047 378.962 190.125 376.087 190.109H374.994V183.266H381.494ZM385.384 182.328V185.953H387.416V187.203H385.384V190.812H383.9V182.328H385.384ZM385.384 191.453V196.328H383.9V192.656H376.134V191.453H385.384ZM399.236 188.969V190.188H389.486V183.578H399.111V184.797H390.955V188.969H399.236ZM400.705 193.25V194.484H387.892V193.25H400.705ZM413.01 182.344V190.062H411.526V182.344H413.01ZM408.541 183V186.906H403.588V188.562C406.033 188.547 407.838 188.484 409.963 188.141L410.151 189.344C407.869 189.719 405.948 189.781 403.307 189.797H402.135V185.75H407.073V184.203H402.104V183H408.541ZM405.307 190.719V192.234H411.541V190.719H413.01V196.156H403.823V190.719H405.307ZM405.307 194.953H411.541V193.406H405.307V194.953ZM426.534 182.328V196.328H425.049V182.328H426.534ZM417.237 183.688V191.484C419.276 191.469 421.424 191.305 423.674 190.844L423.878 192.094C421.393 192.594 419.143 192.766 416.94 192.766H415.768V183.688H417.237ZM439.323 182.328V187.75H441.573V188.969H439.323V196.359H437.839V182.328H439.323ZM435.557 183.672V184.875H430.495V191.641C432.847 191.633 434.612 191.531 436.604 191.172L436.792 192.422C434.604 192.812 432.745 192.891 430.136 192.875H429.011V183.672H435.557ZM443.519 195.109C442.909 195.109 442.394 194.609 442.409 194C442.394 193.391 442.909 192.891 443.519 192.891C444.112 192.891 444.628 193.391 444.628 194C444.628 194.609 444.112 195.109 443.519 195.109Z" fill="white"/>
<rect x="48" y="220" width="120" height="48" rx="24" fill="#3F536F"/>
<path d="M77.8625 241.281C77.8625 243.469 79.1594 245.953 81.3937 246.984L80.425 248.359C78.8312 247.609 77.6516 246.094 77.0187 244.328C76.3781 246.266 75.1437 247.922 73.5187 248.703L72.5031 247.344C74.7531 246.281 76.1125 243.625 76.1281 241.281V240.094H73.05V238.656H80.8156V240.094H77.8625V241.281ZM83.8625 237.266V242.766H86.0344V244.219H83.8625V251.391H82.1281V237.266H83.8625ZM90.7144 240.969C90.7144 243.25 91.5112 245.625 93.4175 246.828L92.4644 248.156C91.1909 247.391 90.3628 246.07 89.9019 244.516C89.3862 246.227 88.48 247.672 87.1519 248.484L86.0737 247.188C88.1206 245.938 89.0425 243.453 89.0425 241.047V238.516H90.7144V240.969ZM98.4956 237.266V251.391H96.8237V237.266H98.4956ZM95.5581 237.516V250.703H93.9175V243.562H91.9019V242.125H93.9175V237.516H95.5581ZM111.566 237.266V251.391H109.816V237.266H111.566ZM108.582 239.453V240.844H100.113V239.453H103.472V237.438H105.238V239.453H108.582ZM104.379 241.75C106.441 241.75 107.972 243.125 107.972 245.078C107.972 247.031 106.441 248.391 104.379 248.391C102.301 248.391 100.785 247.031 100.785 245.078C100.785 243.125 102.301 241.75 104.379 241.75ZM104.379 243.172C103.254 243.172 102.441 243.922 102.441 245.078C102.441 246.234 103.254 246.969 104.379 246.953C105.504 246.969 106.301 246.234 106.301 245.078C106.301 243.922 105.504 243.172 104.379 243.172ZM129.708 248.266V249.688H116.801V248.266H122.364V245.516H118.223V238.203H119.958V240.516H126.504V238.203H128.239V245.516H124.083V248.266H129.708ZM119.958 244.109H126.504V241.906H119.958V244.109ZM142.106 237.266V251.391H140.356V237.266H142.106ZM137.888 238.766C137.888 242.969 136.263 246.547 131.309 248.891L130.403 247.5C134.098 245.742 135.817 243.352 136.122 240.141H131.122V238.766H137.888Z" fill="white"/>
<path d="M646.478 282.263C646.478 279.09 606.298 276.523 556.739 276.523C507.18 276.523 467 279.09 467 282.263C467 285.435 507.18 288.002 556.739 288.002C606.298 288.002 646.478 285.435 646.478 282.263Z" fill="#3F536F"/>
<path d="M583.057 276.962H531.442L538.157 258.109H576.335L583.057 276.962Z" fill="#E2E1E1"/>
<path d="M576.322 258.109H538.144L535.53 265.436H578.928L576.322 258.109Z" fill="#AEAEAE"/>
<path d="M529.307 274.777H585.19C586.907 274.777 588.305 276.175 588.305 277.892V279.539H526.2V277.892C526.2 276.175 527.597 274.777 529.314 274.777H529.307Z" fill="#AEAEAE"/>
<path d="M643.695 140.351C643.695 137.563 641.436 135.297 638.641 135.297H475.142C472.355 135.297 470.088 137.556 470.088 140.351V245.311H643.695V140.351Z" fill="#003243"/>
<path d="M470.088 245.312V255.58C470.088 258.367 472.348 260.634 475.142 260.634H638.641C641.429 260.634 643.695 258.374 643.695 255.58V245.312H470.088Z" fill="#E2E1E1"/>
<path d="M635.429 142.555H477.992V237.025H635.429V142.555Z" fill="#96D6F7"/>
<path d="M633.33 143.805H480.084V235.759H633.33V143.805Z" fill="#D6EEFD"/>
<path opacity="0.37" d="M643.695 140.351C643.695 137.563 641.436 135.297 638.641 135.297H498.027L643.695 238.575V140.351Z" fill="white"/>
<path d="M615.444 114.652H496.553V237.019H615.444V114.652Z" fill="white"/>
<path d="M501.808 96H610.189C613.088 96 615.444 98.3566 615.444 101.255V119.336H496.553V101.255C496.553 98.3566 498.91 96 501.808 96Z" fill="#497D8A"/>
<path d="M513.147 107.701C513.147 109.591 511.61 111.128 509.72 111.128C507.829 111.128 506.292 109.591 506.292 107.701C506.292 105.81 507.829 104.273 509.72 104.273C511.61 104.273 513.147 105.81 513.147 107.701Z" fill="#E4003E"/>
<path d="M523.059 107.701C523.059 109.591 521.523 111.128 519.632 111.128C517.741 111.128 516.205 109.591 516.205 107.701C516.205 105.81 517.741 104.273 519.632 104.273C521.523 104.273 523.059 105.81 523.059 107.701Z" fill="#C7D534"/>
<path d="M532.964 107.701C532.964 109.591 531.428 111.128 529.537 111.128C527.646 111.128 526.11 109.591 526.11 107.701C526.11 105.81 527.646 104.273 529.537 104.273C531.428 104.273 532.964 105.81 532.964 107.701Z" fill="#FECB23"/>
<path d="M604.363 102.883H544.372V112.657H604.363V102.883Z" fill="white"/>
<path d="M606.213 127.496H505.444V184.901H606.213V127.496Z" fill="#DDF1FD"/>
<path d="M552.498 190.504H524.087V193.903H552.498V190.504Z" fill="#E2E1E1"/>
<path d="M571.143 198.812H505.444V202.212H571.143V198.812Z" fill="#E2E1E1"/>
<path d="M571.143 207.125H505.444V210.524H571.143V207.125Z" fill="#E2E1E1"/>
<path d="M571.143 215.438H505.444V218.837H571.143V215.438Z" fill="#E2E1E1"/>
<path d="M571.143 223.754H505.444V227.153H571.143V223.754Z" fill="#E2E1E1"/>
<path d="M603.585 190.504H583.475V193.903H603.585V190.504Z" fill="#E2E1E1"/>
<path d="M603.585 198.812H583.475V202.212H603.585V198.812Z" fill="#E2E1E1"/>
<path d="M603.585 207.125H583.475V210.524H603.585V207.125Z" fill="#E2E1E1"/>
<path d="M603.585 215.438H583.475V218.837H603.585V215.438Z" fill="#E2E1E1"/>
<path d="M603.585 223.754H583.475V227.153H603.585V223.754Z" fill="#E2E1E1"/>
<path d="M606.213 127.496H505.444V184.901H606.213V127.496Z" stroke="#C9E8FB" stroke-width="2" stroke-miterlimit="10"/>
<path d="M606.213 127.496L505.444 184.901" stroke="#C9E8FB" stroke-width="2" stroke-miterlimit="10"/>
<path d="M505.444 127.496L606.213 184.901" stroke="#C9E8FB" stroke-width="2" stroke-miterlimit="10"/>
<path d="M557.733 255.584C559.069 255.584 560.152 254.501 560.152 253.165C560.152 251.829 559.069 250.746 557.733 250.746C556.397 250.746 555.313 251.829 555.313 253.165C555.313 254.501 556.397 255.584 557.733 255.584Z" fill="#C0C0C0"/>
</svg>
