<svg width="328" height="160" viewBox="0 0 328 160" fill="none" xmlns="http://www.w3.org/2000/svg">
<rect width="328" height="160" rx="12" fill="#2D3C51"/>
<path d="M310.696 135.653C310.696 133.802 287.257 132.305 258.348 132.305C229.439 132.305 206 133.802 206 135.653C206 137.503 229.439 139 258.348 139C287.257 139 310.696 137.503 310.696 135.653Z" fill="#3F536F"/>
<path d="M273.7 132.56H243.592L247.509 121.562H269.779L273.7 132.56Z" fill="#E2E1E1"/>
<path d="M269.771 121.562H247.501L245.976 125.836H271.292L269.771 121.562Z" fill="#AEAEAE"/>
<path d="M242.346 131.285H274.945C275.946 131.285 276.761 132.1 276.761 133.102V134.063H240.534V133.102C240.534 132.1 241.349 131.285 242.35 131.285H242.346Z" fill="#AEAEAE"/>
<path d="M309.072 52.8699C309.072 51.2438 307.754 49.9219 306.124 49.9219H210.75C209.124 49.9219 207.802 51.2398 207.802 52.8699V114.097H309.072V52.8699Z" fill="#003243"/>
<path d="M207.802 114.098V120.087C207.802 121.713 209.12 123.035 210.75 123.035H306.124C307.75 123.035 309.072 121.717 309.072 120.087V114.098H207.802Z" fill="#E2E1E1"/>
<path d="M304.251 54.1562H212.412V109.264H304.251V54.1562Z" fill="#96D6F7"/>
<path d="M303.026 54.8867H213.633V108.527H303.026V54.8867Z" fill="#D6EEFD"/>
<path opacity="0.37" d="M309.072 52.8699C309.072 51.2438 307.755 49.9219 306.124 49.9219H224.099L309.072 110.168V52.8699Z" fill="white"/>
<path d="M292.593 37.8789H223.239V109.26H292.593V37.8789Z" fill="white"/>
<path d="M226.305 27H289.527C291.218 27 292.593 28.3747 292.593 30.0656V40.6128H223.239V30.0656C223.239 28.3747 224.614 27 226.305 27Z" fill="#497D8A"/>
<path d="M232.919 33.8234C232.919 34.9263 232.023 35.8225 230.92 35.8225C229.817 35.8225 228.921 34.9263 228.921 33.8234C228.921 32.7204 229.817 31.8242 230.92 31.8242C232.023 31.8242 232.919 32.7204 232.919 33.8234Z" fill="#E4003E"/>
<path d="M238.701 33.8234C238.701 34.9263 237.805 35.8225 236.702 35.8225C235.599 35.8225 234.703 34.9263 234.703 33.8234C234.703 32.7204 235.599 31.8242 236.702 31.8242C237.805 31.8242 238.701 32.7204 238.701 33.8234Z" fill="#C7D534"/>
<path d="M244.479 33.8234C244.479 34.9263 243.583 35.8225 242.48 35.8225C241.377 35.8225 240.481 34.9263 240.481 33.8234C240.481 32.7204 241.377 31.8242 242.48 31.8242C243.583 31.8242 244.479 32.7204 244.479 33.8234Z" fill="#FECB23"/>
<path d="M286.129 31.0156H251.134V36.717H286.129V31.0156Z" fill="white"/>
<path d="M287.208 45.375H228.426V78.8615H287.208V45.375Z" fill="#DDF1FD"/>
<path d="M255.874 82.1289H239.301V84.1118H255.874V82.1289Z" fill="#E2E1E1"/>
<path d="M266.75 86.9766H228.426V88.9595H266.75V86.9766Z" fill="#E2E1E1"/>
<path d="M266.75 91.8242H228.426V93.8071H266.75V91.8242Z" fill="#E2E1E1"/>
<path d="M266.75 96.6758H228.426V98.6587H266.75V96.6758Z" fill="#E2E1E1"/>
<path d="M266.75 101.523H228.426V103.506H266.75V101.523Z" fill="#E2E1E1"/>
<path d="M285.675 82.1289H273.944V84.1118H285.675V82.1289Z" fill="#E2E1E1"/>
<path d="M285.675 86.9766H273.944V88.9595H285.675V86.9766Z" fill="#E2E1E1"/>
<path d="M285.675 91.8242H273.944V93.8071H285.675V91.8242Z" fill="#E2E1E1"/>
<path d="M285.675 96.6758H273.944V98.6587H285.675V96.6758Z" fill="#E2E1E1"/>
<path d="M285.675 101.523H273.944V103.506H285.675V101.523Z" fill="#E2E1E1"/>
<path d="M287.208 45.375H228.426V78.8615H287.208V45.375Z" stroke="#C9E8FB" stroke-width="2" stroke-miterlimit="10"/>
<path d="M287.208 45.375L228.426 78.8615" stroke="#C9E8FB" stroke-width="2" stroke-miterlimit="10"/>
<path d="M228.426 45.375L287.208 78.8615" stroke="#C9E8FB" stroke-width="2" stroke-miterlimit="10"/>
<path d="M258.928 120.092C259.707 120.092 260.339 119.46 260.339 118.681C260.339 117.901 259.707 117.27 258.928 117.27C258.148 117.27 257.516 117.901 257.516 118.681C257.516 119.46 258.148 120.092 258.928 120.092Z" fill="#C0C0C0"/>
<path d="M29.4805 44.5508V45.582H20.832V44.5508H24.5234V43.4258H25.8125V44.5508H29.4805ZM30.0312 50.2227V51.2773H27.6875V54.0547H26.375V51.2773H23.9961V54.0547H22.6953V51.2773H20.3516V50.2227H30.0312ZM25.168 46.0625C27.4062 46.0625 28.7539 46.6953 28.7539 47.8555C28.7539 49.0039 27.4062 49.6484 25.168 49.6484C22.9297 49.6484 21.582 49.0039 21.582 47.8555C21.582 46.6953 22.9297 46.0625 25.168 46.0625ZM25.168 47.0469C23.7031 47.0469 22.9297 47.3164 22.9414 47.8555C22.9297 48.3828 23.7031 48.6641 25.168 48.6523C26.6328 48.6641 27.4062 48.3828 27.4062 47.8555C27.4062 47.3164 26.6328 47.0469 25.168 47.0469ZM40.1623 51.6406V52.7188H30.4827V51.6406H40.1623ZM32.8498 44.1641V45.9805H37.76V44.1641H39.0608V49.7539H31.5491V44.1641H32.8498ZM32.8498 48.7344H37.76V47H32.8498V48.7344ZM48.9692 43.4492V45.582H50.4458V46.6602H48.9692V48.7695H47.6684V43.4492H48.9692ZM48.9692 49.2266V52.0039H43.3442V52.8828H49.2973V53.9141H42.0552V51.0547H47.6684V50.2344H42.0434V49.2266H48.9692ZM43.5434 43.8008C45.1606 43.8008 46.3442 44.7734 46.3559 46.1797C46.3442 47.5625 45.1606 48.5469 43.5434 48.5469C41.9263 48.5469 40.7192 47.5625 40.7309 46.1797C40.7192 44.7734 41.9263 43.8008 43.5434 43.8008ZM43.5434 44.8555C42.6528 44.8555 41.9966 45.3711 42.0083 46.1797C41.9966 46.9766 42.6528 47.5156 43.5434 47.5156C44.4341 47.5156 45.0903 46.9766 45.0903 46.1797C45.0903 45.3711 44.4341 44.8555 43.5434 44.8555ZM53.2409 44.2461C54.489 44.2461 55.4441 45.0898 55.6433 46.3789H56.487V43.6367H57.6941V51.0312H56.487V47.4453H55.6316C55.4148 48.6875 54.4714 49.5078 53.2409 49.5078C51.8347 49.5078 50.8152 48.4297 50.8152 46.8828C50.8152 45.3125 51.8347 44.2461 53.2409 44.2461ZM53.2409 45.3594C52.5027 45.3594 51.9753 45.957 51.987 46.8828C51.9753 47.8086 52.5027 48.3828 53.2409 48.3828C53.9675 48.3828 54.5066 47.8086 54.5183 46.8828C54.5066 45.957 53.9675 45.3594 53.2409 45.3594ZM59.8034 43.4492V51.3477H58.5613V43.4492H59.8034ZM60.0964 52.7773V53.832H52.7136V50.3281H54.0144V52.7773H60.0964ZM69.8877 43.4492V54.043H68.5634V43.4492H69.8877ZM63.5009 46.3555C63.5009 47.5215 63.6474 48.9688 64.3798 50.0469C65.1005 48.9863 65.2353 47.5566 65.247 46.3555V44.3281H66.4892V46.3555C66.4892 47.9375 66.7588 49.7773 68.0947 50.7734L67.2978 51.6992C66.5537 51.1484 66.1142 50.293 65.8564 49.3203C65.5986 50.3223 65.1474 51.2188 64.3798 51.7812C63.6181 51.2188 63.1611 50.3223 62.9033 49.3203C62.6455 50.2754 62.2236 51.1074 61.5205 51.6523L60.6767 50.7734C62.0127 49.7422 62.2822 47.9141 62.2822 46.3555V44.3281H63.5009V46.3555ZM77.3881 49.4727V51.6992H79.4975V49.4727H80.7983V51.6992H83.2944V52.7539H73.6147V51.6992H76.0991V49.4727H77.3881ZM79.0873 44.8672C79.0873 46.4023 80.6928 47.9141 82.9194 48.2539L82.392 49.332C80.5698 49.0098 79.0991 48.0195 78.3959 46.6719C77.687 48.0078 76.2104 49.0156 74.4116 49.332L73.8842 48.2539C76.0991 47.9023 77.6928 46.3789 77.7045 44.8672V44.082H79.0873V44.8672ZM89.9567 44.293V45.3477H89.0075V48.0781C89.4821 48.043 89.9509 47.9961 90.402 47.9375L90.4841 48.9102C88.3278 49.2734 85.8434 49.3203 84.0622 49.3203L83.9216 48.2539C84.2966 48.2539 84.7009 48.2539 85.1286 48.2422V45.3477H84.2028V44.293H89.9567ZM92.57 43.4609V49.8828H91.2575V43.4609H92.57ZM89.0075 50.0938C91.2575 50.0938 92.6286 50.7969 92.6286 52.0508C92.6286 53.3047 91.2575 54.0312 89.0075 54.0312C86.7458 54.0312 85.3864 53.3047 85.3864 52.0508C85.3864 50.7969 86.7458 50.0938 89.0075 50.0938ZM89.0075 51.0898C87.5075 51.0898 86.6755 51.4297 86.6755 52.0508C86.6755 52.6836 87.5075 53.0234 89.0075 53.0234C90.4958 53.0234 91.3278 52.6836 91.3278 52.0508C91.3278 51.4297 90.4958 51.0898 89.0075 51.0898ZM86.3825 48.2188C86.8337 48.2129 87.2966 48.1953 87.7653 48.1602V45.3477H86.3825V48.2188ZM103.533 47.8789V48.9336H93.8769V47.8789H98.037V47.082H95.0956V43.7773H102.291V47.082H99.3261V47.8789H103.533ZM96.373 44.7969V46.0625H100.99V44.7969H96.373ZM102.326 49.5781V52.1797H96.3027V52.9531H102.619V53.9492H95.0253V51.2422H101.049V50.5625H95.0136V49.5781H102.326Z" fill="white"/>
<path d="M36.8223 60.4902V79.9336H34.459V60.4902H36.8223ZM30.8496 62.1875V69.4707H24.168V73.3809C27.2295 73.3594 29.8721 73.209 32.8906 72.6934L33.1055 74.6484C29.7969 75.2285 26.8965 75.3359 23.416 75.3359H21.7188V67.5801H28.4219V64.1211H21.6973V62.1875H30.8496ZM54.9018 66.7637V68.6973H41.4096V61.4141H43.7944V66.7637H54.9018ZM56.9213 71.082V73.0156H52.6674V79.9121H50.2612V73.0156H45.8784V79.9121H43.4936V73.0156H39.2182V71.082H56.9213ZM74.0555 60.4902V70.2441H71.6708V66.4629H68.1688C67.6962 68.5791 65.7196 69.9863 63.1845 69.9863C60.2411 69.9863 58.0497 68.1387 58.0497 65.4961C58.0497 62.918 60.2411 61.0918 63.1845 61.0918C65.7089 61.0918 67.6747 62.4775 68.1688 64.5293H71.6708V60.4902H74.0555ZM63.1845 63.0254C61.5087 63.0254 60.327 64.0137 60.327 65.4961C60.327 67.0645 61.5087 68.0312 63.1845 68.0312C64.7958 68.0312 65.9774 67.0645 65.9989 65.4961C65.9774 64.0137 64.7958 63.0254 63.1845 63.0254ZM74.0555 71.1895V76.2168H63.6571V77.7852H74.6786V79.6758H61.2723V74.4551H71.6708V73.0371H61.2509V71.1895H74.0555Z" fill="#7FB5FF"/>
<path d="M96.4646 60.4902V66.1836H99.1716V68.1602H96.4646V74.6914H94.0798V60.4902H96.4646ZM97.238 77.5918V79.5254H84.0252V73.209H86.4099V77.5918H97.238ZM86.6033 61.7793C89.5466 61.7793 91.824 63.8203 91.8455 66.6777C91.824 69.4922 89.5466 71.5547 86.6033 71.5547C83.6599 71.5547 81.3396 69.4922 81.3611 66.6777C81.3396 63.8203 83.6599 61.7793 86.6033 61.7793ZM86.6033 63.8633C84.9705 63.8633 83.6814 64.959 83.7029 66.6777C83.6814 68.3535 84.9705 69.4492 86.6033 69.4492C88.2361 69.4492 89.5037 68.3535 89.5037 66.6777C89.5037 64.959 88.2361 63.8633 86.6033 63.8633ZM116.392 60.4902V79.9121H114.093V70.0938H111.945V78.9238H109.71V60.8555H111.945V68.1387H114.093V60.4902H116.392ZM102.964 62.7246V72.9727C104.64 72.9404 106.477 72.8008 108.507 72.3926L108.743 74.4766C106.122 74.9492 103.909 75.0781 101.847 75.0781H100.558V62.7246H102.964Z" fill="white"/>
<rect x="20" y="92" width="86" height="28" rx="14" fill="#3F536F"/>
<path d="M40.3969 103.961C40.3969 105.602 41.3695 107.465 43.0453 108.238L42.3188 109.27C41.1234 108.707 40.2387 107.57 39.7641 106.246C39.2836 107.699 38.3578 108.941 37.1391 109.527L36.3773 108.508C38.0648 107.711 39.0844 105.719 39.0961 103.961V103.07H36.7875V101.992H42.6117V103.07H40.3969V103.961ZM44.8969 100.949V105.074H46.5258V106.164H44.8969V111.543H43.5961V100.949H44.8969ZM50.0358 103.727C50.0358 105.438 50.6334 107.219 52.0631 108.121L51.3483 109.117C50.3932 108.543 49.7721 107.553 49.4264 106.387C49.0397 107.67 48.36 108.754 47.3639 109.363L46.5553 108.391C48.0905 107.453 48.7819 105.59 48.7819 103.785V101.887H50.0358V103.727ZM55.8717 100.949V111.543H54.6178V100.949H55.8717ZM53.6686 101.137V111.027H52.4381V105.672H50.9264V104.594H52.4381V101.137H53.6686ZM65.6747 100.949V111.543H64.3622V100.949H65.6747ZM63.4364 102.59V103.633H57.0848V102.59H59.6044V101.078H60.9286V102.59H63.4364ZM60.2841 104.312C61.8309 104.312 62.9794 105.344 62.9794 106.809C62.9794 108.273 61.8309 109.293 60.2841 109.293C58.7255 109.293 57.5888 108.273 57.5888 106.809C57.5888 105.344 58.7255 104.312 60.2841 104.312ZM60.2841 105.379C59.4403 105.379 58.8309 105.941 58.8309 106.809C58.8309 107.676 59.4403 108.227 60.2841 108.215C61.1278 108.227 61.7255 107.676 61.7255 106.809C61.7255 105.941 61.1278 105.379 60.2841 105.379ZM79.2806 109.199V110.266H69.6009V109.199H73.7728V107.137H70.6673V101.652H71.9681V103.387H76.8783V101.652H78.1791V107.137H75.0619V109.199H79.2806ZM71.9681 106.082H76.8783V104.43H71.9681V106.082ZM88.5797 100.949V111.543H87.2672V100.949H88.5797ZM85.4156 102.074C85.4156 105.227 84.1969 107.91 80.482 109.668L79.8023 108.625C82.5738 107.307 83.8629 105.514 84.0914 103.105H80.3414V102.074H85.4156Z" fill="white"/>
</svg>
