<svg width="276" height="118" viewBox="0 0 276 118" fill="none" xmlns="http://www.w3.org/2000/svg">
<g clip-path="url(#clip0_2107_131901)">
<path d="M174.942 91.2536L176.624 91.7599L177.753 89.1945L180.305 89.6372L181.47 87.8535L182.39 88.4316L180.832 90.818L178.414 90.3989L177.238 93.0679L174.708 92.305L174.942 91.2536Z" fill="#50BFA5"/>
<path d="M171.324 161.945C171.324 161.945 197.195 157.699 202.823 153.201C208.45 148.702 202.88 146.673 202.88 146.673C202.88 146.673 215.877 140.136 215.727 135.69C215.577 131.245 209.119 133.505 209.119 133.505C209.119 133.505 220.07 121.252 217.477 118.925C212.648 114.59 199.989 127.328 199.989 127.328C199.989 127.328 203.748 121.27 199.788 120.312C193.818 118.866 189.411 133.803 189.411 133.803C189.411 133.803 190.53 127.905 186.414 128.69C179.028 130.099 171.322 161.943 171.322 161.943L171.324 161.945Z" fill="#50BFA5"/>
<path d="M186.418 128.69C190.545 127.958 189.415 133.803 189.415 133.803C189.415 133.803 193.822 118.866 199.792 120.312C203.752 121.27 199.993 127.328 199.993 127.328C199.993 127.328 212.653 114.59 217.481 118.925L171.414 161.952C172.234 157.842 179.498 129.918 186.418 128.691V128.69Z" fill="#3C8F7C"/>
<path d="M119.983 21.0583C124.569 21.7989 125.932 27.7055 122.119 30.3474C121.434 30.8219 120.96 31.5353 120.758 32.3336L120.064 35.0814C119.873 35.8385 119.121 36.3247 118.336 36.1975L116.599 35.9173C115.814 35.7902 115.261 35.0944 115.327 34.3162C115.568 31.48 115.866 30.451 114.926 29.1854C112.177 25.4851 115.395 20.3166 119.982 21.0583H119.983Z" fill="url(#paint0_linear_2107_131901)"/>
<path d="M119.511 33.0683C119.809 30.6383 120.228 28.0729 120.371 27.3453C123 27.4877 122 24.7681 120.787 25.8736C120.442 26.1891 120.278 26.6165 120.17 27.0839C119.297 27.0062 118.444 26.7625 117.666 26.3681C117.708 25.7688 117.768 25.3144 117.598 24.9306C117.34 24.3513 116.593 24.1936 116.288 24.7575C116.174 24.9694 116.153 25.2402 116.236 25.4651C116.413 25.9443 116.943 26.261 117.406 26.5094C117.268 28.4414 117.076 30.3887 116.835 32.3053L117.083 32.336C117.321 30.4499 117.51 28.5344 117.648 26.633C118.421 27.0097 119.261 27.2452 120.121 27.3253C119.941 28.2554 119.544 30.756 119.263 33.0376L119.512 33.0671L119.511 33.0683ZM121.62 26.7719C121.386 27.0192 120.995 27.1275 120.424 27.1016C120.522 26.6883 120.668 26.3175 120.958 26.0538C121.61 25.458 122.011 26.3575 121.619 26.7719H121.62ZM117.369 25.0295C117.513 25.3521 117.458 25.7653 117.425 26.2398C117.05 26.0302 116.613 25.7677 116.473 25.3839C116.373 25.1142 116.485 24.734 116.764 24.6633C116.794 24.6563 117.269 24.8046 117.369 25.0307V25.0295Z" fill="#FAE0B2"/>
<path d="M120.777 32.2683C120.771 32.2907 120.762 32.3131 120.756 32.3366L120.062 35.0845C119.871 35.8415 119.119 36.3278 118.334 36.2006L116.597 35.9204C115.812 35.7933 115.259 35.0975 115.325 34.3192C115.432 33.0572 115.55 32.1541 115.566 31.4277L120.776 32.2683H120.777Z" fill="#96D9C9"/>
<path d="M123.377 19.0092L124.748 16.5533C124.882 16.3155 124.793 16.0176 124.55 15.8869C124.308 15.7562 124.004 15.8434 123.871 16.0812L122.5 18.5371C122.367 18.7749 122.456 19.0728 122.698 19.2035C122.941 19.3341 123.245 19.2458 123.377 19.0092Z" fill="#FAE0B2"/>
<path d="M126.378 24.9503L129.367 24.6936C129.641 24.6701 129.845 24.4323 129.821 24.1615C129.797 23.8919 129.555 23.6917 129.279 23.7153L126.29 23.9719C126.015 23.9955 125.812 24.2333 125.836 24.5041C125.86 24.7737 126.102 24.9738 126.378 24.9503Z" fill="#FAE0B2"/>
<path d="M129.341 33.9428C129.535 33.7497 129.533 33.4389 129.336 33.2482C128.601 32.5359 127.793 31.8884 126.934 31.3256C126.705 31.1749 126.394 31.2361 126.24 31.461C126.087 31.6859 126.149 31.9908 126.378 32.1415C127.184 32.6701 127.943 33.2776 128.633 33.9463C128.828 34.1359 129.145 34.1359 129.341 33.9416V33.9428Z" fill="#FAE0B2"/>
<path d="M115.992 18.8761C116.26 18.8066 116.418 18.537 116.346 18.2757C116.008 17.0324 115.8 15.7503 115.73 14.4647C115.715 14.1939 115.479 13.9855 115.203 14.0008C114.927 14.0149 114.716 14.2469 114.73 14.5176C114.805 15.8704 115.023 17.2208 115.379 18.53C115.451 18.7937 115.727 18.9467 115.991 18.8773L115.992 18.8761Z" fill="#FAE0B2"/>
<path d="M112.912 22.6468C112.992 22.3866 112.843 22.1135 112.578 22.0346L109.47 21.1151C109.205 21.0374 108.927 21.1834 108.846 21.4436C108.767 21.7026 108.916 21.9769 109.181 22.0546L112.288 22.9741C112.552 23.0518 112.832 22.9058 112.911 22.6456L112.912 22.6468Z" fill="#FAE0B2"/>
<path d="M107.812 30.7605C107.857 30.7605 107.902 30.7546 107.948 30.7417C109.024 30.445 110.072 30.0329 111.06 29.5172C111.304 29.3901 111.396 29.0934 111.267 28.8532C111.137 28.6142 110.834 28.5224 110.59 28.6496C109.665 29.1323 108.685 29.5172 107.677 29.7951C107.41 29.8681 107.256 30.1389 107.331 30.4002C107.394 30.6169 107.594 30.7581 107.812 30.7581V30.7605Z" fill="#FAE0B2"/>
<path d="M69.2268 66.2225L70.3823 63.4657L73.2882 62.8635C73.6189 62.7948 73.7285 62.3728 73.473 62.1498L71.2319 60.1888L71.5617 57.2144C71.5997 56.8754 71.2354 56.6407 70.9464 56.8165L68.4064 58.3617L65.7047 57.1261C65.3971 56.9851 65.0629 57.2617 65.1389 57.5935L65.8099 60.5091L63.8102 62.7199C63.5821 62.9715 63.7395 63.3774 64.0763 63.4068L67.0317 63.6638L68.4975 66.2662C68.6646 66.5624 69.096 66.5374 69.2277 66.2234L69.2268 66.2225Z" fill="url(#paint1_linear_2107_131901)"/>
<path d="M64.2985 25.6609L64.9428 28.2086L69.2334 27.6435L70.6444 31.2532L73.9259 31.3462L73.8779 32.9756L69.4889 32.852L68.1523 29.4307L63.689 30.0193L62.7183 26.186L64.2985 25.6609Z" fill="url(#paint2_linear_2107_131901)"/>
<path d="M88.002 61.5382L83.3982 60.3491L86.5195 101.191L92.0433 101.371L89.2572 63.0213C89.2057 62.3145 88.7013 61.7184 88.0036 61.5382H88.002Z" fill="#2E608E"/>
<path d="M86.1139 102.355C86.2171 102.365 86.3218 102.363 86.4298 102.351C87.3434 102.245 88.0218 101.353 87.9413 100.357L84.8764 61.9532C84.7974 60.9587 83.9917 60.2376 83.0765 60.3436C82.1612 60.4495 81.4844 61.3413 81.565 62.3374L84.6298 100.741C84.7007 101.62 85.3373 102.284 86.1139 102.355Z" fill="#E8E8E8"/>
<path d="M128.487 104.402C128.485 104.431 128.483 104.459 128.48 104.488C128.335 106.05 127.103 107.219 125.725 107.098L86.8419 103.683C85.4642 103.563 84.4651 102.197 84.6085 100.635C84.615 100.568 84.623 100.503 84.6327 100.438L128.485 104.402H128.487Z" fill="#E8E8E8"/>
<path d="M125.273 130.984C125.536 130.211 108.566 123.144 107.807 123.952C106.463 125.38 116.989 152.187 116.989 152.187L104.897 155.813C104.897 155.813 92.3266 124.843 92.8503 119.177C93.3756 113.512 99.6729 107.075 113.318 111.195C126.963 115.314 125.275 130.984 125.275 130.984H125.273Z" fill="#355389"/>
<path d="M94.3684 105.614C96.207 104.651 100.978 104.618 106.227 104.951C116.457 105.601 126.554 107.578 136.287 110.74L142.799 112.857L142.778 106.307C142.778 106.307 163.494 102.905 164.214 107.943C165.3 115.53 163.953 130.933 157.05 134.371C135.61 145.05 105.566 117.359 105.458 120.981C105.311 125.847 101.131 143.953 100.063 151.879C97.09 151.93 91.9835 151.928 89.7695 151.428C89.3392 135.9 89.1362 108.353 94.3684 105.614Z" fill="url(#paint3_linear_2107_131901)"/>
<path d="M135.932 42.289C136.43 37.8253 136.954 33.3459 140.724 30.0744C143.776 27.4275 147.655 26.9785 151.491 28.3952C162.36 32.4082 156.761 41.8795 170.619 51.4297C174.926 54.3976 179.672 56.4278 182.914 60.4235C187.451 66.0161 185.738 72.744 181.602 77.2361C161.812 98.7274 139.717 69.7034 138.131 62.7351C136.952 57.5521 135.613 45.1604 135.932 42.2874V42.289Z" fill="url(#paint4_linear_2107_131901)"/>
<path d="M139.947 67.3868C141.563 64.4633 143.229 62.1421 143.229 62.1421C144.907 59.2169 149.238 57.7385 149.238 57.7385C149.238 57.7385 150.687 57.767 152.352 57.8476C152.455 58.118 152.559 58.3125 152.666 58.39C153.291 58.8501 156.875 58.2556 159.189 59.7988C166.948 66.3243 164.801 97.9557 164.19 107.946L140.563 108.165C140.563 108.165 143.542 86.6693 138.74 81.1462C135.396 77.3008 137.548 71.7272 139.947 67.3884V67.3868Z" fill="url(#paint5_linear_2107_131901)"/>
<path d="M150.602 47.0349C150.602 47.0349 151.901 56.1361 152.808 58.3482C153.715 60.5602 147.821 65.2895 142.915 66.7252C138.01 68.1609 144.414 61.8394 144.211 59.4756C144.008 57.1117 143.117 45.917 143.117 45.917L150.603 47.0349H150.602Z" fill="#FFDCC7"/>
<path d="M143.362 49.1268C143.219 47.2752 143.114 45.917 143.114 45.917L150.601 47.0349C150.601 47.0349 150.789 48.1038 150.999 49.6169C147.965 51.3452 145.235 50.7997 143.364 49.1284L143.362 49.1268Z" fill="#FFD2B6"/>
<path d="M148.255 30.4098C148.255 30.4098 151.205 31.0628 153.028 33.7903C154.85 36.5178 156.099 44.5502 150.1 48.2992C144.099 52.0481 139.432 46.7449 139.355 41.5728C139.278 36.4008 140.407 29.4974 148.256 30.4098H148.255Z" fill="#FFDCC7"/>
<path d="M137.982 39.9542C138.494 41.2018 139.509 41.9765 140.25 41.684C140.992 41.3915 141.177 40.1424 140.665 38.8948C140.152 37.6473 139.137 36.8725 138.396 37.165C137.654 37.4575 137.469 38.7067 137.982 39.9542Z" fill="#FFDCC7"/>
<path d="M147.371 30.2416C147.371 30.2416 151.132 38.5207 154.437 39.2607C157.742 40.0006 157.693 44.1655 157.693 44.1655C157.693 44.1655 157.619 34.5456 154.522 32.3383C151.425 30.131 147.369 30.2416 147.369 30.2416H147.371Z" fill="url(#paint6_linear_2107_131901)"/>
<path d="M153.118 40.981C152.683 42.325 153.081 43.65 154.007 43.9378C154.934 44.2256 156.038 43.3702 156.473 42.0262C156.908 40.6822 156.51 39.3572 155.583 39.0694C154.657 38.7816 153.553 39.637 153.118 40.981Z" fill="#FFDCC7"/>
<path d="M110.858 100.753C112.276 100.25 114.385 100.187 114.349 100.003C114.208 99.2602 107.944 101.645 108.79 100.56C109.261 99.9559 113.948 97.8165 115.087 98.1707C116.193 98.5138 123.452 100.512 123.452 100.512L143.29 95.9508C143.29 95.9508 148.297 84.7861 148.786 75.1931C152.926 75.7418 155.743 76.7458 159.341 78.7049C157.606 87.8789 153.39 102.748 148.728 105.537C146.767 106.711 123.355 104.133 123.355 104.133C123.355 104.133 118.196 103.776 117.353 103.458C116.713 103.216 115.068 102.307 114.172 102.059C112.137 101.493 108.51 102.913 108.498 102.522C108.49 102.238 109.41 101.27 110.859 100.756L110.858 100.753Z" fill="#FFDCC7"/>
<path d="M148.664 64.9423C148.854 61.9902 149.993 59.141 153.195 58.2223C155.179 57.6531 157.404 58.197 158.99 59.4683C160.875 60.9799 161.402 63.4038 161.394 65.6981C161.374 70.9081 161.012 76.3109 160.042 81.4403C156.445 79.4812 152.246 78.3032 148.106 77.7545C148.108 77.7245 148.412 68.8415 148.665 64.9407L148.664 64.9423Z" fill="url(#paint7_linear_2107_131901)"/>
<path d="M211.52 97.7183L240.346 92.4514C240.925 92.3461 241.307 91.7993 241.2 91.2317L237.588 72.2044C237.481 71.6368 236.924 71.2618 236.345 71.3671L207.52 76.6341C206.941 76.7393 206.559 77.2861 206.666 77.8537L210.277 96.881C210.385 97.4486 210.942 97.8236 211.52 97.7183Z" fill="#F7CC7F"/>
<path d="M225.232 75.9644L234.007 74.3609C234.586 74.2557 234.968 73.7088 234.86 73.1412L234.311 70.2454C234.203 69.6778 233.646 69.3029 233.068 69.4081L224.293 71.0116C223.714 71.1168 223.332 71.6637 223.439 72.2313L223.989 75.1271C224.096 75.6947 224.654 76.0696 225.232 75.9644Z" fill="#F7CC7F"/>
<path d="M210.206 96.9905C210.355 97.5106 210.885 97.8337 211.427 97.7344L240.441 92.4333C240.98 92.334 241.356 91.8509 241.307 91.3129L239.79 74.2567C239.764 73.9633 239.611 73.6935 239.373 73.5142C239.133 73.3364 238.828 73.2652 238.533 73.3186L206.301 79.208C206.007 79.2614 205.749 79.4348 205.59 79.6852C205.431 79.9357 205.388 80.238 205.469 80.5211L210.206 96.989V96.9905Z" fill="url(#paint8_linear_2107_131901)"/>
<path d="M163.834 35.2312L188.442 43.8446C189.235 44.1224 190.108 43.7162 190.391 42.938L194.933 30.4431C195.216 29.6649 194.803 28.8089 194.009 28.5311L169.401 19.9178C168.608 19.6399 167.736 20.0461 167.453 20.8243L162.91 33.3181C162.627 34.0963 163.041 34.9522 163.834 35.2301V35.2312Z" fill="url(#paint9_linear_2107_131901)"/>
<path d="M180.15 32.0198C179.245 34.5086 180.567 37.2471 183.105 38.1348C185.641 39.0225 188.432 37.7251 189.337 35.235C190.241 32.7462 188.919 30.0077 186.382 29.12C183.845 28.2323 181.054 29.5297 180.15 32.0198Z" fill="white"/>
<path d="M184.039 31.3495C183.772 32.083 184.162 32.8906 184.91 33.1532C185.657 33.4146 186.48 33.0319 186.748 32.2985C187.015 31.565 186.624 30.7573 185.877 30.4948C185.129 30.2334 184.306 30.6161 184.039 31.3495Z" fill="#86B1F2"/>
<path d="M185.166 34.1901L184.047 33.7985C183.161 33.4884 182.186 33.9421 181.87 34.8115L181.697 35.2883L186.025 36.8032L186.198 36.3263C186.514 35.457 186.052 34.5002 185.166 34.1901Z" fill="#86B1F2"/>
<path d="M179.54 29.4069C179.802 29.4069 180.038 29.2444 180.125 29.0019C180.24 28.6852 180.071 28.3355 179.748 28.2225L168.991 24.4574C168.924 24.4339 168.853 24.4221 168.782 24.4221C168.519 24.4221 168.284 24.5846 168.197 24.8271C168.081 25.1438 168.251 25.4935 168.573 25.6065L179.331 29.3716C179.398 29.3951 179.469 29.4069 179.54 29.4069Z" fill="white"/>
<path d="M176.634 32.0391C176.897 32.0391 177.132 31.8766 177.22 31.6341C177.335 31.3174 177.166 30.9677 176.843 30.8547L168.441 27.9137C168.373 27.8902 168.303 27.8784 168.232 27.8784C167.969 27.8784 167.734 28.0409 167.646 28.2834C167.591 28.4365 167.6 28.6025 167.67 28.7496C167.741 28.8968 167.867 29.0087 168.023 29.0628L176.425 32.0038C176.493 32.0273 176.563 32.0391 176.634 32.0391Z" fill="white"/>
<path d="M118.256 77.6179L122.76 66.5299C122.986 65.9718 122.709 65.3396 122.141 65.1171L105.932 58.7783C105.363 58.5558 104.719 58.8278 104.492 59.3858L99.9883 70.4739C99.7615 71.0319 100.039 71.6642 100.607 71.8867L116.815 78.2254C117.383 78.4479 118.028 78.1759 118.254 77.6179H118.256Z" fill="url(#paint10_linear_2107_131901)"/>
<path d="M102.97 71.208L107.017 61.2443C107.082 61.0842 107.002 60.9029 106.839 60.8393C106.676 60.7757 106.491 60.8535 106.427 61.0136L102.38 70.9773C102.315 71.1374 102.394 71.3187 102.557 71.3823C102.72 71.4458 102.905 71.3681 102.97 71.208Z" fill="#4F7CCD"/>
<path d="M104.894 69.8945L108.218 61.7133C108.282 61.5532 108.203 61.3719 108.04 61.3083C107.877 61.2447 107.692 61.3224 107.627 61.4826L104.304 69.6638C104.239 69.8239 104.318 70.0052 104.481 70.0688C104.644 70.1324 104.829 70.0547 104.894 69.8945Z" fill="#4F7CCD"/>
<path d="M105.376 72.1492L109.423 62.1855C109.488 62.0254 109.409 61.8441 109.246 61.7805C109.083 61.7169 108.898 61.7946 108.833 61.9547L104.786 71.9184C104.721 72.0785 104.8 72.2599 104.964 72.3234C105.127 72.387 105.312 72.3093 105.376 72.1492Z" fill="#4F7CCD"/>
<path d="M107.501 70.3472L110.625 62.6569C110.69 62.4968 110.61 62.3155 110.447 62.2519C110.284 62.1883 110.099 62.266 110.035 62.4262L106.91 70.1165C106.845 70.2766 106.925 70.4579 107.088 70.5215C107.251 70.585 107.436 70.5073 107.501 70.3472Z" fill="#4F7CCD"/>
<path d="M103.078 60.1801L103.159 59.98C103.189 59.9058 103.271 59.8681 103.342 59.8964L104.88 60.498C104.951 60.5251 104.984 60.6075 104.954 60.6816L104.873 60.8818C104.843 60.9559 104.761 60.9936 104.69 60.9654L103.152 60.3638C103.081 60.3367 103.048 60.2543 103.078 60.1801Z" fill="#355389"/>
<path d="M102.728 61.0368L102.81 60.8366C102.84 60.7625 102.921 60.7248 102.992 60.753L104.53 61.3547C104.601 61.3817 104.635 61.4641 104.605 61.5383L104.523 61.7385C104.493 61.8126 104.411 61.8503 104.341 61.8221L102.802 61.2204C102.732 61.1922 102.699 61.111 102.728 61.0368Z" fill="#355389"/>
<path d="M102.379 61.8964L102.461 61.6963C102.491 61.6221 102.572 61.5844 102.643 61.6127L104.181 62.2143C104.252 62.2414 104.286 62.3238 104.256 62.3979L104.174 62.5981C104.144 62.6723 104.063 62.7099 103.992 62.6817L102.454 62.0801C102.383 62.053 102.349 61.9706 102.379 61.8964Z" fill="#355389"/>
<path d="M102.03 62.7565L102.111 62.5564C102.141 62.4822 102.223 62.4445 102.294 62.4728L103.832 63.0744C103.903 63.1026 103.936 63.1839 103.906 63.2581L103.825 63.4582C103.795 63.5324 103.713 63.57 103.642 63.5418L102.104 62.9402C102.033 62.9119 102 62.8307 102.03 62.7565Z" fill="#355389"/>
<path d="M101.683 63.6132L101.765 63.413C101.795 63.3389 101.876 63.3012 101.947 63.3295L103.485 63.9311C103.556 63.9593 103.589 64.0417 103.559 64.1147L103.478 64.3149C103.448 64.3891 103.366 64.4267 103.295 64.3985L101.757 63.7969C101.687 63.7686 101.653 63.6874 101.683 63.6132Z" fill="#355389"/>
<path d="M101.334 64.4714L101.416 64.2712C101.446 64.197 101.527 64.1594 101.598 64.1876L103.136 64.7892C103.207 64.8175 103.241 64.8987 103.211 64.9729L103.129 65.173C103.099 65.2472 103.018 65.2849 102.947 65.2566L101.409 64.655C101.338 64.6268 101.304 64.5455 101.334 64.4714Z" fill="#355389"/>
<path d="M100.985 65.331L101.066 65.1308C101.096 65.0567 101.178 65.019 101.249 65.0472L102.787 65.6488C102.858 65.6771 102.891 65.7583 102.861 65.8325L102.78 66.0327C102.75 66.1068 102.668 66.1445 102.597 66.1162L101.059 65.5146C100.988 65.4864 100.955 65.4051 100.985 65.331Z" fill="#355389"/>
<path d="M100.639 66.1886L100.721 65.9885C100.751 65.9143 100.833 65.8766 100.903 65.9049L102.442 66.5065C102.512 66.5348 102.546 66.616 102.516 66.6902L102.434 66.8903C102.404 66.9645 102.323 67.0022 102.252 66.9739L100.714 66.3723C100.643 66.344 100.609 66.2628 100.639 66.1886Z" fill="#355389"/>
<path d="M100.291 67.0466L100.372 66.8464C100.402 66.7722 100.484 66.7346 100.555 66.7628L102.093 67.3644C102.164 67.3927 102.197 67.4739 102.167 67.5481L102.086 67.7482C102.056 67.8224 101.974 67.8601 101.903 67.8318L100.365 67.2302C100.294 67.202 100.261 67.1207 100.291 67.0466Z" fill="#355389"/>
<path d="M99.9414 67.9042L100.023 67.7041C100.053 67.6299 100.135 67.5922 100.205 67.6205L101.743 68.2221C101.814 68.2503 101.848 68.3316 101.818 68.4058L101.736 68.6059C101.706 68.6801 101.625 68.7177 101.554 68.6895L100.016 68.0879C99.945 68.0596 99.9114 67.9772 99.9414 67.9042Z" fill="#355389"/>
<path d="M99.5892 68.7621L99.6708 68.5608C99.7007 68.4866 99.7823 68.4489 99.8531 68.4772L101.391 69.0788C101.462 69.107 101.496 69.1883 101.466 69.2624L101.384 69.4626C101.354 69.5368 101.273 69.5744 101.202 69.5462L99.6636 68.9446C99.5928 68.9163 99.5592 68.8351 99.5892 68.7609V68.7621Z" fill="#355389"/>
<path d="M99.2431 69.621L99.3247 69.4209C99.3547 69.3467 99.4363 69.309 99.5071 69.3373L101.045 69.9389C101.116 69.966 101.15 70.0484 101.12 70.1226L101.038 70.3227C101.008 70.3969 100.926 70.4345 100.856 70.4063L99.3175 69.8047C99.2467 69.7764 99.2131 69.6952 99.2431 69.621Z" fill="#355389"/>
<path d="M94.9906 68.7367L101.423 77.7244C101.437 77.7445 101.448 77.7668 101.456 77.7904L102.112 79.7647C102.188 79.9943 101.917 80.1839 101.72 80.0391L99.9986 78.7652C99.977 78.7499 99.959 78.7311 99.9434 78.7099L93.4944 69.6986C93.4116 69.5832 93.444 69.4243 93.5652 69.3478L94.6474 68.6696C94.7614 68.5978 94.9114 68.6273 94.9894 68.7356L94.9906 68.7367Z" fill="#126EEC"/>
<path d="M99.9477 78.7196L99.9633 78.742L101.625 79.9711L102.079 79.6732L101.457 77.8013C100.97 78.0626 100.387 78.3311 99.9489 78.7196H99.9477Z" fill="#F7CC7F"/>
<path d="M96.9934 32.4536C95.8289 33.3654 93.8046 36.299 91.2207 38.3578C89.7093 39.5626 88.5448 39.2562 86.6155 39.4842C77.4625 40.5691 79.9423 42.4059 78.8442 42.5865C79.1565 43.2911 82.0074 49.2382 82.5398 50.4415C83.0316 51.5501 83.8808 52.0475 85.1116 51.8802C87.0047 51.6241 88.9144 51.4317 90.7787 51.0365C95.5559 50.0197 98.2137 47.6752 101.638 44.8274C102.546 44.0726 102.769 43.1297 102.298 42.0626C100.107 37.0938 97.2287 32.911 96.9919 32.4536H96.9934Z" fill="url(#paint11_linear_2107_131901)"/>
<path d="M77.858 49.7439C77.8988 51.7006 77.7464 52.0943 78.6032 51.7968C79.1191 51.6177 79.6183 51.3854 80.1056 51.1382C80.4495 50.9635 80.463 50.7341 80.184 50.4588C79.7782 50.0577 79.3604 49.6684 78.9531 49.2791C79.2503 48.511 78.9094 47.6184 78.1778 47.1981C78.0285 47.1122 78.1371 47.2943 76.8625 44.4155C81.0785 43.9048 84.0515 43.5629 89.1952 42.9427C90.5709 42.777 91.7927 42.253 92.8561 41.3797C96.5291 38.3633 100.202 35.3482 103.874 32.3288C104.371 31.9188 104.435 31.3194 104.039 30.8576C103.738 30.5038 103.337 30.4875 102.905 30.5408C101.732 30.6859 90.224 32.0875 89.0549 32.2222C87.5194 32.3984 86.1679 32.9653 84.9807 33.9407C81.3726 36.9053 77.7539 39.8611 74.1413 42.8199C73.645 43.2255 73.5108 43.5984 73.6858 44.0499C73.8773 44.5457 74.2952 44.7825 74.9272 44.6493C75.3827 44.5531 75.5849 44.6878 75.7417 45.1022C76.4507 46.9746 76.9454 47.389 76.7735 48.0728C76.6407 48.5998 77.2803 49.5145 77.858 49.7424V49.7439Z" fill="url(#paint12_linear_2107_131901)"/>
<path d="M47.7385 103.764L59.165 93.7587C59.9077 93.1084 59.5979 91.7704 58.5734 91.2011L49.4537 86.1344C48.8697 85.8105 48.2121 85.8404 47.7893 86.2104L36.3628 96.2154C35.6201 96.8657 35.9299 98.2037 36.9544 98.773L46.074 103.84C46.6581 104.164 47.3157 104.134 47.7385 103.764Z" fill="url(#paint13_linear_2107_131901)"/>
<path d="M48.2839 95.8033L49.2361 88.1167C49.2729 87.8226 49.0545 87.5075 48.7485 87.414C48.4426 87.3206 48.1645 87.4838 48.129 87.7778L47.2517 94.8515L38.5866 96.907C38.3047 96.9743 38.1739 97.2733 38.2958 97.5748C38.4177 97.8763 38.7465 98.0669 39.0297 97.9996L48.2839 95.8033Z" fill="white"/>
<path d="M206.549 49.9556L205.434 52.1218L202.912 52.043L201.835 54.5577L199.176 53.6594L197.831 56.452L195.279 55.9211L193.537 58.4005L194.494 59.0469L195.795 57.1938L198.489 57.753L199.782 55.0699L202.486 55.9823L203.673 53.2062L206.135 53.285L207.17 51.2765L208.776 51.6603L209.051 50.5525L206.549 49.9556Z" fill="url(#paint14_linear_2107_131901)"/>
<path d="M70.2466 77.9891L67.9537 78.9027L66.106 77.2168L63.6115 78.42L62.2077 76.0289L59.3246 77.2674L57.7552 75.2224L54.782 75.9688L55.07 77.072L57.2933 76.5139L58.949 78.6732L61.7206 77.4829L63.1472 79.914L65.9008 78.586L67.7053 80.2319L69.8302 79.3854L70.7841 80.7099L71.7332 80.0518L70.2466 77.9891Z" fill="#50BFA5"/>
</g>
<defs>
<linearGradient id="paint0_linear_2107_131901" x1="119.123" y1="20.9866" x2="119.123" y2="36.2177" gradientUnits="userSpaceOnUse">
<stop stop-color="#FFC151"/>
<stop offset="1" stop-color="#FFC151" stop-opacity="0"/>
</linearGradient>
<linearGradient id="paint1_linear_2107_131901" x1="68.6584" y1="56.7566" x2="68.6584" y2="66.4743" gradientUnits="userSpaceOnUse">
<stop stop-color="#FFC762"/>
<stop offset="1" stop-color="#FFC762" stop-opacity="0"/>
</linearGradient>
<linearGradient id="paint2_linear_2107_131901" x1="68.3221" y1="25.6609" x2="68.3221" y2="32.9756" gradientUnits="userSpaceOnUse">
<stop stop-color="#F48C7F"/>
<stop offset="1" stop-color="#F48C7F" stop-opacity="0"/>
</linearGradient>
<linearGradient id="paint3_linear_2107_131901" x1="127.06" y1="104.76" x2="127.06" y2="151.9" gradientUnits="userSpaceOnUse">
<stop stop-color="#1E4E8E"/>
<stop offset="1" stop-color="#1865CD"/>
</linearGradient>
<linearGradient id="paint4_linear_2107_131901" x1="160.746" y1="27.6057" x2="160.746" y2="85.0307" gradientUnits="userSpaceOnUse">
<stop stop-color="#0A2947"/>
<stop offset="1" stop-color="#357FCA"/>
</linearGradient>
<linearGradient id="paint5_linear_2107_131901" x1="150.974" y1="57.7385" x2="150.974" y2="108.165" gradientUnits="userSpaceOnUse">
<stop stop-color="#BDFFF5"/>
<stop offset="1" stop-color="#46CFB9"/>
</linearGradient>
<linearGradient id="paint6_linear_2107_131901" x1="148.945" y1="29.548" x2="155.706" y2="38.9071" gradientUnits="userSpaceOnUse">
<stop stop-color="#0D2E4E"/>
<stop offset="1" stop-color="#0D2E4E"/>
<stop offset="1" stop-color="#0D2E4E" stop-opacity="0"/>
<stop offset="1" stop-color="#0D2E4E" stop-opacity="0.79"/>
</linearGradient>
<linearGradient id="paint7_linear_2107_131901" x1="154.75" y1="57.9971" x2="154.75" y2="81.4403" gradientUnits="userSpaceOnUse">
<stop stop-color="#BDFFF5"/>
<stop offset="1" stop-color="#46CFB9"/>
</linearGradient>
<linearGradient id="paint8_linear_2107_131901" x1="223.37" y1="73.3013" x2="223.37" y2="97.7523" gradientUnits="userSpaceOnUse">
<stop stop-color="#FFEEB1"/>
<stop offset="1" stop-color="#FFEEB1" stop-opacity="0"/>
</linearGradient>
<linearGradient id="paint9_linear_2107_131901" x1="178.922" y1="19.8303" x2="178.922" y2="43.932" gradientUnits="userSpaceOnUse">
<stop stop-color="#5493E9"/>
<stop offset="0.635417" stop-color="#5493E9" stop-opacity="0.510417"/>
<stop offset="1" stop-color="#5493E9" stop-opacity="0"/>
</linearGradient>
<linearGradient id="paint10_linear_2107_131901" x1="104.351" y1="60.6442" x2="119.367" y2="78.4288" gradientUnits="userSpaceOnUse">
<stop stop-color="#FFDB9B"/>
<stop offset="1" stop-color="#FFDB9B" stop-opacity="0"/>
</linearGradient>
<linearGradient id="paint11_linear_2107_131901" x1="90.6912" y1="32.4536" x2="90.6912" y2="51.9119" gradientUnits="userSpaceOnUse">
<stop stop-color="#A1C8FE"/>
<stop offset="1" stop-color="#5D9AEC"/>
</linearGradient>
<linearGradient id="paint12_linear_2107_131901" x1="88.9548" y1="30.5181" x2="88.9548" y2="51.8856" gradientUnits="userSpaceOnUse">
<stop stop-color="#A1C8FE"/>
<stop offset="1" stop-color="#5D9AEC"/>
</linearGradient>
<linearGradient id="paint13_linear_2107_131901" x1="47.7639" y1="85.9106" x2="47.7639" y2="104.063" gradientUnits="userSpaceOnUse">
<stop stop-color="#A1C8FE"/>
<stop offset="1" stop-color="#5D9AEC"/>
</linearGradient>
<linearGradient id="paint14_linear_2107_131901" x1="201.294" y1="49.9556" x2="201.294" y2="59.0469" gradientUnits="userSpaceOnUse">
<stop stop-color="#F7CC7F"/>
<stop offset="1" stop-color="#F7CC7F" stop-opacity="0"/>
</linearGradient>
<clipPath id="clip0_2107_131901">
<rect width="276" height="118" fill="white"/>
</clipPath>
</defs>
</svg>
