<svg width="50" height="50" viewBox="0 0 50 50" fill="none" xmlns="http://www.w3.org/2000/svg">
<path d="M28.8413 11.094H24.9582C24.9582 9.93437 24.0174 8.99356 22.8577 8.99356C21.6981 8.99356 20.7573 9.93437 20.7573 11.094H16.8742C16.1807 11.094 15.6185 11.6562 15.6185 12.3497V14.9019C15.6185 15.5954 16.1807 16.1576 16.8742 16.1576H28.8413C29.5348 16.1576 30.097 15.5954 30.097 14.9019V12.3497C30.097 11.6562 29.5348 11.094 28.8413 11.094Z" fill="url(#paint0_linear_2561_62509)"/>
<g opacity="0.45">
<path d="M31.6931 12.8729H14.0355C13.0347 12.8729 12.2233 13.6046 12.2233 14.5072V37.3657C12.2233 38.2683 13.0347 39 14.0355 39H31.6931C32.694 39 33.5053 38.2683 33.5053 37.3657V14.5072C33.5053 13.6046 32.694 12.8729 31.6931 12.8729Z" fill="#BDD8FF"/>
</g>
<g style="mix-blend-mode:soft-light" opacity="0.5">
<path d="M31.6931 12.8729H14.0355C13.0347 12.8729 12.2233 13.6046 12.2233 14.5072V37.3657C12.2233 38.2683 13.0347 39 14.0355 39H31.6931C32.694 39 33.5053 38.2683 33.5053 37.3657V14.5072C33.5053 13.6046 32.694 12.8729 31.6931 12.8729Z" fill="url(#paint1_linear_2561_62509)"/>
</g>
<g style="mix-blend-mode:screen" opacity="0.5">
<path d="M31.6942 13.15C32.5237 13.15 33.1981 13.7582 33.1981 14.5063V37.3657C33.1981 38.1138 32.5237 38.722 31.6942 38.722H14.0347C13.2051 38.722 12.5307 38.1138 12.5307 37.3657V14.5063C12.5307 13.7582 13.2051 13.15 14.0347 13.15H31.6932H31.6942ZM31.6942 12.872H14.0347C13.0339 12.872 12.2225 13.6038 12.2225 14.5063V37.3657C12.2225 38.2682 13.0339 39 14.0347 39H31.6932C32.694 39 33.5054 38.2682 33.5054 37.3657V14.5063C33.5054 13.6038 32.694 12.872 31.6932 12.872H31.6942Z" fill="url(#paint2_linear_2561_62509)"/>
</g>
<path d="M27.1815 39.7057L24.6967 40.6684C24.2829 40.8292 23.8758 40.4211 24.0356 40.0073L24.9983 37.5226C25.1524 37.1249 25.3874 36.7634 25.6889 36.4619L36.8512 25.2996C37.2507 24.9001 37.8976 24.9001 38.2962 25.2996L39.4035 26.4069C39.8021 26.8055 39.8021 27.4533 39.4035 27.8519L28.2412 39.0142C27.9396 39.3157 27.5782 39.5507 27.1805 39.7048L27.1815 39.7057Z" fill="url(#paint3_linear_2561_62509)"/>
<path d="M28.9478 22.0146H16.7677C16.3425 22.0146 15.9981 21.6703 15.9981 21.2451C15.9981 20.8198 16.3425 20.4755 16.7677 20.4755H28.9478C29.373 20.4755 29.7174 20.8198 29.7174 21.2451C29.7174 21.6703 29.373 22.0146 28.9478 22.0146Z" fill="white"/>
<path d="M28.9478 26.8146H16.7677C16.3425 26.8146 15.9981 26.4703 15.9981 26.0451C15.9981 25.6198 16.3425 25.2755 16.7677 25.2755H28.9478C29.373 25.2755 29.7174 25.6198 29.7174 26.0451C29.7174 26.4703 29.373 26.8146 28.9478 26.8146Z" fill="white"/>
<path d="M23.1574 31.6139H16.7677C16.3425 31.6139 15.9981 31.2695 15.9981 30.8443C15.9981 30.4191 16.3425 30.0747 16.7677 30.0747H23.1574C23.5826 30.0747 23.927 30.4191 23.927 30.8443C23.927 31.2695 23.5826 31.6139 23.1574 31.6139Z" fill="white"/>
<defs>
<linearGradient id="paint0_linear_2561_62509" x1="18.3401" y1="9.10867" x2="27.3754" y2="18.1439" gradientUnits="userSpaceOnUse">
<stop stop-color="#66B9FF"/>
<stop offset="1" stop-color="#497FFF"/>
</linearGradient>
<linearGradient id="paint1_linear_2561_62509" x1="10.8316" y1="15.0846" x2="32.4192" y2="39.0221" gradientUnits="userSpaceOnUse">
<stop stop-color="white"/>
<stop offset="0.2" stop-color="#F6F9FF"/>
<stop offset="0.52" stop-color="#DDEBFF"/>
<stop offset="0.92" stop-color="#B6D3FF"/>
<stop offset="1" stop-color="#AECFFF"/>
</linearGradient>
<linearGradient id="paint2_linear_2561_62509" x1="9.18505" y1="18.8138" x2="35.0589" y2="35.3776" gradientUnits="userSpaceOnUse">
<stop stop-color="#C5D4FF"/>
<stop offset="0.45" stop-color="#90A5FF"/>
<stop offset="0.81" stop-color="#6D86FF"/>
<stop offset="1" stop-color="#607BFF"/>
</linearGradient>
<linearGradient id="paint3_linear_2561_62509" x1="30.2232" y1="31.9269" x2="32.7759" y2="34.4797" gradientUnits="userSpaceOnUse">
<stop stop-color="#66B9FF"/>
<stop offset="1" stop-color="#497FFF"/>
</linearGradient>
</defs>
</svg>
