<svg width="50" height="50" viewBox="0 0 50 50" fill="none" xmlns="http://www.w3.org/2000/svg">
<path d="M31.5924 19.5303H8.541C7.2289 19.5303 6.23079 20.6962 6.44768 21.9774L8.56798 34.5122C8.73955 35.5244 9.62435 36.2664 10.6613 36.2664H29.4818C30.5187 36.2664 31.4036 35.5254 31.5751 34.5143L33.6857 21.9774C33.9015 20.6973 32.9034 19.5324 31.5924 19.5324V19.5303Z" fill="url(#paint0_linear_4858_8761)"/>
<g opacity="0.45">
<path d="M43.9987 11.3511C43.9987 12.1241 43.3653 12.7509 42.5841 12.7509H39.7473C39.0567 12.7509 38.4665 13.2452 38.3521 13.9189L35.2822 32.0014C35.1107 33.0125 34.2259 33.7535 33.1889 33.7535H14.3674C13.3304 33.7535 12.4445 33.0115 12.274 31.9993L10.1537 19.4645C9.93685 18.1844 10.935 17.0174 12.2471 17.0174H33.6961C34.3877 17.0174 34.978 16.523 35.0913 15.8482L35.4959 13.4566C35.838 11.4322 37.6086 9.94922 39.6825 9.94922H42.5819C43.3631 9.94922 43.9965 10.576 43.9965 11.349L43.9987 11.3511ZM20.6959 37.6431C20.6959 36.2807 19.5802 35.1767 18.2033 35.1767C16.8265 35.1767 15.7108 36.2807 15.7108 37.6431C15.7108 39.0055 16.8265 40.1095 18.2033 40.1095C19.5802 40.1095 20.6959 39.0055 20.6959 37.6431ZM31.8045 37.6431C31.8045 36.2807 30.6888 35.1767 29.312 35.1767C27.9351 35.1767 26.8194 36.2807 26.8194 37.6431C26.8194 39.0055 27.9351 40.1095 29.312 40.1095C30.6888 40.1095 31.8045 39.0055 31.8045 37.6431Z" fill="#BDD8FF"/>
</g>
<g style="mix-blend-mode:soft-light" opacity="0.5">
<path d="M43.9987 11.3511C43.9987 12.1241 43.3653 12.7509 42.5841 12.7509H39.7473C39.0567 12.7509 38.4665 13.2452 38.3521 13.9189L35.2822 32.0014C35.1107 33.0125 34.2259 33.7535 33.1889 33.7535H14.3674C13.3304 33.7535 12.4445 33.0115 12.274 31.9993L10.1537 19.4645C9.93685 18.1844 10.935 17.0174 12.2471 17.0174H33.6961C34.3877 17.0174 34.978 16.523 35.0913 15.8482L35.4959 13.4566C35.838 11.4322 37.6086 9.94922 39.6825 9.94922H42.5819C43.3631 9.94922 43.9965 10.576 43.9965 11.349L43.9987 11.3511ZM20.6959 37.6431C20.6959 36.2807 19.5802 35.1767 18.2033 35.1767C16.8265 35.1767 15.7108 36.2807 15.7108 37.6431C15.7108 39.0055 16.8265 40.1095 18.2033 40.1095C19.5802 40.1095 20.6959 39.0055 20.6959 37.6431ZM31.8045 37.6431C31.8045 36.2807 30.6888 35.1767 29.312 35.1767C27.9351 35.1767 26.8194 36.2807 26.8194 37.6431C26.8194 39.0055 27.9351 40.1095 29.312 40.1095C30.6888 40.1095 31.8045 39.0055 31.8045 37.6431Z" fill="url(#paint1_linear_4858_8761)"/>
</g>
<g style="mix-blend-mode:screen" opacity="0.5">
<path d="M42.5843 10.2971C43.1723 10.2971 43.6504 10.7701 43.6504 11.352C43.6504 11.9339 43.1723 12.4069 42.5843 12.4069H39.7475C38.8821 12.4069 38.1505 13.0197 38.0081 13.8632L34.9382 31.9457C34.7947 32.7945 34.0588 33.4095 33.1891 33.4095H14.3676C13.4979 33.4095 12.762 32.7935 12.6184 31.9446L10.4981 19.4099C10.4118 18.8995 10.5564 18.3806 10.8942 17.9867C11.2319 17.5916 11.725 17.3653 12.2483 17.3653H33.6974C34.5627 17.3653 35.2943 16.7524 35.4378 15.9078L35.8425 13.5162C36.1576 11.6509 37.7739 10.2971 39.6849 10.2971H42.5843ZM42.5843 9.95117H39.6849C37.611 9.95117 35.8403 11.4342 35.4983 13.4586L35.0936 15.8502C34.9792 16.525 34.389 17.0193 33.6984 17.0193H12.2483C10.9362 17.0193 9.93813 18.1852 10.155 19.4665L12.2753 32.0012C12.4469 33.0134 13.3317 33.7555 14.3686 33.7555H33.1891C34.2261 33.7555 35.1109 33.0145 35.2825 32.0034L38.3523 13.9209C38.4667 13.2461 39.0569 12.7528 39.7475 12.7528H42.5843C43.3655 12.7528 43.9989 12.1261 43.9989 11.3531C43.9989 10.58 43.3655 9.95331 42.5843 9.95331V9.95117Z" fill="url(#paint2_linear_4858_8761)"/>
</g>
<g style="mix-blend-mode:screen" opacity="0.5">
<path d="M18.2002 35.5227C19.3817 35.5227 20.3432 36.474 20.3432 37.6431C20.3432 38.8123 19.3817 39.7636 18.2002 39.7636C17.0187 39.7636 16.0572 38.8123 16.0572 37.6431C16.0572 36.474 17.0187 35.5227 18.2002 35.5227ZM18.2002 35.1768C16.8234 35.1768 15.7076 36.2808 15.7076 37.6431C15.7076 39.0055 16.8234 40.1095 18.2002 40.1095C19.5771 40.1095 20.6928 39.0055 20.6928 37.6431C20.6928 36.2808 19.5771 35.1768 18.2002 35.1768Z" fill="url(#paint3_linear_4858_8761)"/>
</g>
<g style="mix-blend-mode:screen" opacity="0.5">
<path d="M29.3098 35.5227C30.4914 35.5227 31.4528 36.474 31.4528 37.6431C31.4528 38.8123 30.4914 39.7636 29.3098 39.7636C28.1283 39.7636 27.1669 38.8123 27.1669 37.6431C27.1669 36.474 28.1283 35.5227 29.3098 35.5227ZM29.3098 35.1768C27.933 35.1768 26.8173 36.2808 26.8173 37.6431C26.8173 39.0055 27.933 40.1095 29.3098 40.1095C30.6867 40.1095 31.8024 39.0055 31.8024 37.6431C31.8024 36.2808 30.6867 35.1768 29.3098 35.1768Z" fill="url(#paint4_linear_4858_8761)"/>
</g>
<defs>
<linearGradient id="paint0_linear_4858_8761" x1="10.166" y1="17.0532" x2="29.7625" y2="36.8578" gradientUnits="userSpaceOnUse">
<stop stop-color="#66B9FF"/>
<stop offset="1" stop-color="#497FFF"/>
</linearGradient>
<linearGradient id="paint1_linear_4858_8761" x1="16.7218" y1="11.7227" x2="37.6539" y2="32.877" gradientUnits="userSpaceOnUse">
<stop stop-color="white"/>
<stop offset="0.2" stop-color="#F6F9FF"/>
<stop offset="0.52" stop-color="#DDEBFF"/>
<stop offset="0.92" stop-color="#B6D3FF"/>
<stop offset="1" stop-color="#AECFFF"/>
</linearGradient>
<linearGradient id="paint2_linear_4858_8761" x1="17.4072" y1="11.0456" x2="37.0037" y2="30.8512" gradientUnits="userSpaceOnUse">
<stop stop-color="#C5D4FF"/>
<stop offset="0.45" stop-color="#90A5FF"/>
<stop offset="0.81" stop-color="#6D86FF"/>
<stop offset="1" stop-color="#607BFF"/>
</linearGradient>
<linearGradient id="paint3_linear_4858_8761" x1="16.4381" y1="35.8996" x2="19.9261" y2="39.4246" gradientUnits="userSpaceOnUse">
<stop stop-color="#C5D4FF"/>
<stop offset="0.45" stop-color="#90A5FF"/>
<stop offset="0.81" stop-color="#6D86FF"/>
<stop offset="1" stop-color="#607BFF"/>
</linearGradient>
<linearGradient id="paint4_linear_4858_8761" x1="27.5467" y1="35.8996" x2="31.0347" y2="39.4246" gradientUnits="userSpaceOnUse">
<stop stop-color="#C5D4FF"/>
<stop offset="0.45" stop-color="#90A5FF"/>
<stop offset="0.81" stop-color="#6D86FF"/>
<stop offset="1" stop-color="#607BFF"/>
</linearGradient>
</defs>
</svg>
